<svg version="1.1" id="Layer_1" xmlns="http://www.w3.org/2000/svg" xmlns:xlink="http://www.w3.org/1999/xlink" x="0px" y="0px"
	 width="100%" viewBox="0 0 421 433" enable-background="new 0 0 421 433" xml:space="preserve">





<path fill="#5AB2CC" opacity="1.000000" stroke="none" 
	d="
M248.992630,183.810333 
	C243.889328,187.722061 243.649200,193.579330 243.027359,199.184265 
	C241.908188,209.271347 241.009247,219.382874 240.024048,229.484756 
	C239.975708,229.980362 240.191299,230.685501 239.932861,230.949966 
	C233.166428,237.874603 238.952148,245.244720 239.135239,252.401810 
	C239.431351,263.976471 239.897614,275.549103 240.002914,287.125214 
	C240.049118,292.203979 239.508026,297.301270 239.014435,302.368835 
	C238.078293,311.979553 236.984177,321.574921 235.727814,331.774078 
	C235.337036,332.615967 235.168762,332.856689 234.995102,333.093658 
	C234.995102,333.093658 234.976349,332.979858 234.799362,333.294220 
	C234.031158,337.530670 233.328888,341.440094 232.879028,345.378326 
	C232.399612,349.575165 232.158920,353.799286 231.814011,358.011475 
	C231.532715,360.918701 231.426025,363.855835 230.934814,366.727142 
	C229.817108,373.260498 228.062805,379.724579 227.520050,386.295532 
	C227.326172,388.642700 229.727722,391.311798 231.211380,393.665863 
	C233.694580,397.605865 236.391937,401.410950 239.087219,405.640198 
	C237.885712,406.647766 236.649078,407.688812 235.298538,407.867065 
	C219.159714,409.997467 203.010147,409.878021 186.879761,407.719971 
	C185.943832,407.594757 185.067703,407.022614 183.976532,406.300598 
	C185.810120,402.146576 186.905838,397.040436 190.042969,394.825073 
	C196.716110,390.112610 195.633041,383.929993 194.825867,377.943604 
	C192.889740,363.584290 190.264679,349.319092 188.022308,334.999542 
	C185.281815,317.498840 183.369293,299.966003 182.669220,282.196808 
	C182.102341,267.808655 182.732758,253.852112 186.434799,239.985977 
	C186.722885,238.906891 186.312454,237.575562 186.013580,236.416443 
	C184.363495,230.016907 182.093979,223.719498 181.095291,217.224319 
	C179.878479,209.310623 179.311493,201.240677 179.207809,193.228668 
	C179.112457,185.861542 173.323013,183.603821 168.914688,179.960800 
	C168.156555,179.334274 167.384186,178.724960 166.202042,177.682953 
	C165.161041,176.846954 164.536407,176.435684 163.911758,176.024414 
	C163.911758,176.024414 163.988052,176.017685 163.828918,175.748688 
	C161.741089,174.340286 159.812363,173.200912 157.883652,172.061523 
	C157.883652,172.061523 157.960388,172.058594 157.870544,171.764282 
	C156.823227,170.993423 155.865723,170.516891 154.908234,170.040344 
	C154.908234,170.040344 154.977356,170.037094 154.908020,169.728516 
	C150.838333,166.945847 146.837982,164.471725 142.837646,161.997604 
	C142.267059,161.522141 141.696472,161.046677 140.956726,160.010635 
	C140.200180,158.948959 139.612747,158.447861 138.756912,157.745422 
	C137.621185,157.385696 136.753891,157.227280 135.886581,157.068878 
	C135.886581,157.068878 135.952637,157.021378 135.834335,156.833801 
	C135.443726,156.429840 135.171432,156.213486 134.899124,155.997116 
	C134.899124,155.997116 134.995071,156.035599 134.920837,155.737625 
	C131.175537,152.951508 127.504478,150.463364 123.833420,147.975220 
	C120.996544,146.240784 118.159668,144.506363 115.097702,142.109009 
	C112.875755,140.324127 110.878891,139.202148 108.882027,138.080170 
	C108.882027,138.080170 108.953590,138.064072 108.905991,137.746964 
	C106.194847,135.639633 103.531311,133.849396 100.867775,132.059174 
	C100.867775,132.059174 100.955147,132.052856 100.868271,131.763794 
	C99.824242,130.996201 98.867088,130.517685 97.909935,130.039154 
	C97.909935,130.039154 97.976921,130.027328 97.918137,129.708466 
	C95.865578,128.281128 93.871803,127.172668 91.878036,126.064209 
	C91.878036,126.064209 91.955986,126.012779 91.821671,125.842697 
	C91.419205,125.445969 91.151054,125.219322 90.882896,124.992668 
	C90.882896,124.992668 91.009842,125.021896 90.876846,124.751648 
	C90.291504,120.007256 94.614227,115.189301 100.145340,114.002823 
	C100.145340,114.002823 100.542572,114.025909 100.850769,114.275177 
	C101.349411,114.765266 101.585152,114.947472 101.866196,115.071053 
	C111.744377,120.755272 121.628235,126.429688 131.488525,132.144775 
	C132.179047,132.544998 132.695160,133.246140 133.774017,134.154770 
	C134.518356,134.705109 134.804489,134.866516 135.114044,134.986404 
	C135.114044,134.986404 135.015640,135.008743 135.163361,135.173401 
	C135.589615,135.557236 135.868149,135.776398 136.146683,135.995544 
	C136.529587,135.998123 136.912491,136.000702 137.751312,136.254425 
	C138.502411,136.666321 138.797592,136.827072 139.092758,136.987839 
	C139.092758,136.987839 139.007965,137.004440 139.161011,137.169968 
	C139.587219,137.554398 139.860382,137.773315 140.133545,137.992233 
	C140.133545,137.992233 140.537109,138.025192 140.901276,138.263794 
	C141.527802,138.706711 141.814407,138.867859 142.125290,138.985825 
	C142.125290,138.985825 142.018005,138.965637 142.126389,139.250885 
	C143.226715,140.023895 144.218674,140.511627 145.210617,140.999359 
	C145.210617,140.999359 145.538406,140.993408 145.886612,141.251984 
	C146.566162,141.671448 146.897507,141.832352 147.228851,141.993256 
	C147.228851,141.993256 147.592896,142.003021 147.934769,142.245590 
	C148.536163,142.683990 148.812164,142.852921 149.104630,142.994980 
	C149.104630,142.994980 149.012573,142.983795 149.121262,143.265961 
	C150.192429,144.013611 151.154907,144.479080 152.117386,144.944550 
	C152.117386,144.944550 152.028763,144.984863 152.170013,145.151825 
	C152.585907,145.542252 152.860550,145.765732 153.135193,145.989212 
	C153.135193,145.989212 153.542496,146.021729 153.917633,146.260254 
	C154.590042,146.661621 154.887314,146.824478 155.184570,146.987335 
	C155.184570,146.987335 155.549362,147.011978 155.907257,147.258713 
	C156.571869,147.668411 156.878601,147.831375 157.185333,147.994354 
	C157.185333,147.994354 157.567795,148.013916 157.925888,148.249588 
	C158.549927,148.687302 158.837677,148.850983 159.147232,148.976318 
	C159.147232,148.976318 159.034119,148.959045 159.128571,149.250244 
	C160.858307,150.332016 162.493591,151.122604 164.128876,151.913177 
	C164.128876,151.913177 164.068436,151.977844 164.187988,152.160278 
	C164.576874,152.562927 164.846207,152.783127 165.115524,153.003342 
	C165.115524,153.003342 165.006973,152.975342 165.132568,153.267761 
	C166.564087,154.037888 167.870041,154.515610 169.175980,154.993332 
	C169.175980,154.993332 169.528687,155.003113 169.873383,155.250412 
	C170.522476,155.655121 170.826843,155.812546 171.131226,155.969955 
	C171.131226,155.969955 171.039551,156.009857 171.179825,156.174744 
	C171.598587,156.555161 171.877060,156.770676 172.155548,156.986206 
	C184.058304,163.775040 195.893799,170.687866 207.935181,177.221222 
	C209.776016,178.220016 213.074127,178.363754 214.836334,177.371796 
	C224.387848,171.995163 233.608292,166.034927 243.061005,160.476776 
	C250.991913,155.813446 259.167664,151.565125 267.077942,146.868469 
	C272.663818,143.551910 277.874084,139.602631 283.460815,136.287659 
	C288.547119,133.269608 294.040039,130.937180 299.128967,127.923058 
	C306.661102,123.461861 314.101929,118.824730 321.362701,113.937309 
	C324.516602,111.814331 326.535736,111.741135 329.347565,114.606163 
	C337.063599,122.468224 336.920410,123.630547 327.265350,129.498184 
	C320.934540,133.345596 314.887909,137.660721 308.126282,141.813110 
	C306.711121,142.617996 305.883698,143.376144 305.056274,144.134293 
	C305.056274,144.134293 305.047882,144.062592 304.734467,144.057953 
	C303.280701,144.703140 302.140350,145.352936 300.654785,146.072327 
	C297.550659,148.462616 294.791748,150.783279 292.032806,153.103958 
	C292.032806,153.103958 292.005890,153.017120 291.840698,153.161163 
	C291.449890,153.567856 291.224304,153.830475 290.998718,154.093109 
	C290.998718,154.093109 291.051117,154.018417 290.710876,154.035095 
	C287.595978,156.079422 284.821320,158.107071 282.046661,160.134735 
	C282.046661,160.134735 282.045776,160.059158 281.714417,160.059631 
	C279.271851,161.750717 277.160706,163.441299 275.049530,165.131897 
	C275.049530,165.131897 275.047607,165.059769 274.712524,165.060486 
	C272.266144,166.746811 270.154785,168.432419 268.043457,170.118027 
	C268.043457,170.118027 268.025360,170.030228 267.838623,170.127533 
	C267.393158,170.440475 267.134399,170.656113 266.875671,170.871735 
	C266.479675,171.196243 266.083679,171.520752 265.203430,172.066666 
	C264.480194,172.563141 264.241180,172.838226 264.002167,173.113312 
	C264.002167,173.113312 264.041138,173.032166 263.701599,173.048065 
	C260.328827,174.356705 256.194855,174.318924 256.054993,179.109085 
	C256.054993,179.109085 256.039368,179.040222 255.703003,179.048035 
	C253.923752,180.076294 252.480850,181.096725 251.037949,182.117172 
	C251.037949,182.117172 251.035736,182.040359 250.779480,182.096603 
	C250.013031,182.705338 249.502838,183.257843 248.992630,183.810333 
z"/>


<path fill="#5CB2CB" opacity="1.000000" stroke="none" 
	d="
M149.006027,375.162628 
	C148.991699,375.478119 148.850983,375.720123 148.142868,376.088074 
	C147.468475,376.558960 147.235092,376.830414 147.001709,377.101868 
	C147.001709,377.101868 146.985703,377.001984 146.824997,377.208374 
	C146.454254,377.969666 146.244202,378.524597 146.034149,379.079529 
	C146.034134,379.079529 146.023788,379.010071 145.853210,379.164886 
	C145.453857,379.577179 145.225113,379.834656 144.996353,380.092133 
	C144.996353,380.092133 144.998474,379.998444 144.835052,380.155853 
	C144.446609,380.578186 144.221588,380.843109 143.996582,381.108063 
	C143.996597,381.108063 143.997910,380.995331 143.839127,381.152710 
	C143.453751,381.581451 143.227158,381.852814 143.000580,382.124176 
	C143.000580,382.124176 142.998276,382.000305 142.843536,382.155579 
	C142.459412,382.582336 142.230042,382.853851 142.000687,383.125366 
	C142.000687,383.125366 141.993225,383.000977 141.844757,383.156830 
	C141.463699,383.576508 141.231094,383.840302 140.998505,384.104095 
	C140.998489,384.104095 141.015991,384.017029 140.707886,384.097412 
	C139.632507,385.492432 138.865234,386.807068 138.097961,388.121704 
	C138.097961,388.121704 138.020660,388.029114 137.689789,388.047119 
	C136.130951,388.875824 134.902985,389.686554 133.675018,390.497253 
	C123.317032,383.891266 112.959061,377.285278 102.392807,370.442841 
	C105.470055,366.699799 109.601524,366.076874 114.244270,365.843567 
	C125.750946,365.265381 135.404922,361.526489 141.071121,350.165558 
	C143.966415,344.360474 149.040573,339.676147 152.289719,334.003998 
	C155.564713,328.286682 157.677536,321.915619 160.515335,315.933350 
	C165.887711,304.608063 171.414505,293.355957 177.350372,281.096008 
	C178.421387,282.952972 179.789825,284.254272 179.870743,285.631256 
	C180.703918,299.810242 181.869415,314.009033 181.671204,328.184540 
	C181.614243,332.257690 177.646393,336.398560 175.121567,340.280670 
	C172.553207,344.229706 169.553055,347.897949 166.220444,352.006927 
	C165.469254,352.596313 165.239594,352.867889 165.009949,353.139496 
	C165.009949,353.139496 165.033157,353.034241 164.730804,353.106354 
	C163.308075,355.159973 162.187698,357.141479 161.067322,359.122986 
	C161.067322,359.122986 161.065689,359.051300 160.746887,359.108154 
	C158.974350,361.482910 157.520599,363.800842 156.066833,366.118744 
	C156.066833,366.118744 156.059433,366.048004 155.751984,366.104065 
	C154.635101,367.151306 153.825653,368.142487 153.016205,369.133698 
	C153.016205,369.133698 152.975128,369.535126 152.731812,369.895081 
	C152.287262,370.508606 152.128448,370.786407 152.012039,371.088470 
	C152.012039,371.088470 152.016983,371.019470 151.699402,371.096008 
	C150.589905,372.502563 149.797958,373.832611 149.006027,375.162628 
z"/>
<path fill="#5BB2CB" opacity="1.000000" stroke="none" 
	d="
M267.855896,327.056366 
	C267.855896,327.056366 267.980804,327.437439 268.011414,328.022003 
	C269.064514,330.394623 270.086975,332.182648 271.109467,333.970703 
	C271.109467,333.970703 271.039734,333.978241 271.048431,334.318817 
	C272.747742,337.091400 274.438385,339.523438 276.128998,341.955444 
	C276.128998,341.955444 276.056824,341.961304 276.061584,342.273834 
	C276.748688,343.379974 277.431061,344.173553 278.113403,344.967163 
	C278.113403,344.967163 278.018250,344.993073 278.160706,345.158264 
	C278.569244,345.548737 278.835297,345.773987 279.101318,345.999268 
	C279.101318,345.999268 278.990448,345.985840 279.145142,346.153748 
	C279.575592,346.545990 279.851349,346.770294 280.127106,346.994598 
	C280.127106,346.994598 280.032776,346.967255 280.085388,347.227814 
	C280.466736,347.997253 280.795410,348.506165 281.124115,349.015045 
	C281.124115,349.015045 281.021942,348.989502 281.079407,349.243652 
	C281.462006,350.003601 281.787170,350.509369 282.112305,351.015137 
	C282.112305,351.015137 281.987976,351.001343 282.144043,351.160614 
	C282.573761,351.544006 282.847473,351.768158 283.121155,351.992279 
	C283.121155,351.992279 283.038696,351.947815 283.049622,352.283569 
	C284.415375,354.395660 285.770233,356.171997 287.125061,357.948334 
	C287.125061,357.948334 287.055206,357.958710 287.052765,358.292572 
	C288.411865,360.066681 289.773438,361.506927 291.135010,362.947174 
	C291.135010,362.947174 291.024567,362.977875 291.172577,363.141052 
	C291.602570,363.529388 291.884521,363.754578 292.166504,363.979767 
	C292.166504,363.979767 292.579926,364.014740 293.041382,364.270996 
	C294.342010,364.677277 295.181213,364.827271 296.443573,364.993286 
	C303.648438,365.675049 310.430115,366.340729 317.211792,367.006409 
	C318.151215,367.817749 319.090637,368.629120 320.222229,369.699341 
	C314.900848,374.331421 309.582764,378.986389 303.812927,382.990295 
	C299.046051,386.298218 293.745117,388.836517 288.362305,391.846863 
	C283.687073,386.619385 279.330383,381.260895 274.917175,375.191864 
	C273.198730,372.672272 271.536835,370.863220 269.874969,369.054169 
	C269.874969,369.054169 269.957794,369.010956 269.831787,368.837524 
	C269.439911,368.442139 269.174011,368.220123 268.908112,367.998138 
	C268.908112,367.998138 269.001221,367.994690 268.851349,367.831299 
	C268.439484,367.444916 268.177460,367.221924 267.915436,366.998962 
	C267.915436,366.998962 268.004059,367.005310 267.858093,366.827881 
	C267.436676,366.435455 267.161255,366.220490 266.885834,366.005493 
	C266.885834,366.005493 266.982849,365.997192 266.871185,365.836945 
	C266.597595,365.397949 266.397125,365.150452 266.158112,364.934174 
	C266.158112,364.934174 266.011841,364.575592 265.986389,364.025452 
	C265.273407,362.659302 264.585846,361.843262 263.898285,361.027252 
	C263.898285,361.027252 263.987366,361.005005 263.842590,360.840515 
	C263.436279,360.449463 263.174744,360.222870 262.913239,359.996307 
	C262.913239,359.996307 262.982422,360.038239 262.968628,359.701965 
	C261.251526,357.269196 259.548157,355.172699 257.844818,353.076233 
	C257.844818,353.076233 257.942566,353.025360 257.823822,352.852936 
	C257.436188,352.456726 257.167297,352.232941 256.898407,352.009125 
	C256.898407,352.009125 256.965485,352.062836 256.955139,351.726685 
	C255.592209,349.606506 254.239639,347.822479 252.887085,346.038452 
	C252.887085,346.038452 252.977051,346.002472 252.824615,345.839508 
	C252.389893,345.457458 252.107635,345.238342 251.825363,345.019257 
	C251.507492,345.020355 251.263947,344.886353 250.997513,344.089081 
	C250.558884,343.034180 250.217453,342.507538 249.876007,341.980865 
	C249.876007,341.980865 249.975861,342.011597 249.973495,341.676086 
	C248.931946,339.913177 247.892776,338.485809 246.853607,337.058411 
	C246.853607,337.058411 246.965469,337.026367 246.834305,336.854370 
	C246.424438,336.457092 246.145737,336.231781 245.867035,336.006470 
	C245.867035,336.006470 245.964905,336.033386 245.913727,335.773682 
	C245.536072,335.003265 245.209625,334.492554 244.883163,333.981842 
	C244.883163,333.981842 244.989960,334.024994 244.929718,333.706970 
	C244.031906,330.778137 242.437195,328.151245 242.492493,325.559509 
	C242.693497,316.137299 243.503403,306.729553 243.941177,297.309723 
	C244.022842,295.552185 243.446884,293.764130 243.174423,291.990143 
	C243.525665,288.963013 241.177643,285.054901 245.181015,283.441101 
	C245.800537,283.191345 248.738541,287.613708 249.980240,290.177734 
	C254.780869,300.090668 259.328766,310.126007 264.100098,320.716187 
	C264.450592,321.583252 264.671844,321.849945 264.893097,322.116638 
	C264.893097,322.116638 265.002655,322.460052 265.026184,322.996002 
	C265.744263,324.340271 266.438751,325.148590 267.133270,325.956909 
	C267.133270,325.956909 267.032288,325.976166 267.132172,326.144348 
	C267.389801,326.602539 267.597748,326.850494 267.855896,327.056366 
z"/>



<path fill="#5DB2CA" opacity="1.000000" stroke="none" 
	d="
M131.016953,180.147369 
	C137.461807,180.425034 143.905807,180.725388 150.351990,180.967728 
	C152.510635,181.048859 154.674835,180.982132 156.836502,180.982742 
	C164.189102,180.984833 169.830658,186.878357 169.051270,194.759659 
	C131.001068,194.945694 93.763901,194.952896 56.526840,195.020157 
	C54.755196,195.023346 52.984509,195.558365 51.213371,195.845718 
	C45.427559,194.579285 48.943558,189.927643 47.998837,186.469208 
	C48.035305,186.025772 48.005417,185.998047 48.017937,186.010986 
	C49.408432,184.353592 50.786415,182.683243 52.995411,181.037842 
	C72.815300,181.085602 91.804672,181.194626 110.792786,181.084961 
	C117.535759,181.046036 124.275650,180.475327 131.016953,180.147369 
z"/>
<path fill="#5CB2CB" opacity="1.000000" stroke="none" 
	d="
M222.261078,167.283768 
	C217.066818,171.313766 211.415344,172.231995 205.805023,170.201019 
	C200.090469,168.132309 195.901505,163.089539 194.545074,157.735580 
	C191.798340,146.894211 191.542480,135.624420 198.172226,125.710144 
	C201.420471,120.852608 206.102798,116.826836 212.492538,118.143494 
	C218.411011,119.363060 222.927216,123.224030 226.059814,128.566849 
	C231.889313,138.509338 230.515030,148.932632 227.791931,159.245209 
	C227.039902,162.093231 224.330170,164.424332 222.261078,167.283768 
z"/>
<path fill="#57B2CD" opacity="1.000000" stroke="none" 
	d="
M277.991333,182.193115 
	C277.991333,182.193115 278.448059,182.042053 278.957001,182.018463 
	C279.646576,181.994354 279.827240,181.993835 280.002686,181.994553 
	C279.997498,181.995789 280.005463,181.981735 280.346497,182.216431 
	C281.820435,182.632675 282.953125,182.970795 284.086304,182.972519 
	C304.303375,183.003296 324.520508,183.012650 344.737427,182.950607 
	C346.162506,182.946243 347.585785,182.350571 349.477783,182.023682 
	C356.611481,182.043655 363.277283,182.069809 370.031616,182.465698 
	C374.270813,193.900101 372.177399,194.166733 362.744446,194.096085 
	C329.455963,193.846756 296.164520,194.000595 262.874176,193.993851 
	C261.377777,193.993546 259.699097,194.320648 258.442261,193.751389 
	C257.425262,193.290741 256.265442,191.688263 256.299225,190.628296 
	C256.417603,186.914536 260.837402,183.165833 264.651978,182.986618 
	C269.101044,182.777588 273.545105,182.462296 277.991333,182.193115 
z"/>


</svg>