<svg version="1.1" id="Layer_1" xmlns="http://www.w3.org/2000/svg" xmlns:xlink="http://www.w3.org/1999/xlink" x="0px" y="0px"
	 width="100%" viewBox="0 0 421 433" enable-background="new 0 0 421 433" xml:space="preserve">
<path fill="#000000" opacity="1.000000" stroke="none" 
	d="
M1.000000,125.000000 
	C1.000000,83.727020 1.000000,42.454037 1.000000,1.000000 
	C59.354103,1.000000 117.708389,1.000000 176.874634,1.285820 
	C175.841141,2.400013 173.995697,3.228388 171.926559,4.398192 
	C167.806900,5.549282 163.910950,6.358941 159.587891,7.089141 
	C154.410324,8.333381 149.659851,9.657080 144.692566,11.007740 
	C144.475769,11.034701 144.061035,11.172210 143.661102,11.107756 
	C142.183960,11.344134 141.066833,11.546086 140.036148,11.962215 
	C134.325333,14.267933 128.635544,16.625751 122.967651,18.977110 
	C122.996742,18.988491 122.979446,18.928457 122.572495,18.959469 
	C118.377480,20.653383 114.589417,22.316288 110.419342,23.975222 
	C106.037094,25.956785 101.937119,27.766409 98.057892,29.965450 
	C90.595078,34.195950 83.260536,38.652504 75.865845,43.003510 
	C73.179779,44.583977 73.381233,46.477016 75.117477,48.664062 
	C77.839058,52.092274 80.503342,55.565964 83.118683,59.390984 
	C85.794304,65.967484 88.883324,66.863251 94.497665,63.008190 
	C95.775154,62.131012 96.917015,61.056316 98.085602,60.069984 
	C98.049919,60.067432 98.058586,60.138458 98.434128,60.092583 
	C105.195358,56.897984 111.590034,53.767086 117.949875,50.566971 
	C118.462875,50.308842 118.736610,49.575218 119.081154,49.064545 
	C119.040779,49.066532 119.048233,49.147041 119.434334,49.085602 
	C123.218483,47.626228 126.616531,46.228294 130.381592,44.896545 
	C137.841309,42.243168 144.934052,39.523605 152.429749,36.861908 
	C161.568466,34.898869 170.304214,32.877964 179.463623,30.911100 
	C186.411224,30.324810 192.932571,29.187872 199.459641,29.153940 
	C210.868301,29.094633 222.288910,30.151951 233.689011,29.933588 
	C247.032867,29.677994 259.469574,33.819698 272.005096,37.116955 
	C292.824951,42.593266 311.993439,52.027889 329.679718,64.322853 
	C333.071472,66.680695 335.562225,65.932938 337.517487,62.966621 
	C341.257843,57.292152 344.708008,51.426418 348.209900,45.751366 
	C343.996399,42.912777 340.237488,40.169571 336.265656,37.780296 
	C333.707733,36.241604 330.837128,35.222729 327.966187,33.644524 
	C324.567108,31.501005 321.308533,29.683840 318.040466,27.914665 
	C318.030975,27.962654 318.127350,27.979464 318.033600,27.693790 
	C317.584473,27.320908 317.229095,27.233698 316.703003,27.087082 
	C316.532257,27.027674 316.171387,27.005922 316.018494,26.675453 
	C313.932404,25.507284 311.999146,24.669588 310.063660,23.872734 
	C310.061371,23.913574 310.143188,23.913265 309.989319,23.590088 
	C308.532471,22.899261 307.229492,22.531612 305.597443,21.984947 
	C301.460327,20.180771 297.714142,18.386055 293.830048,16.969400 
	C287.702118,14.734336 281.561493,12.462372 275.280243,10.737586 
	C267.295868,8.545135 259.165833,6.883279 250.944427,4.672806 
	C249.865158,4.303841 248.940094,4.254726 247.805984,4.120929 
	C247.596954,4.036247 247.147095,4.003300 246.947540,3.635684 
	C245.165314,2.512047 243.582657,1.756026 242.000000,1.000002 
	C301.913818,1.000000 361.827667,1.000000 422.000000,1.000000 
	C422.000000,42.353870 422.000000,83.708275 421.749084,125.846741 
	C420.632751,125.799332 419.767365,124.967865 418.596710,123.950958 
	C412.851624,114.675423 407.665283,105.419075 401.860291,96.568504 
	C399.137817,92.417686 395.455872,88.785568 391.715454,85.475883 
	C390.485931,84.387985 387.132172,84.171158 385.736877,85.076797 
	C380.852905,88.246849 376.358612,92.029343 371.799866,95.683449 
	C369.449402,97.567474 369.326111,99.671211 371.390930,102.065353 
	C376.442352,107.922462 381.560608,113.741043 386.259003,119.876053 
	C388.847870,123.256577 390.643127,127.244827 393.028076,131.342957 
	C402.839935,131.817886 412.419983,131.908951 422.000000,132.000000 
	C422.000000,232.575424 422.000000,333.150848 422.000000,434.000000 
	C361.979370,434.000000 301.958344,434.000000 241.412933,433.693787 
	C249.176300,431.491943 257.563019,429.945068 265.730743,427.626678 
	C281.795959,423.066559 297.175903,416.565430 311.409271,407.914825 
	C321.611450,401.714294 331.339600,394.537323 340.483429,386.849457 
	C348.870392,379.797943 356.446686,371.713501 363.884766,363.628448 
	C368.205994,358.931366 371.863312,353.532043 375.266235,348.102051 
	C381.013702,338.930908 387.526245,329.970032 391.529663,320.038971 
	C397.365723,305.561707 401.734650,290.430267 405.808044,275.329315 
	C408.160309,266.609009 409.684967,257.415955 409.827301,248.407944 
	C410.036224,235.185013 409.729187,221.772720 407.696869,208.744537 
	C405.494812,194.628403 402.049957,180.511124 397.295746,167.048141 
	C393.297668,155.726456 387.332306,144.915878 380.979095,134.658691 
	C373.969879,123.342438 366.173279,112.356781 357.491638,102.285751 
	C351.114471,94.887985 343.084381,88.762123 335.205322,82.849838 
	C324.753784,75.007256 314.279938,66.888283 302.796234,60.816090 
	C291.963531,55.088131 279.864868,51.703529 268.224060,47.566906 
	C252.101990,41.837856 235.245209,39.631603 218.304474,39.183533 
	C206.269501,38.865215 194.054657,39.509438 182.160645,41.311687 
	C169.819366,43.181709 157.635239,46.517029 145.639175,50.076862 
	C138.429230,52.216415 131.657547,55.897259 124.789940,59.101936 
	C120.662857,61.027782 116.675560,63.275177 112.722916,65.547607 
	C106.946297,68.868675 101.178574,72.218445 95.559052,75.794785 
	C91.933479,78.102165 88.345345,80.577454 85.167564,83.450005 
	C81.687317,86.595993 78.779289,90.365097 75.478462,93.721596 
	C68.989059,100.320450 61.606785,106.217331 56.050404,113.513779 
	C48.840519,122.981537 42.479374,133.221146 36.800404,143.696381 
	C30.196564,155.877594 25.048222,168.790497 21.690744,182.335480 
	C21.024321,185.024017 19.427780,187.505707 18.924959,190.206573 
	C17.494844,197.888321 16.219095,205.609818 15.228643,213.359909 
	C13.549149,226.501663 12.481917,239.687210 14.571921,252.899628 
	C15.980332,261.803162 17.677298,270.665771 18.882252,279.595673 
	C20.850807,294.184631 26.571491,307.574310 32.601662,320.690948 
	C37.314510,330.942139 43.150906,340.864258 49.773651,350.000732 
	C57.425713,360.557190 66.207085,370.349731 75.052231,379.964172 
	C79.643387,384.954620 85.118904,389.301270 90.742279,393.136108 
	C101.700562,400.609161 112.767258,408.012451 124.330193,414.476654 
	C131.424881,418.442902 139.385117,421.062561 147.207230,423.474335 
	C156.789062,426.428680 166.643738,428.491669 176.357147,431.029236 
	C179.608246,431.878571 182.787766,433.001923 186.000000,434.000000 
	C124.388756,434.000000 62.777515,434.000000 1.000000,434.000000 
	C1.000000,333.645844 1.000000,233.291580 1.468658,132.468689 
	C9.912814,131.997223 17.889063,132.050156 25.863157,131.942932 
	C27.394999,131.922333 28.918381,131.272644 30.715872,130.760651 
	C31.295015,130.229279 31.653465,129.880630 31.905630,129.467148 
	C37.657505,120.035904 42.197311,109.798332 50.973450,102.433418 
	C54.302345,99.639816 53.688541,98.141167 49.057381,95.723289 
	C48.634575,95.267059 48.320057,95.073769 47.886810,94.585373 
	C46.230675,92.855881 44.693268,91.421486 43.063675,89.714890 
	C42.647877,89.267296 42.324268,89.091904 42.041817,88.952164 
	C42.082977,88.987823 42.154064,88.905312 42.026615,88.590057 
	C40.278915,87.142044 38.658665,86.009270 37.037224,84.913651 
	C37.036030,84.950806 37.110367,84.950371 36.956112,84.612579 
	C33.121136,81.607185 31.031410,83.087601 29.900192,86.967407 
	C29.948692,86.994255 30.001558,86.896805 29.714230,86.961777 
	C29.220392,87.349846 29.013884,87.672951 28.557224,88.085175 
	C27.872524,88.715645 27.437973,89.256981 26.681126,89.947151 
	C25.240124,92.050125 24.121416,94.004272 22.676704,96.080963 
	C14.946568,104.516800 8.682667,113.591248 3.654607,123.926193 
	C2.548179,124.426567 1.774090,124.713287 1.000000,125.000000 
z"/>
<path fill="#1D4C58" opacity="1.000000" stroke="none" 
	d="
M186.468658,434.000000 
	C182.787766,433.001923 179.608246,431.878571 176.357147,431.029236 
	C166.643738,428.491669 156.789062,426.428680 147.207230,423.474335 
	C139.385117,421.062561 131.424881,418.442902 124.330193,414.476654 
	C112.767258,408.012451 101.700562,400.609161 90.742279,393.136108 
	C85.118904,389.301270 79.643387,384.954620 75.052231,379.964172 
	C66.207085,370.349731 57.425713,360.557190 49.773651,350.000732 
	C43.150906,340.864258 37.314510,330.942139 32.601662,320.690948 
	C26.571491,307.574310 20.850807,294.184631 18.882252,279.595673 
	C17.677298,270.665771 15.980332,261.803162 14.571921,252.899628 
	C12.481917,239.687210 13.549149,226.501663 15.228643,213.359909 
	C16.219095,205.609818 17.494844,197.888321 18.924959,190.206573 
	C19.427780,187.505707 21.024321,185.024017 21.690744,182.335480 
	C25.048222,168.790497 30.196564,155.877594 36.800404,143.696381 
	C42.479374,133.221146 48.840519,122.981537 56.050404,113.513779 
	C61.606785,106.217331 68.989059,100.320450 75.478462,93.721596 
	C78.779289,90.365097 81.687317,86.595993 85.167564,83.450005 
	C88.345345,80.577454 91.933479,78.102165 95.559052,75.794785 
	C101.178574,72.218445 106.946297,68.868675 112.722916,65.547607 
	C116.675560,63.275177 120.662857,61.027782 124.789940,59.101936 
	C131.657547,55.897259 138.429230,52.216415 145.639175,50.076862 
	C157.635239,46.517029 169.819366,43.181709 182.160645,41.311687 
	C194.054657,39.509438 206.269501,38.865215 218.304474,39.183533 
	C235.245209,39.631603 252.101990,41.837856 268.224060,47.566906 
	C279.864868,51.703529 291.963531,55.088131 302.796234,60.816090 
	C314.279938,66.888283 324.753784,75.007256 335.205322,82.849838 
	C343.084381,88.762123 351.114471,94.887985 357.491638,102.285751 
	C366.173279,112.356781 373.969879,123.342438 380.979095,134.658691 
	C387.332306,144.915878 393.297668,155.726456 397.295746,167.048141 
	C402.049957,180.511124 405.494812,194.628403 407.696869,208.744537 
	C409.729187,221.772720 410.036224,235.185013 409.827301,248.407944 
	C409.684967,257.415955 408.160309,266.609009 405.808044,275.329315 
	C401.734650,290.430267 397.365723,305.561707 391.529663,320.038971 
	C387.526245,329.970032 381.013702,338.930908 375.266235,348.102051 
	C371.863312,353.532043 368.205994,358.931366 363.884766,363.628448 
	C356.446686,371.713501 348.870392,379.797943 340.483429,386.849457 
	C331.339600,394.537323 321.611450,401.714294 311.409271,407.914825 
	C297.175903,416.565430 281.795959,423.066559 265.730743,427.626678 
	C257.563019,429.945068 249.176300,431.491943 240.944275,433.693787 
	C222.979111,434.000000 204.958206,434.000000 186.468658,434.000000 
M134.028687,390.910400 
	C134.639542,391.267334 135.250397,391.624268 136.329773,392.568726 
	C143.134415,394.965546 150.161392,396.878540 156.688919,399.878326 
	C165.374298,403.869843 174.408890,405.479004 184.163742,406.658447 
	C185.067703,407.022614 185.943832,407.594757 186.879761,407.719971 
	C203.010147,409.878021 219.159714,409.997467 235.298538,407.867065 
	C236.649078,407.688812 237.885712,406.647766 239.821793,406.169708 
	C244.465378,405.447937 249.292465,405.302032 253.716843,403.892303 
	C265.253326,400.216400 276.613342,395.986694 288.680817,391.715820 
	C293.745117,388.836517 299.046051,386.298218 303.812927,382.990295 
	C309.582764,378.986389 314.900848,374.331421 321.079742,369.841125 
	C326.364502,364.880188 331.649231,359.919281 337.601807,354.830994 
	C339.233276,353.179688 340.975616,351.623169 342.479797,349.863068 
	C369.887299,317.792297 384.379364,280.641846 384.539185,238.472946 
	C384.590210,225.013809 381.677765,211.543457 379.963013,197.308487 
	C377.977325,190.929169 375.991669,184.549850 374.057953,177.381287 
	C368.299652,165.686249 363.117310,153.655930 356.574829,142.417389 
	C352.411926,135.266434 346.230499,129.290543 340.599426,122.254486 
	C336.047699,117.477783 331.496002,112.701080 326.653076,107.336723 
	C265.867798,51.969574 169.118408,48.931652 105.141212,100.435974 
	C102.239639,102.771858 99.724846,105.588188 96.767212,108.792328 
	C92.221291,113.195877 87.675362,117.599419 82.455994,122.154884 
	C71.309082,134.025726 62.509640,147.492706 55.736473,162.247391 
	C53.409977,167.315414 51.885498,172.751617 49.752022,178.714645 
	C49.178165,181.151077 48.604305,183.587509 48.005417,185.998047 
	C48.005417,185.998047 48.035305,186.025772 47.455929,186.477936 
	C46.321335,190.602951 45.186741,194.727982 43.405361,199.265808 
	C42.120136,206.601227 40.251202,213.888733 39.644329,221.279846 
	C35.676411,269.604980 49.506126,312.326813 80.778313,349.369476 
	C81.848831,350.637512 83.644150,351.293701 85.488121,352.764069 
	C91.053596,358.578156 96.619064,364.392242 102.601089,370.679321 
	C112.959061,377.285278 123.317032,383.891266 134.028687,390.910400 
z"/>
<path fill="#5BB2CC" opacity="1.000000" stroke="none" 
	d="
M247.147095,4.003301 
	C247.147095,4.003300 247.596954,4.036247 248.086182,4.282758 
	C249.416489,4.683733 250.257553,4.838197 251.098618,4.992658 
	C259.165833,6.883279 267.295868,8.545135 275.280243,10.737586 
	C281.561493,12.462372 287.702118,14.734336 293.830048,16.969400 
	C297.714142,18.386055 301.460327,20.180771 305.756073,22.297993 
	C307.543610,23.164459 308.843384,23.538864 310.143188,23.913267 
	C310.143188,23.913265 310.061371,23.913574 310.147949,24.222086 
	C312.213470,25.355707 314.192444,26.180815 316.171387,27.005922 
	C316.171387,27.005922 316.532257,27.027674 316.885315,27.264668 
	C317.534729,27.660931 317.831024,27.820198 318.127350,27.979465 
	C318.127350,27.979464 318.030975,27.962654 318.101593,28.266800 
	C321.483704,30.370920 324.795197,32.170895 328.106689,33.970871 
	C330.837128,35.222729 333.707733,36.241604 336.265656,37.780296 
	C340.237488,40.169571 343.996399,42.912777 348.209900,45.751366 
	C344.708008,51.426418 341.257843,57.292152 337.517487,62.966621 
	C335.562225,65.932938 333.071472,66.680695 329.679718,64.322853 
	C311.993439,52.027889 292.824951,42.593266 272.005096,37.116955 
	C259.469574,33.819698 247.032867,29.677994 233.689011,29.933588 
	C222.288910,30.151951 210.868301,29.094633 199.459641,29.153940 
	C192.932571,29.187872 186.411224,30.324810 179.133514,30.702036 
	C171.775894,31.624563 165.143997,32.677837 158.583511,34.068058 
	C156.306900,34.550491 154.207245,35.867966 152.026779,36.804039 
	C144.934052,39.523605 137.841309,42.243168 130.092560,44.717598 
	C125.973763,46.030659 122.510994,47.588852 119.048233,49.147041 
	C119.048233,49.147041 119.040779,49.066532 118.684624,49.046124 
	C113.793228,50.971954 109.142563,52.694481 104.767715,54.951599 
	C102.296989,56.226330 100.279976,58.380455 98.058594,60.138458 
	C98.058586,60.138458 98.049919,60.067432 97.697861,60.048744 
	C96.374611,60.200996 95.090218,60.034546 94.483322,60.597935 
	C90.691200,64.118111 87.413155,64.431145 84.552116,59.548000 
	C84.359535,59.219311 83.657158,59.189312 83.191887,59.020393 
	C80.503342,55.565964 77.839058,52.092274 75.117477,48.664062 
	C73.381233,46.477016 73.179779,44.583977 75.865845,43.003510 
	C83.260536,38.652504 90.595078,34.195950 98.057892,29.965450 
	C101.937119,27.766409 106.037094,25.956785 110.815063,23.965294 
	C115.388336,22.282379 119.183891,20.605419 122.979446,18.928459 
	C122.979446,18.928457 122.996742,18.988491 123.363281,18.973621 
	C130.108505,16.872568 136.495178,14.809873 142.850891,12.655915 
	C143.363068,12.482344 143.662659,11.681542 144.061035,11.172211 
	C144.061035,11.172210 144.475769,11.034701 145.114059,11.010477 
	C150.506561,9.713701 155.260773,8.441150 160.014984,7.168599 
	C163.910950,6.358941 167.806900,5.549282 172.376373,4.403645 
	C175.369568,4.017027 177.739014,4.250543 179.998367,3.855112 
	C184.365051,3.090858 188.669662,1.971917 193.000000,1.000000 
	C204.354233,1.000000 215.708450,1.000000 227.698441,1.346204 
	C234.605164,2.462706 240.876129,3.233004 247.147095,4.003301 
z"/>
<path fill="#8CC0CD" opacity="1.000000" stroke="none" 
	d="
M1.000000,125.437500 
	C1.774090,124.713287 2.548179,124.426567 3.647314,124.323555 
	C3.603343,126.431778 3.234326,128.356293 2.744056,130.913177 
	C12.230475,130.913177 21.338072,130.913177 30.445667,130.913177 
	C28.918381,131.272644 27.394999,131.922333 25.863157,131.942932 
	C17.889063,132.050156 9.912814,131.997223 1.468658,132.000031 
	C1.000000,129.958328 1.000000,127.916664 1.000000,125.437500 
z"/>
<path fill="#8CBFCF" opacity="1.000000" stroke="none" 
	d="
M422.000000,131.571533 
	C412.419983,131.908951 402.839935,131.817886 393.514465,131.349854 
	C402.311066,130.972855 410.853180,130.972855 419.764801,130.972855 
	C419.391266,128.013184 419.146606,126.074791 418.901978,124.136398 
	C419.767365,124.967865 420.632751,125.799332 421.749084,126.315399 
	C422.000000,127.714355 422.000000,129.428711 422.000000,131.571533 
z"/>
<path fill="#88C1D3" opacity="1.000000" stroke="none" 
	d="
M192.533142,1.000000 
	C188.669662,1.971917 184.365051,3.090858 179.998367,3.855112 
	C177.739014,4.250543 175.369568,4.017027 172.600067,4.062214 
	C173.995697,3.228388 175.841141,2.400013 177.343292,1.285820 
	C182.022095,1.000000 187.044189,1.000000 192.533142,1.000000 
z"/>
<path fill="#85BFD2" opacity="1.000000" stroke="none" 
	d="
M246.947540,3.635685 
	C240.876129,3.233004 234.605164,2.462706 228.167099,1.346204 
	C232.356903,1.000000 236.713806,1.000000 241.535355,1.000002 
	C243.582657,1.756026 245.165314,2.512047 246.947540,3.635685 
z"/>
<path fill="#5CB3CB" opacity="1.000000" stroke="none" 
	d="
M418.596710,123.950958 
	C419.146606,126.074791 419.391266,128.013184 419.764801,130.972855 
	C410.853180,130.972855 402.311066,130.972855 393.282593,130.965973 
	C390.643127,127.244827 388.847870,123.256577 386.259003,119.876053 
	C381.560608,113.741043 376.442352,107.922462 371.390930,102.065353 
	C369.326111,99.671211 369.449402,97.567474 371.799866,95.683449 
	C376.358612,92.029343 380.852905,88.246849 385.736877,85.076797 
	C387.132172,84.171158 390.485931,84.387985 391.715454,85.475883 
	C395.455872,88.785568 399.137817,92.417686 401.860291,96.568504 
	C407.665283,105.419075 412.851624,114.675423 418.596710,123.950958 
z"/>
<path fill="#5BB2CB" opacity="1.000000" stroke="none" 
	d="
M30.715872,130.760651 
	C21.338072,130.913177 12.230475,130.913177 2.744056,130.913177 
	C3.234326,128.356293 3.603343,126.431778 3.979653,124.109901 
	C8.682667,113.591248 14.946568,104.516800 22.995838,95.968369 
	C24.761789,93.754921 25.882603,91.776619 27.003422,89.798317 
	C27.437973,89.256981 27.872524,88.715645 28.794933,87.945404 
	C29.522379,87.443275 29.761967,87.170036 30.001556,86.896805 
	C30.001558,86.896805 29.948692,86.994255 30.273680,86.917618 
	C32.769234,86.210770 34.939800,85.580574 37.110367,84.950378 
	C37.110367,84.950371 37.036030,84.950806 37.097572,85.269394 
	C38.824100,86.693764 40.489082,87.799538 42.154064,88.905312 
	C42.154064,88.905312 42.082977,88.987823 42.202442,89.162537 
	C42.599892,89.553871 42.877876,89.770485 43.155861,89.987099 
	C44.693268,91.421486 46.230675,92.855881 48.047947,94.801659 
	C48.607101,95.537437 48.886387,95.761833 49.165672,95.986221 
	C53.688541,98.141167 54.302345,99.639816 50.973450,102.433418 
	C42.197311,109.798332 37.657505,120.035904 31.905630,129.467148 
	C31.653465,129.880630 31.295015,130.229279 30.715872,130.760651 
z"/>
<path fill="#7BB8C6" opacity="1.000000" stroke="none" 
	d="
M98.434128,60.092583 
	C100.279976,58.380455 102.296989,56.226330 104.767715,54.951599 
	C109.142563,52.694481 113.793228,50.971954 118.724998,49.044136 
	C118.736610,49.575218 118.462875,50.308842 117.949875,50.566971 
	C111.590034,53.767086 105.195358,56.897984 98.434128,60.092583 
z"/>
<path fill="#78B7C5" opacity="1.000000" stroke="none" 
	d="
M152.429749,36.861904 
	C154.207245,35.867966 156.306900,34.550491 158.583511,34.068058 
	C165.143997,32.677837 171.775894,31.624563 178.709839,30.647997 
	C170.304214,32.877964 161.568466,34.898869 152.429749,36.861904 
z"/>
<path fill="#78B4C2" opacity="1.000000" stroke="none" 
	d="
M143.661102,11.107758 
	C143.662659,11.681542 143.363068,12.482344 142.850891,12.655915 
	C136.495178,14.809873 130.108505,16.872568 123.334183,18.962238 
	C128.635544,16.625751 134.325333,14.267933 140.036148,11.962215 
	C141.066833,11.546086 142.183960,11.344134 143.661102,11.107758 
z"/>
<path fill="#7BB8C6" opacity="1.000000" stroke="none" 
	d="
M83.118683,59.390984 
	C83.657158,59.189312 84.359535,59.219311 84.552116,59.548000 
	C87.413155,64.431145 90.691200,64.118111 94.483322,60.597935 
	C95.090218,60.034546 96.374611,60.200996 97.733551,60.051296 
	C96.917015,61.056316 95.775154,62.131012 94.497665,63.008190 
	C88.883324,66.863251 85.794304,65.967484 83.118683,59.390984 
z"/>
<path fill="#78B4C2" opacity="1.000000" stroke="none" 
	d="
M159.587891,7.089140 
	C155.260773,8.441150 150.506561,9.713701 145.330872,10.983515 
	C149.659851,9.657080 154.410324,8.333381 159.587891,7.089140 
z"/>
<path fill="#78B4C2" opacity="1.000000" stroke="none" 
	d="
M122.572495,18.959469 
	C119.183891,20.605419 115.388336,22.282379 111.197067,23.969265 
	C114.589417,22.316288 118.377480,20.653383 122.572495,18.959469 
z"/>
<path fill="#7BB8C6" opacity="1.000000" stroke="none" 
	d="
M119.434334,49.085602 
	C122.510994,47.588852 125.973763,46.030659 129.725555,44.651413 
	C126.616531,46.228294 123.218483,47.626228 119.434334,49.085602 
z"/>
<path fill="#7CB5C3" opacity="1.000000" stroke="none" 
	d="
M327.966187,33.644524 
	C324.795197,32.170895 321.483704,30.370920 318.111084,28.218811 
	C321.308533,29.683840 324.567108,31.501005 327.966187,33.644524 
z"/>
<path fill="#81BCC8" opacity="1.000000" stroke="none" 
	d="
M36.956112,84.612579 
	C34.939800,85.580574 32.769234,86.210770 30.225182,86.890770 
	C31.031410,83.087601 33.121136,81.607185 36.956112,84.612579 
z"/>
<path fill="#81BCC8" opacity="1.000000" stroke="none" 
	d="
M26.681124,89.947151 
	C25.882603,91.776619 24.761789,93.754921 23.321842,95.845818 
	C24.121416,94.004272 25.240124,92.050125 26.681124,89.947151 
z"/>
<path fill="#81BCC8" opacity="1.000000" stroke="none" 
	d="
M42.026615,88.590057 
	C40.489082,87.799538 38.824100,86.693764 37.098766,85.232246 
	C38.658665,86.009270 40.278915,87.142044 42.026615,88.590057 
z"/>
<path fill="#7CB5C3" opacity="1.000000" stroke="none" 
	d="
M316.018494,26.675453 
	C314.192444,26.180815 312.213470,25.355707 310.150208,24.181244 
	C311.999146,24.669588 313.932404,25.507284 316.018494,26.675453 
z"/>
<path fill="#7CB5C3" opacity="1.000000" stroke="none" 
	d="
M309.989319,23.590090 
	C308.843384,23.538864 307.543610,23.164459 306.085175,22.477009 
	C307.229492,22.531612 308.532471,22.899261 309.989319,23.590090 
z"/>
<path fill="#85BFD2" opacity="1.000000" stroke="none" 
	d="
M250.944427,4.672808 
	C250.257553,4.838197 249.416489,4.683733 248.295227,4.367440 
	C248.940094,4.254726 249.865158,4.303841 250.944427,4.672808 
z"/>
<path fill="#81BCC8" opacity="1.000000" stroke="none" 
	d="
M49.057381,95.723297 
	C48.886387,95.761833 48.607101,95.537437 48.166679,95.096756 
	C48.320057,95.073769 48.634575,95.267059 49.057381,95.723297 
z"/>
<path fill="#81BCC8" opacity="1.000000" stroke="none" 
	d="
M43.063675,89.714890 
	C42.877876,89.770485 42.599892,89.553871 42.161282,89.126884 
	C42.324268,89.091904 42.647877,89.267296 43.063675,89.714890 
z"/>
<path fill="#81BCC8" opacity="1.000000" stroke="none" 
	d="
M29.714230,86.961777 
	C29.761967,87.170036 29.522379,87.443275 29.045082,87.856285 
	C29.013884,87.672951 29.220392,87.349846 29.714230,86.961777 
z"/>
<path fill="#7CB5C3" opacity="1.000000" stroke="none" 
	d="
M318.033600,27.693790 
	C317.831024,27.820198 317.534729,27.660931 317.056061,27.324076 
	C317.229095,27.233698 317.584473,27.320908 318.033600,27.693790 
z"/>
<path fill="#000000" opacity="1.000000" stroke="none" 
	d="
M183.789337,405.942749 
	C174.408890,405.479004 165.374298,403.869843 156.688919,399.878326 
	C150.161392,396.878540 143.134415,394.965546 136.173447,391.947052 
	C136.718521,390.248749 137.419922,389.172150 138.070984,388.062317 
	C138.020660,388.029114 138.097961,388.121704 138.409607,387.998383 
	C139.515106,386.595245 140.308960,385.315430 141.059418,384.026306 
	C141.015991,384.017029 140.998489,384.104095 141.269180,384.019165 
	C141.732452,383.620605 141.925034,383.306946 142.055420,382.997131 
	C141.993225,383.000977 142.000687,383.125366 142.275818,383.041016 
	C142.741348,382.636993 142.931747,382.317383 143.060211,381.999023 
	C142.998276,382.000305 143.000580,382.124176 143.275421,382.040588 
	C143.737061,381.636810 143.923859,381.316620 144.054291,380.995880 
	C143.997910,380.995331 143.996597,381.108063 144.265106,381.023346 
	C144.719803,380.625854 144.905991,380.313110 145.045319,379.999390 
	C144.998474,379.998444 144.996353,380.092133 145.257263,380.002563 
	C145.710037,379.609894 145.901886,379.306854 146.058762,379.006927 
	C146.023788,379.010071 146.034134,379.079529 146.327026,378.949463 
	C146.775131,378.208130 146.930328,377.596802 147.035614,376.993744 
	C146.985703,377.001984 147.001709,377.101868 147.286087,377.038086 
	C147.769547,376.653503 147.968643,376.332703 148.375793,375.950256 
	C148.850983,375.720123 148.991699,375.478119 149.323730,375.036682 
	C150.455978,373.617767 151.270508,372.324829 152.051025,371.025665 
	C152.016983,371.019470 152.012039,371.088470 152.281418,370.999817 
	C152.643570,370.577850 152.736343,370.244568 152.902115,369.723206 
	C152.975128,369.535126 153.016205,369.133698 153.365234,369.069885 
	C154.519470,368.023407 155.324661,367.040741 156.094635,366.053040 
	C156.059433,366.048004 156.066833,366.118744 156.384125,365.982117 
	C158.179871,363.583862 159.658310,361.322266 161.101227,359.055969 
	C161.065689,359.051300 161.067322,359.122986 161.387527,358.993561 
	C162.851135,356.929291 163.994553,354.994446 165.085556,353.046906 
	C165.033157,353.034241 165.009949,353.139496 165.285034,353.057587 
	C165.754868,352.659973 165.949631,352.344269 166.443176,351.858887 
	C169.553055,347.897949 172.553207,344.229706 175.121567,340.280670 
	C177.646393,336.398560 181.614243,332.257690 181.671204,328.184540 
	C181.869415,314.009033 180.703918,299.810242 179.870743,285.631256 
	C179.789825,284.254272 178.421387,282.952972 177.350372,281.096008 
	C171.414505,293.355957 165.887711,304.608063 160.515335,315.933350 
	C157.677536,321.915619 155.564713,328.286682 152.289719,334.003998 
	C149.040573,339.676147 143.966415,344.360474 141.071121,350.165558 
	C135.404922,361.526489 125.750946,365.265381 114.244270,365.843567 
	C109.601524,366.076874 105.470055,366.699799 102.184540,370.206360 
	C96.619064,364.392242 91.053596,358.578156 85.637619,352.391296 
	C88.936211,349.429138 92.076332,346.828796 95.237015,344.253662 
	C98.165558,341.867645 97.005249,340.281311 94.141403,338.663696 
	C93.695030,337.833893 93.351418,337.322479 92.959061,336.603546 
	C92.748032,336.128479 92.510452,335.991943 92.087677,335.714874 
	C91.655037,335.241302 91.332298,335.039215 90.948341,334.622009 
	C90.710686,334.130615 90.458588,333.991821 90.038620,333.720581 
	C89.627129,333.266144 89.307846,333.081604 89.003441,332.947083 
	C89.018318,332.997101 89.118179,332.966797 89.070282,332.610718 
	C87.706268,330.458588 86.390160,328.662567 85.044579,326.905701 
	C85.015099,326.944916 85.094162,327.003021 85.021202,326.726349 
	C84.628792,326.263580 84.309334,326.077454 84.006660,325.944336 
	C84.023445,325.997314 84.129219,325.963135 84.081528,325.629456 
	C83.374039,324.495392 82.714226,323.695038 82.053314,322.930359 
	C82.052208,322.966034 82.123512,322.962158 82.069672,322.632721 
	C81.356049,321.503784 80.696259,320.704285 80.034882,319.939819 
	C80.033302,319.974823 80.103279,319.970520 80.053177,319.620514 
	C79.025597,317.806732 78.048111,316.342987 77.071503,314.918579 
	C77.072388,314.957947 77.150970,314.952484 77.089233,314.597504 
	C76.355293,313.099487 75.683083,311.956482 74.996475,310.609253 
	C74.982079,310.405060 74.828880,310.025452 74.860840,309.758606 
	C74.603851,309.302734 74.314919,309.113708 73.880829,308.594360 
	C70.127769,298.678070 66.059601,289.233368 63.058929,279.460907 
	C60.697021,271.768768 59.105682,263.736450 58.167637,255.738480 
	C57.131496,246.904144 57.230045,237.936722 56.908829,228.597641 
	C57.329891,225.277405 57.657177,222.384293 58.027607,219.496750 
	C58.604637,214.998688 59.210957,210.504364 59.883900,205.602234 
	C60.308819,203.261032 60.654701,201.326080 61.096771,198.852997 
	C54.907333,198.852997 49.479740,198.852997 44.052147,198.852997 
	C45.186741,194.727982 46.321335,190.602951 47.709148,186.695297 
	C48.943558,189.927643 45.427559,194.579285 51.660294,195.898041 
	C89.812050,195.972656 127.516891,196.005951 165.221680,195.971924 
	C166.551544,195.970734 167.880798,195.301407 169.537338,194.768036 
	C169.830658,186.878357 164.189102,180.984833 156.836502,180.982742 
	C154.674835,180.982132 152.510635,181.048859 150.351990,180.967728 
	C143.905807,180.725388 137.461807,180.425034 130.548981,180.076416 
	C105.815613,180.004623 81.550156,179.985504 57.284901,180.047897 
	C55.812153,180.051682 54.341064,180.702988 52.516800,181.032959 
	C50.786415,182.683243 49.408432,184.353592 48.030449,186.023941 
	C48.604305,183.587509 49.178165,181.151077 50.341637,178.351349 
	C55.091778,177.988434 59.297070,177.609863 63.400375,178.094620 
	C67.591576,178.589752 69.767372,176.252594 70.866798,173.185623 
	C75.854561,159.271835 85.248909,148.208389 93.933029,136.678329 
	C96.020302,133.907028 95.880432,132.195282 92.733208,130.141678 
	C89.246353,127.866463 86.307129,124.751968 83.129440,122.002960 
	C87.675362,117.599419 92.221291,113.195877 97.255249,108.431519 
	C100.789978,110.195282 103.670982,112.638283 106.938461,114.338600 
	C109.334732,115.585556 112.623436,117.019768 114.823776,116.289536 
	C118.022591,115.227936 120.531898,112.194496 123.457130,110.178810 
	C128.260223,106.869125 132.825058,102.931618 138.090271,100.632988 
	C149.293808,95.741867 160.794449,91.478485 172.352951,87.476669 
	C177.695435,85.626976 183.459167,84.993912 189.293015,83.829880 
	C189.741455,83.564262 189.928787,83.278015 190.047256,82.982086 
	C189.978409,82.972397 189.957397,83.109848 190.430557,83.062302 
	C202.937683,82.944107 214.971634,82.873459 227.440109,82.885559 
	C229.987579,83.185341 232.132446,83.239220 234.208466,83.645187 
	C250.905136,86.910210 267.318176,91.119926 282.199188,99.730064 
	C290.850098,104.735443 299.222260,110.223267 307.883728,115.209251 
	C309.430267,116.099541 312.139282,116.343353 313.689636,115.595848 
	C318.274841,113.385025 322.548645,110.528397 326.944275,107.924385 
	C331.496002,112.701080 336.047699,117.477783 340.461029,122.693184 
	C337.327881,125.355934 334.590576,128.137711 331.275513,129.667847 
	C326.772858,131.746140 327.490173,134.391724 329.727234,137.179611 
	C338.952118,148.675858 347.858765,160.333481 352.784363,174.482407 
	C353.925201,177.759491 356.056091,179.466980 359.826355,179.066650 
	C364.531586,178.567047 369.277618,178.451767 374.006012,178.170532 
	C375.991669,184.549850 377.977325,190.929169 379.792053,198.055328 
	C373.839478,198.802170 368.057892,198.802170 362.951904,198.802170 
	C364.000671,210.412949 365.376801,221.429871 365.864136,232.485977 
	C366.204437,240.205719 364.768524,248.004776 365.122681,255.722656 
	C365.687531,268.031799 360.766785,279.055389 357.039246,290.093567 
	C350.899780,308.274048 340.428650,324.384521 328.210724,339.229645 
	C326.487701,341.323181 326.130493,342.725067 328.277588,344.875702 
	C331.398376,348.001617 334.070526,351.575500 336.933990,354.958344 
	C331.649231,359.919281 326.364502,364.880188 320.554901,369.640808 
	C319.090637,368.629120 318.151215,367.817749 316.991821,366.644501 
	C309.851715,365.573547 302.931549,364.864502 295.635345,364.083618 
	C294.495819,364.060883 293.732391,364.109955 292.774414,364.086884 
	C292.579926,364.014740 292.166504,363.979767 292.064575,363.709595 
	C291.640137,363.248657 291.317688,363.057861 291.009888,362.922485 
	C291.024567,362.977875 291.135010,362.947174 291.081573,362.605957 
	C289.706085,360.805939 288.384033,359.347198 287.058594,357.923584 
	C287.055206,357.958710 287.125061,357.948334 287.072662,357.598633 
	C285.708588,355.454803 284.396912,353.660645 283.061951,351.907166 
	C283.038696,351.947815 283.121155,351.992279 283.048126,351.711548 
	C282.650482,351.246185 282.325867,351.061554 281.994629,350.939148 
	C281.987976,351.001343 282.112305,351.015137 282.069824,350.692200 
	C281.701080,349.875397 281.374817,349.381500 281.035278,348.938538 
	C281.021942,348.989502 281.124115,349.015045 281.075012,348.693542 
	C280.704651,347.872528 280.383392,347.373016 280.047455,346.920410 
	C280.032776,346.967255 280.127106,346.994598 280.054962,346.711945 
	C279.656586,346.244537 279.330383,346.059784 278.997314,345.930420 
	C278.990448,345.985840 279.101318,345.999268 279.024353,345.725128 
	C278.629303,345.266571 278.311188,345.082153 278.005676,344.945404 
	C278.018250,344.993073 278.113403,344.967163 278.068726,344.632416 
	C277.367432,343.494751 276.710754,342.691833 276.055450,341.925110 
	C276.056824,341.961304 276.128998,341.955444 276.074219,341.592590 
	C274.359528,338.789154 272.699615,336.348633 271.039734,333.943176 
	C271.039734,333.978241 271.109467,333.970703 271.059418,333.603638 
	C270.013550,331.436462 269.017761,329.636414 268.001404,327.636902 
	C267.980804,327.437439 267.855896,327.056366 267.902771,326.770264 
	C267.638062,326.281067 267.326477,326.077972 267.023560,325.925507 
	C267.032288,325.976166 267.133270,325.956909 267.080994,325.619690 
	C266.356628,324.461792 265.684509,323.641113 265.007507,322.640228 
	C265.002655,322.460052 264.893097,322.116638 264.947754,321.811523 
	C264.675476,321.283142 264.348511,321.059875 263.996216,320.476166 
	C259.328766,310.126007 254.780869,300.090668 249.980240,290.177734 
	C248.738541,287.613708 245.800537,283.191345 245.181015,283.441101 
	C241.177643,285.054901 243.525665,288.963013 243.088684,292.410278 
	C242.690964,293.576324 242.131927,294.313110 242.104065,295.069458 
	C241.689880,306.309387 241.166397,317.551941 241.170380,328.793732 
	C241.171005,330.573395 243.625824,332.352234 244.967957,334.078217 
	C244.989960,334.024994 244.883163,333.981842 244.928467,334.305420 
	C245.294449,335.129547 245.615143,335.630096 245.950378,336.082031 
	C245.964905,336.033386 245.867035,336.006470 245.941818,336.289246 
	C246.342957,336.760895 246.669327,336.949829 246.980576,337.082550 
	C246.965469,337.026367 246.853607,337.058411 246.909149,337.406982 
	C247.957779,339.207367 248.950851,340.659210 249.959900,342.061310 
	C249.975861,342.011597 249.876007,341.980865 249.920532,342.315796 
	C250.305099,343.166748 250.645157,343.682709 251.039948,344.408020 
	C251.263947,344.886353 251.507492,345.020355 251.940170,345.279846 
	C252.374161,345.724487 252.693344,345.908569 252.994781,346.047546 
	C252.977051,346.002472 252.887085,346.038452 252.930832,346.392426 
	C254.286499,348.540497 255.598404,350.334595 256.937897,352.095764 
	C256.965485,352.062836 256.898407,352.009125 256.957245,352.293396 
	C257.341278,352.759796 257.666473,352.941895 257.967102,353.074707 
	C257.942566,353.025360 257.844818,353.076233 257.893555,353.431946 
	C259.608002,355.894043 261.273712,358.000427 262.960938,360.072510 
	C262.982422,360.038239 262.913239,359.996307 262.991730,360.266479 
	C263.383179,360.722534 263.696136,360.908386 263.998230,361.049622 
	C263.987366,361.005005 263.898285,361.027252 263.939331,361.365967 
	C264.649292,362.532837 265.318237,363.360962 265.999512,364.382324 
	C266.011841,364.575592 266.158112,364.934174 266.122925,365.213562 
	C266.388763,365.693390 266.689789,365.893829 266.986816,366.045715 
	C266.982849,365.997192 266.885834,366.005493 266.955475,366.285370 
	C267.349243,366.741455 267.673401,366.917694 268.000793,367.049622 
	C268.004059,367.005310 267.915436,366.998962 267.992767,367.268036 
	C268.381714,367.720673 268.693359,367.904236 269.003113,368.041260 
	C269.001221,367.994690 268.908112,367.998138 268.977783,368.273926 
	C269.364960,368.731262 269.682495,368.912750 269.978912,369.052612 
	C269.957794,369.010956 269.874969,369.054169 269.920197,369.415466 
	C271.636841,371.582916 273.308289,373.389069 274.976715,375.548828 
	C279.330383,381.260895 283.687073,386.619385 288.043762,391.977875 
	C276.613342,395.986694 265.253326,400.216400 253.716843,403.892303 
	C249.292465,405.302032 244.465378,405.447937 239.410477,405.721252 
	C236.391937,401.410950 233.694580,397.605865 231.211380,393.665863 
	C229.727722,391.311798 227.326172,388.642700 227.520050,386.295532 
	C228.062805,379.724579 229.817108,373.260498 230.934814,366.727142 
	C231.426025,363.855835 231.532715,360.918701 231.999573,357.642395 
	C233.153397,349.168732 234.121674,341.064209 235.033142,332.969757 
	C234.976349,332.979858 234.995102,333.093658 235.237152,333.007935 
	C235.584747,332.630402 235.690292,332.338562 235.875763,331.611694 
	C236.984177,321.574921 238.078293,311.979553 239.014435,302.368835 
	C239.508026,297.301270 240.049118,292.203979 240.002914,287.125214 
	C239.897614,275.549103 239.431351,263.976471 239.135239,252.401810 
	C238.952148,245.244720 233.166428,237.874603 239.932861,230.949966 
	C240.191299,230.685501 239.975708,229.980362 240.024048,229.484756 
	C241.009247,219.382874 241.908188,209.271347 243.027359,199.184265 
	C243.649200,193.579330 243.889328,187.722061 249.292450,183.831223 
	C250.099030,183.248306 250.605789,182.644485 251.074142,182.040512 
	C251.035736,182.040359 251.037949,182.117172 251.386200,182.065857 
	C253.192383,181.028244 254.650330,180.041931 256.073822,179.047913 
	C256.039368,179.040222 256.054993,179.109085 256.377441,178.976700 
	C259.173737,176.920532 261.647552,174.996750 264.081268,173.052582 
	C264.041138,173.032166 264.002167,173.113312 264.282654,173.035690 
	C264.773895,172.641739 264.984680,172.325409 265.441589,171.927185 
	C266.083679,171.520752 266.479675,171.196243 267.172852,170.918396 
	C267.684570,170.648010 267.899048,170.330963 268.069458,170.022064 
	C268.025360,170.030228 268.043457,170.118027 268.394653,170.057281 
	C270.870453,168.352097 272.995087,166.707657 275.083649,165.061493 
	C275.047607,165.059769 275.049530,165.131897 275.396942,165.057312 
	C277.870026,163.342407 279.995667,161.702103 282.083557,160.060471 
	C282.045776,160.059158 282.046661,160.134735 282.408081,160.086197 
	C285.554688,158.049072 288.339874,156.060486 291.088104,154.045151 
	C291.051117,154.018417 290.998718,154.093109 291.268982,154.013428 
	C291.723816,153.619446 291.908386,153.305130 292.049408,153.003967 
	C292.005890,153.017120 292.032806,153.103958 292.395996,153.057602 
	C295.533569,151.071655 298.307983,149.132050 301.410736,147.115875 
	C302.866089,146.046097 303.993073,145.052902 305.083954,144.061157 
	C305.047882,144.062592 305.056274,144.134293 305.382721,144.077301 
	C306.502167,143.356171 307.295166,142.692017 308.401062,141.897125 
	C314.887909,137.660721 320.934540,133.345596 327.265350,129.498184 
	C336.920410,123.630547 337.063599,122.468224 329.347565,114.606163 
	C326.535736,111.741135 324.516602,111.814331 321.362701,113.937309 
	C314.101929,118.824730 306.661102,123.461861 299.128967,127.923058 
	C294.040039,130.937180 288.547119,133.269608 283.460815,136.287659 
	C277.874084,139.602631 272.663818,143.551910 267.077942,146.868469 
	C259.167664,151.565125 250.991913,155.813446 243.061005,160.476776 
	C233.608292,166.034927 224.387848,171.995163 214.836334,177.371796 
	C213.074127,178.363754 209.776016,178.220016 207.935181,177.221222 
	C195.893799,170.687866 184.058304,163.775040 172.057678,156.718750 
	C171.639832,156.273544 171.319855,156.095810 171.019714,155.963959 
	C171.039551,156.009857 171.131226,155.969955 171.040222,155.678223 
	C170.586777,155.297348 170.224350,155.208221 169.695297,155.061096 
	C169.528687,155.003113 169.175980,154.993332 169.007477,154.682068 
	C167.571243,153.869522 166.303528,153.368271 165.021393,152.921173 
	C165.006973,152.975342 165.115524,153.003342 165.040894,152.726776 
	C164.645645,152.272354 164.325027,152.094528 164.036423,151.947266 
	C164.068436,151.977844 164.128876,151.913177 163.999146,151.594925 
	C162.264221,150.466568 160.658997,149.656448 159.043945,148.902679 
	C159.034119,148.959045 159.147232,148.976318 159.053345,148.697693 
	C158.617050,148.323242 158.274628,148.227417 157.750000,148.072754 
	C157.567795,148.013916 157.185333,147.994354 157.074005,147.710907 
	C156.606354,147.329941 156.250031,147.232407 155.721527,147.073425 
	C155.549362,147.011978 155.184570,146.987335 155.080505,146.707520 
	C154.629425,146.329742 154.282425,146.231766 153.738953,146.077759 
	C153.542496,146.021729 153.135193,145.989212 153.039825,145.720703 
	C152.626129,145.266724 152.307800,145.081253 152.009125,144.940323 
	C152.028763,144.984863 152.117386,144.944550 151.990631,144.633148 
	C150.917480,143.845123 149.971069,143.368484 149.018616,142.937820 
	C149.012573,142.983795 149.104630,142.994980 149.013794,142.725250 
	C148.591034,142.352875 148.259109,142.250198 147.760040,142.075272 
	C147.592896,142.003021 147.228851,141.993256 147.099915,141.703003 
	C146.595154,141.312988 146.219330,141.213226 145.690948,141.053436 
	C145.538406,140.993408 145.210617,140.999359 145.064377,140.687775 
	C143.958664,139.870361 142.999191,139.364502 142.028870,138.912140 
	C142.018005,138.965637 142.125290,138.985825 142.041199,138.702271 
	C141.613083,138.326248 141.269028,138.233795 140.731049,138.083267 
	C140.537109,138.025192 140.133545,137.992233 140.036987,137.726837 
	C139.624115,137.280823 139.307800,137.100235 138.999725,136.962036 
	C139.007965,137.004440 139.092758,136.987839 139.002914,136.705719 
	C138.559998,136.328293 138.206924,136.233002 137.574615,136.070496 
	C136.912491,136.000702 136.529587,135.998123 136.052322,135.724701 
	C135.636459,135.272659 135.314957,135.091492 135.004547,134.959534 
	C135.015640,135.008743 135.114044,134.986404 135.031097,134.702286 
	C134.602905,134.326599 134.257645,134.235016 133.602386,133.975403 
	C132.695160,133.246140 132.179047,132.544998 131.488525,132.144775 
	C121.628235,126.429688 111.744377,120.755272 101.910599,114.771057 
	C101.611404,114.360199 101.267807,114.249352 100.733391,114.082199 
	C100.542572,114.025909 100.145340,114.002823 99.988174,113.685272 
	C98.263214,113.361717 95.970734,112.690331 95.256607,113.468117 
	C92.565285,116.399315 90.387505,119.802040 88.017441,123.028214 
	C89.005112,123.735077 89.992783,124.441940 90.995148,125.085350 
	C91.009842,125.021896 90.882896,124.992668 90.966629,125.266113 
	C91.369095,125.723465 91.687836,125.907372 91.981277,126.052025 
	C91.955986,126.012779 91.878036,126.064209 92.008804,126.385223 
	C94.083672,127.835876 96.027763,128.965515 97.974396,130.061249 
	C97.976921,130.027328 97.909935,130.039154 98.047272,130.338531 
	C99.109138,131.138718 100.033676,131.639557 100.956680,132.096619 
	C100.955147,132.052856 100.867775,132.059174 100.918343,132.423248 
	C103.624329,134.569901 106.279747,136.352478 108.944382,138.099579 
	C108.953590,138.064072 108.882027,138.080170 109.009697,138.401672 
	C111.088196,139.874832 113.039024,141.026505 115.156319,142.475052 
	C118.159668,144.506363 120.996544,146.240784 123.902878,148.338821 
	C127.633469,151.178680 131.294617,153.654953 134.975418,156.083405 
	C134.995071,156.035599 134.899124,155.997116 134.966660,156.275955 
	C135.355804,156.732605 135.677399,156.910416 135.975830,157.054810 
	C135.952637,157.021378 135.886581,157.068878 136.010376,157.374832 
	C137.075653,158.161835 138.017136,158.642899 139.088776,159.396118 
	C139.800644,159.787903 140.382370,159.907562 141.044983,160.299225 
	C141.696472,161.046677 142.267059,161.522141 142.978775,162.325714 
	C147.069412,165.137802 151.018921,167.621765 154.972900,170.071411 
	C154.977356,170.037094 154.908234,170.040344 155.017639,170.353088 
	C156.071365,171.155670 157.015686,171.645538 157.960205,172.096985 
	C157.960388,172.058594 157.883652,172.061523 158.008667,172.387024 
	C160.087051,173.839706 162.040421,174.966888 163.990921,176.055878 
	C163.988052,176.017685 163.911758,176.024414 164.027695,176.296661 
	C164.756210,176.983246 165.368805,177.397614 166.299896,177.959839 
	C167.384186,178.724960 168.156555,179.334274 168.914688,179.960800 
	C173.323013,183.603821 179.112457,185.861542 179.207809,193.228668 
	C179.311493,201.240677 179.878479,209.310623 181.095291,217.224319 
	C182.093979,223.719498 184.363495,230.016907 186.013580,236.416443 
	C186.312454,237.575562 186.722885,238.906891 186.434799,239.985977 
	C182.732758,253.852112 182.102341,267.808655 182.669220,282.196808 
	C183.369293,299.966003 185.281815,317.498840 188.022308,334.999542 
	C190.264679,349.319092 192.889740,363.584290 194.825867,377.943604 
	C195.633041,383.929993 196.716110,390.112610 190.042969,394.825073 
	C186.905838,397.040436 185.810120,402.146576 183.789337,405.942749 
M300.918152,195.981033 
	C323.642731,195.984344 346.367371,196.008636 369.091766,195.947784 
	C370.760162,195.943329 372.426941,195.323608 374.794861,194.593826 
	C375.546387,189.821289 374.330383,185.618927 370.670410,181.235107 
	C340.454315,181.212662 310.238190,181.190216 279.491455,181.108932 
	C279.302307,181.396667 279.113159,181.684387 278.448059,182.042053 
	C278.448059,182.042053 277.991333,182.193115 277.066193,182.038818 
	C272.934540,182.027847 268.802887,182.010071 264.671234,182.007401 
	C257.279755,182.002640 252.623489,187.220749 253.433121,195.703705 
	C268.952209,195.745819 284.471283,195.787933 300.918152,195.981033 
M222.518692,166.992599 
	C224.330170,164.424332 227.039902,162.093231 227.791931,159.245209 
	C230.515030,148.932632 231.889313,138.509338 226.059814,128.566849 
	C222.927216,123.224030 218.411011,119.363060 212.492538,118.143494 
	C206.102798,116.826836 201.420471,120.852608 198.172226,125.710144 
	C191.542480,135.624420 191.798340,146.894211 194.545074,157.735580 
	C195.901505,163.089539 200.090469,168.132309 205.805023,170.201019 
	C211.415344,172.231995 217.066818,171.313766 222.518692,166.992599 
z"/>
<path fill="#5AB2CC" opacity="1.000000" stroke="none" 
	d="
M248.992630,183.810333 
	C243.889328,187.722061 243.649200,193.579330 243.027359,199.184265 
	C241.908188,209.271347 241.009247,219.382874 240.024048,229.484756 
	C239.975708,229.980362 240.191299,230.685501 239.932861,230.949966 
	C233.166428,237.874603 238.952148,245.244720 239.135239,252.401810 
	C239.431351,263.976471 239.897614,275.549103 240.002914,287.125214 
	C240.049118,292.203979 239.508026,297.301270 239.014435,302.368835 
	C238.078293,311.979553 236.984177,321.574921 235.727814,331.774078 
	C235.337036,332.615967 235.168762,332.856689 234.995102,333.093658 
	C234.995102,333.093658 234.976349,332.979858 234.799362,333.294220 
	C234.031158,337.530670 233.328888,341.440094 232.879028,345.378326 
	C232.399612,349.575165 232.158920,353.799286 231.814011,358.011475 
	C231.532715,360.918701 231.426025,363.855835 230.934814,366.727142 
	C229.817108,373.260498 228.062805,379.724579 227.520050,386.295532 
	C227.326172,388.642700 229.727722,391.311798 231.211380,393.665863 
	C233.694580,397.605865 236.391937,401.410950 239.087219,405.640198 
	C237.885712,406.647766 236.649078,407.688812 235.298538,407.867065 
	C219.159714,409.997467 203.010147,409.878021 186.879761,407.719971 
	C185.943832,407.594757 185.067703,407.022614 183.976532,406.300598 
	C185.810120,402.146576 186.905838,397.040436 190.042969,394.825073 
	C196.716110,390.112610 195.633041,383.929993 194.825867,377.943604 
	C192.889740,363.584290 190.264679,349.319092 188.022308,334.999542 
	C185.281815,317.498840 183.369293,299.966003 182.669220,282.196808 
	C182.102341,267.808655 182.732758,253.852112 186.434799,239.985977 
	C186.722885,238.906891 186.312454,237.575562 186.013580,236.416443 
	C184.363495,230.016907 182.093979,223.719498 181.095291,217.224319 
	C179.878479,209.310623 179.311493,201.240677 179.207809,193.228668 
	C179.112457,185.861542 173.323013,183.603821 168.914688,179.960800 
	C168.156555,179.334274 167.384186,178.724960 166.202042,177.682953 
	C165.161041,176.846954 164.536407,176.435684 163.911758,176.024414 
	C163.911758,176.024414 163.988052,176.017685 163.828918,175.748688 
	C161.741089,174.340286 159.812363,173.200912 157.883652,172.061523 
	C157.883652,172.061523 157.960388,172.058594 157.870544,171.764282 
	C156.823227,170.993423 155.865723,170.516891 154.908234,170.040344 
	C154.908234,170.040344 154.977356,170.037094 154.908020,169.728516 
	C150.838333,166.945847 146.837982,164.471725 142.837646,161.997604 
	C142.267059,161.522141 141.696472,161.046677 140.956726,160.010635 
	C140.200180,158.948959 139.612747,158.447861 138.756912,157.745422 
	C137.621185,157.385696 136.753891,157.227280 135.886581,157.068878 
	C135.886581,157.068878 135.952637,157.021378 135.834335,156.833801 
	C135.443726,156.429840 135.171432,156.213486 134.899124,155.997116 
	C134.899124,155.997116 134.995071,156.035599 134.920837,155.737625 
	C131.175537,152.951508 127.504478,150.463364 123.833420,147.975220 
	C120.996544,146.240784 118.159668,144.506363 115.097702,142.109009 
	C112.875755,140.324127 110.878891,139.202148 108.882027,138.080170 
	C108.882027,138.080170 108.953590,138.064072 108.905991,137.746964 
	C106.194847,135.639633 103.531311,133.849396 100.867775,132.059174 
	C100.867775,132.059174 100.955147,132.052856 100.868271,131.763794 
	C99.824242,130.996201 98.867088,130.517685 97.909935,130.039154 
	C97.909935,130.039154 97.976921,130.027328 97.918137,129.708466 
	C95.865578,128.281128 93.871803,127.172668 91.878036,126.064209 
	C91.878036,126.064209 91.955986,126.012779 91.821671,125.842697 
	C91.419205,125.445969 91.151054,125.219322 90.882896,124.992668 
	C90.882896,124.992668 91.009842,125.021896 90.876846,124.751648 
	C90.291504,120.007256 94.614227,115.189301 100.145340,114.002823 
	C100.145340,114.002823 100.542572,114.025909 100.850769,114.275177 
	C101.349411,114.765266 101.585152,114.947472 101.866196,115.071053 
	C111.744377,120.755272 121.628235,126.429688 131.488525,132.144775 
	C132.179047,132.544998 132.695160,133.246140 133.774017,134.154770 
	C134.518356,134.705109 134.804489,134.866516 135.114044,134.986404 
	C135.114044,134.986404 135.015640,135.008743 135.163361,135.173401 
	C135.589615,135.557236 135.868149,135.776398 136.146683,135.995544 
	C136.529587,135.998123 136.912491,136.000702 137.751312,136.254425 
	C138.502411,136.666321 138.797592,136.827072 139.092758,136.987839 
	C139.092758,136.987839 139.007965,137.004440 139.161011,137.169968 
	C139.587219,137.554398 139.860382,137.773315 140.133545,137.992233 
	C140.133545,137.992233 140.537109,138.025192 140.901276,138.263794 
	C141.527802,138.706711 141.814407,138.867859 142.125290,138.985825 
	C142.125290,138.985825 142.018005,138.965637 142.126389,139.250885 
	C143.226715,140.023895 144.218674,140.511627 145.210617,140.999359 
	C145.210617,140.999359 145.538406,140.993408 145.886612,141.251984 
	C146.566162,141.671448 146.897507,141.832352 147.228851,141.993256 
	C147.228851,141.993256 147.592896,142.003021 147.934769,142.245590 
	C148.536163,142.683990 148.812164,142.852921 149.104630,142.994980 
	C149.104630,142.994980 149.012573,142.983795 149.121262,143.265961 
	C150.192429,144.013611 151.154907,144.479080 152.117386,144.944550 
	C152.117386,144.944550 152.028763,144.984863 152.170013,145.151825 
	C152.585907,145.542252 152.860550,145.765732 153.135193,145.989212 
	C153.135193,145.989212 153.542496,146.021729 153.917633,146.260254 
	C154.590042,146.661621 154.887314,146.824478 155.184570,146.987335 
	C155.184570,146.987335 155.549362,147.011978 155.907257,147.258713 
	C156.571869,147.668411 156.878601,147.831375 157.185333,147.994354 
	C157.185333,147.994354 157.567795,148.013916 157.925888,148.249588 
	C158.549927,148.687302 158.837677,148.850983 159.147232,148.976318 
	C159.147232,148.976318 159.034119,148.959045 159.128571,149.250244 
	C160.858307,150.332016 162.493591,151.122604 164.128876,151.913177 
	C164.128876,151.913177 164.068436,151.977844 164.187988,152.160278 
	C164.576874,152.562927 164.846207,152.783127 165.115524,153.003342 
	C165.115524,153.003342 165.006973,152.975342 165.132568,153.267761 
	C166.564087,154.037888 167.870041,154.515610 169.175980,154.993332 
	C169.175980,154.993332 169.528687,155.003113 169.873383,155.250412 
	C170.522476,155.655121 170.826843,155.812546 171.131226,155.969955 
	C171.131226,155.969955 171.039551,156.009857 171.179825,156.174744 
	C171.598587,156.555161 171.877060,156.770676 172.155548,156.986206 
	C184.058304,163.775040 195.893799,170.687866 207.935181,177.221222 
	C209.776016,178.220016 213.074127,178.363754 214.836334,177.371796 
	C224.387848,171.995163 233.608292,166.034927 243.061005,160.476776 
	C250.991913,155.813446 259.167664,151.565125 267.077942,146.868469 
	C272.663818,143.551910 277.874084,139.602631 283.460815,136.287659 
	C288.547119,133.269608 294.040039,130.937180 299.128967,127.923058 
	C306.661102,123.461861 314.101929,118.824730 321.362701,113.937309 
	C324.516602,111.814331 326.535736,111.741135 329.347565,114.606163 
	C337.063599,122.468224 336.920410,123.630547 327.265350,129.498184 
	C320.934540,133.345596 314.887909,137.660721 308.126282,141.813110 
	C306.711121,142.617996 305.883698,143.376144 305.056274,144.134293 
	C305.056274,144.134293 305.047882,144.062592 304.734467,144.057953 
	C303.280701,144.703140 302.140350,145.352936 300.654785,146.072327 
	C297.550659,148.462616 294.791748,150.783279 292.032806,153.103958 
	C292.032806,153.103958 292.005890,153.017120 291.840698,153.161163 
	C291.449890,153.567856 291.224304,153.830475 290.998718,154.093109 
	C290.998718,154.093109 291.051117,154.018417 290.710876,154.035095 
	C287.595978,156.079422 284.821320,158.107071 282.046661,160.134735 
	C282.046661,160.134735 282.045776,160.059158 281.714417,160.059631 
	C279.271851,161.750717 277.160706,163.441299 275.049530,165.131897 
	C275.049530,165.131897 275.047607,165.059769 274.712524,165.060486 
	C272.266144,166.746811 270.154785,168.432419 268.043457,170.118027 
	C268.043457,170.118027 268.025360,170.030228 267.838623,170.127533 
	C267.393158,170.440475 267.134399,170.656113 266.875671,170.871735 
	C266.479675,171.196243 266.083679,171.520752 265.203430,172.066666 
	C264.480194,172.563141 264.241180,172.838226 264.002167,173.113312 
	C264.002167,173.113312 264.041138,173.032166 263.701599,173.048065 
	C260.328827,174.356705 256.194855,174.318924 256.054993,179.109085 
	C256.054993,179.109085 256.039368,179.040222 255.703003,179.048035 
	C253.923752,180.076294 252.480850,181.096725 251.037949,182.117172 
	C251.037949,182.117172 251.035736,182.040359 250.779480,182.096603 
	C250.013031,182.705338 249.502838,183.257843 248.992630,183.810333 
z"/>
<path fill="#5AB1CB" opacity="1.000000" stroke="none" 
	d="
M189.031906,83.809250 
	C183.459167,84.993912 177.695435,85.626976 172.352951,87.476669 
	C160.794449,91.478485 149.293808,95.741867 138.090271,100.632988 
	C132.825058,102.931618 128.260223,106.869125 123.457130,110.178810 
	C120.531898,112.194496 118.022591,115.227936 114.823776,116.289536 
	C112.623436,117.019768 109.334732,115.585556 106.938461,114.338600 
	C103.670982,112.638283 100.789978,110.195282 97.386597,108.125725 
	C99.724846,105.588188 102.239639,102.771858 105.141212,100.435974 
	C169.118408,48.931652 265.867798,51.969574 326.798676,107.630554 
	C322.548645,110.528397 318.274841,113.385025 313.689636,115.595848 
	C312.139282,116.343353 309.430267,116.099541 307.883728,115.209251 
	C299.222260,110.223267 290.850098,104.735443 282.199188,99.730064 
	C267.318176,91.119926 250.905136,86.910210 234.208466,83.645187 
	C232.132446,83.239220 229.987579,83.185341 227.251251,82.555305 
	C225.077560,81.765366 223.531998,81.087616 221.976105,81.063026 
	C214.837418,80.950226 207.685944,80.799103 200.559479,81.117722 
	C197.002869,81.276741 193.490036,82.414696 189.957397,83.109848 
	C189.957397,83.109848 189.978409,82.972397 189.864197,83.117371 
	C189.482788,83.408096 189.243423,83.590393 189.031906,83.809250 
z"/>
<path fill="#5BB1CA" opacity="1.000000" stroke="none" 
	d="
M337.267883,354.894653 
	C334.070526,351.575500 331.398376,348.001617 328.277588,344.875702 
	C326.130493,342.725067 326.487701,341.323181 328.210724,339.229645 
	C340.428650,324.384521 350.899780,308.274048 357.039246,290.093567 
	C360.766785,279.055389 365.687531,268.031799 365.122681,255.722656 
	C364.768524,248.004776 366.204437,240.205719 365.864136,232.485977 
	C365.376801,221.429871 364.000671,210.412949 362.951904,198.802170 
	C368.057892,198.802170 373.839478,198.802170 379.871185,198.440201 
	C381.677765,211.543457 384.590210,225.013809 384.539185,238.472946 
	C384.379364,280.641846 369.887299,317.792297 342.479797,349.863068 
	C340.975616,351.623169 339.233276,353.179688 337.267883,354.894653 
z"/>
<path fill="#59B1CA" opacity="1.000000" stroke="none" 
	d="
M56.834381,229.027267 
	C57.230045,237.936722 57.131496,246.904144 58.167637,255.738480 
	C59.105682,263.736450 60.697021,271.768768 63.058929,279.460907 
	C66.059601,289.233368 70.127769,298.678070 73.995926,308.791016 
	C74.410172,309.583649 74.601067,309.819489 74.828880,310.025452 
	C74.828880,310.025452 74.982079,310.405060 74.989418,310.990723 
	C75.714828,312.701752 76.432899,313.827118 77.150970,314.952484 
	C77.150970,314.952484 77.072388,314.957947 77.045532,315.301941 
	C78.046875,317.087494 79.075073,318.528992 80.103279,319.970520 
	C80.103279,319.970520 80.033302,319.974823 80.050018,320.288086 
	C80.752335,321.388275 81.437920,322.175201 82.123512,322.962158 
	C82.123512,322.962158 82.052208,322.966034 82.050308,323.280640 
	C82.742012,324.384521 83.435616,325.173828 84.129211,325.963135 
	C84.129219,325.963135 84.023445,325.997314 84.163391,326.156433 
	C84.566940,326.544739 84.830551,326.773865 85.094162,327.003021 
	C85.094162,327.003021 85.015099,326.944916 85.030991,327.275452 
	C86.403984,329.392883 87.761086,331.179840 89.118179,332.966797 
	C89.118179,332.966797 89.018318,332.997101 89.163986,333.159088 
	C89.583374,333.544220 89.857101,333.767365 90.130829,333.990509 
	C90.458588,333.991821 90.710686,334.130615 91.104652,334.853882 
	C91.613976,335.529449 91.905777,335.757904 92.197578,335.986389 
	C92.510452,335.991943 92.748032,336.128479 93.010643,336.925568 
	C93.488701,337.964111 93.866432,338.473114 94.244171,338.982117 
	C97.005249,340.281311 98.165558,341.867645 95.237015,344.253662 
	C92.076332,346.828796 88.936211,349.429138 85.444389,352.126770 
	C83.644150,351.293701 81.848831,350.637512 80.778313,349.369476 
	C49.506126,312.326813 35.676411,269.604980 39.644329,221.279846 
	C40.251202,213.888733 42.120136,206.601227 43.728756,199.059402 
	C49.479740,198.852997 54.907333,198.852997 61.096771,198.852997 
	C60.654701,201.326080 60.308819,203.261032 59.563011,205.762177 
	C56.642593,213.715729 55.156765,221.209229 56.834381,229.027267 
z"/>
<path fill="#5CB2CB" opacity="1.000000" stroke="none" 
	d="
M149.006027,375.162628 
	C148.991699,375.478119 148.850983,375.720123 148.142868,376.088074 
	C147.468475,376.558960 147.235092,376.830414 147.001709,377.101868 
	C147.001709,377.101868 146.985703,377.001984 146.824997,377.208374 
	C146.454254,377.969666 146.244202,378.524597 146.034149,379.079529 
	C146.034134,379.079529 146.023788,379.010071 145.853210,379.164886 
	C145.453857,379.577179 145.225113,379.834656 144.996353,380.092133 
	C144.996353,380.092133 144.998474,379.998444 144.835052,380.155853 
	C144.446609,380.578186 144.221588,380.843109 143.996582,381.108063 
	C143.996597,381.108063 143.997910,380.995331 143.839127,381.152710 
	C143.453751,381.581451 143.227158,381.852814 143.000580,382.124176 
	C143.000580,382.124176 142.998276,382.000305 142.843536,382.155579 
	C142.459412,382.582336 142.230042,382.853851 142.000687,383.125366 
	C142.000687,383.125366 141.993225,383.000977 141.844757,383.156830 
	C141.463699,383.576508 141.231094,383.840302 140.998505,384.104095 
	C140.998489,384.104095 141.015991,384.017029 140.707886,384.097412 
	C139.632507,385.492432 138.865234,386.807068 138.097961,388.121704 
	C138.097961,388.121704 138.020660,388.029114 137.689789,388.047119 
	C136.130951,388.875824 134.902985,389.686554 133.675018,390.497253 
	C123.317032,383.891266 112.959061,377.285278 102.392807,370.442841 
	C105.470055,366.699799 109.601524,366.076874 114.244270,365.843567 
	C125.750946,365.265381 135.404922,361.526489 141.071121,350.165558 
	C143.966415,344.360474 149.040573,339.676147 152.289719,334.003998 
	C155.564713,328.286682 157.677536,321.915619 160.515335,315.933350 
	C165.887711,304.608063 171.414505,293.355957 177.350372,281.096008 
	C178.421387,282.952972 179.789825,284.254272 179.870743,285.631256 
	C180.703918,299.810242 181.869415,314.009033 181.671204,328.184540 
	C181.614243,332.257690 177.646393,336.398560 175.121567,340.280670 
	C172.553207,344.229706 169.553055,347.897949 166.220444,352.006927 
	C165.469254,352.596313 165.239594,352.867889 165.009949,353.139496 
	C165.009949,353.139496 165.033157,353.034241 164.730804,353.106354 
	C163.308075,355.159973 162.187698,357.141479 161.067322,359.122986 
	C161.067322,359.122986 161.065689,359.051300 160.746887,359.108154 
	C158.974350,361.482910 157.520599,363.800842 156.066833,366.118744 
	C156.066833,366.118744 156.059433,366.048004 155.751984,366.104065 
	C154.635101,367.151306 153.825653,368.142487 153.016205,369.133698 
	C153.016205,369.133698 152.975128,369.535126 152.731812,369.895081 
	C152.287262,370.508606 152.128448,370.786407 152.012039,371.088470 
	C152.012039,371.088470 152.016983,371.019470 151.699402,371.096008 
	C150.589905,372.502563 149.797958,373.832611 149.006027,375.162628 
z"/>
<path fill="#5BB2CB" opacity="1.000000" stroke="none" 
	d="
M267.855896,327.056366 
	C267.855896,327.056366 267.980804,327.437439 268.011414,328.022003 
	C269.064514,330.394623 270.086975,332.182648 271.109467,333.970703 
	C271.109467,333.970703 271.039734,333.978241 271.048431,334.318817 
	C272.747742,337.091400 274.438385,339.523438 276.128998,341.955444 
	C276.128998,341.955444 276.056824,341.961304 276.061584,342.273834 
	C276.748688,343.379974 277.431061,344.173553 278.113403,344.967163 
	C278.113403,344.967163 278.018250,344.993073 278.160706,345.158264 
	C278.569244,345.548737 278.835297,345.773987 279.101318,345.999268 
	C279.101318,345.999268 278.990448,345.985840 279.145142,346.153748 
	C279.575592,346.545990 279.851349,346.770294 280.127106,346.994598 
	C280.127106,346.994598 280.032776,346.967255 280.085388,347.227814 
	C280.466736,347.997253 280.795410,348.506165 281.124115,349.015045 
	C281.124115,349.015045 281.021942,348.989502 281.079407,349.243652 
	C281.462006,350.003601 281.787170,350.509369 282.112305,351.015137 
	C282.112305,351.015137 281.987976,351.001343 282.144043,351.160614 
	C282.573761,351.544006 282.847473,351.768158 283.121155,351.992279 
	C283.121155,351.992279 283.038696,351.947815 283.049622,352.283569 
	C284.415375,354.395660 285.770233,356.171997 287.125061,357.948334 
	C287.125061,357.948334 287.055206,357.958710 287.052765,358.292572 
	C288.411865,360.066681 289.773438,361.506927 291.135010,362.947174 
	C291.135010,362.947174 291.024567,362.977875 291.172577,363.141052 
	C291.602570,363.529388 291.884521,363.754578 292.166504,363.979767 
	C292.166504,363.979767 292.579926,364.014740 293.041382,364.270996 
	C294.342010,364.677277 295.181213,364.827271 296.443573,364.993286 
	C303.648438,365.675049 310.430115,366.340729 317.211792,367.006409 
	C318.151215,367.817749 319.090637,368.629120 320.222229,369.699341 
	C314.900848,374.331421 309.582764,378.986389 303.812927,382.990295 
	C299.046051,386.298218 293.745117,388.836517 288.362305,391.846863 
	C283.687073,386.619385 279.330383,381.260895 274.917175,375.191864 
	C273.198730,372.672272 271.536835,370.863220 269.874969,369.054169 
	C269.874969,369.054169 269.957794,369.010956 269.831787,368.837524 
	C269.439911,368.442139 269.174011,368.220123 268.908112,367.998138 
	C268.908112,367.998138 269.001221,367.994690 268.851349,367.831299 
	C268.439484,367.444916 268.177460,367.221924 267.915436,366.998962 
	C267.915436,366.998962 268.004059,367.005310 267.858093,366.827881 
	C267.436676,366.435455 267.161255,366.220490 266.885834,366.005493 
	C266.885834,366.005493 266.982849,365.997192 266.871185,365.836945 
	C266.597595,365.397949 266.397125,365.150452 266.158112,364.934174 
	C266.158112,364.934174 266.011841,364.575592 265.986389,364.025452 
	C265.273407,362.659302 264.585846,361.843262 263.898285,361.027252 
	C263.898285,361.027252 263.987366,361.005005 263.842590,360.840515 
	C263.436279,360.449463 263.174744,360.222870 262.913239,359.996307 
	C262.913239,359.996307 262.982422,360.038239 262.968628,359.701965 
	C261.251526,357.269196 259.548157,355.172699 257.844818,353.076233 
	C257.844818,353.076233 257.942566,353.025360 257.823822,352.852936 
	C257.436188,352.456726 257.167297,352.232941 256.898407,352.009125 
	C256.898407,352.009125 256.965485,352.062836 256.955139,351.726685 
	C255.592209,349.606506 254.239639,347.822479 252.887085,346.038452 
	C252.887085,346.038452 252.977051,346.002472 252.824615,345.839508 
	C252.389893,345.457458 252.107635,345.238342 251.825363,345.019257 
	C251.507492,345.020355 251.263947,344.886353 250.997513,344.089081 
	C250.558884,343.034180 250.217453,342.507538 249.876007,341.980865 
	C249.876007,341.980865 249.975861,342.011597 249.973495,341.676086 
	C248.931946,339.913177 247.892776,338.485809 246.853607,337.058411 
	C246.853607,337.058411 246.965469,337.026367 246.834305,336.854370 
	C246.424438,336.457092 246.145737,336.231781 245.867035,336.006470 
	C245.867035,336.006470 245.964905,336.033386 245.913727,335.773682 
	C245.536072,335.003265 245.209625,334.492554 244.883163,333.981842 
	C244.883163,333.981842 244.989960,334.024994 244.929718,333.706970 
	C244.031906,330.778137 242.437195,328.151245 242.492493,325.559509 
	C242.693497,316.137299 243.503403,306.729553 243.941177,297.309723 
	C244.022842,295.552185 243.446884,293.764130 243.174423,291.990143 
	C243.525665,288.963013 241.177643,285.054901 245.181015,283.441101 
	C245.800537,283.191345 248.738541,287.613708 249.980240,290.177734 
	C254.780869,300.090668 259.328766,310.126007 264.100098,320.716187 
	C264.450592,321.583252 264.671844,321.849945 264.893097,322.116638 
	C264.893097,322.116638 265.002655,322.460052 265.026184,322.996002 
	C265.744263,324.340271 266.438751,325.148590 267.133270,325.956909 
	C267.133270,325.956909 267.032288,325.976166 267.132172,326.144348 
	C267.389801,326.602539 267.597748,326.850494 267.855896,327.056366 
z"/>
<path fill="#5DB2CA" opacity="1.000000" stroke="none" 
	d="
M374.031982,177.775909 
	C369.277618,178.451767 364.531586,178.567047 359.826355,179.066650 
	C356.056091,179.466980 353.925201,177.759491 352.784363,174.482407 
	C347.858765,160.333481 338.952118,148.675858 329.727234,137.179611 
	C327.490173,134.391724 326.772858,131.746140 331.275513,129.667847 
	C334.590576,128.137711 337.327881,125.355934 340.638428,122.959808 
	C346.230499,129.290543 352.411926,135.266434 356.574829,142.417389 
	C363.117310,153.655930 368.299652,165.686249 374.031982,177.775909 
z"/>
<path fill="#5BB1CA" opacity="1.000000" stroke="none" 
	d="
M82.792709,122.078918 
	C86.307129,124.751968 89.246353,127.866463 92.733208,130.141678 
	C95.880432,132.195282 96.020302,133.907028 93.933029,136.678329 
	C85.248909,148.208389 75.854561,159.271835 70.866798,173.185623 
	C69.767372,176.252594 67.591576,178.589752 63.400375,178.094620 
	C59.297070,177.609863 55.091778,177.988434 50.462936,178.003845 
	C51.885498,172.751617 53.409977,167.315414 55.736473,162.247391 
	C62.509640,147.492706 71.309082,134.025726 82.792709,122.078918 
z"/>
<path fill="#79B6C6" opacity="1.000000" stroke="none" 
	d="
M133.851852,390.703857 
	C134.902985,389.686554 136.130951,388.875824 137.740112,388.080322 
	C137.419922,389.172150 136.718521,390.248749 135.939194,391.653259 
	C135.250397,391.624268 134.639542,391.267334 133.851852,390.703857 
z"/>
<path fill="#5DB2CA" opacity="1.000000" stroke="none" 
	d="
M131.016953,180.147369 
	C137.461807,180.425034 143.905807,180.725388 150.351990,180.967728 
	C152.510635,181.048859 154.674835,180.982132 156.836502,180.982742 
	C164.189102,180.984833 169.830658,186.878357 169.051270,194.759659 
	C131.001068,194.945694 93.763901,194.952896 56.526840,195.020157 
	C54.755196,195.023346 52.984509,195.558365 51.213371,195.845718 
	C45.427559,194.579285 48.943558,189.927643 47.998837,186.469208 
	C48.035305,186.025772 48.005417,185.998047 48.017937,186.010986 
	C49.408432,184.353592 50.786415,182.683243 52.995411,181.037842 
	C72.815300,181.085602 91.804672,181.194626 110.792786,181.084961 
	C117.535759,181.046036 124.275650,180.475327 131.016953,180.147369 
z"/>
<path fill="#5CB2CB" opacity="1.000000" stroke="none" 
	d="
M222.261078,167.283768 
	C217.066818,171.313766 211.415344,172.231995 205.805023,170.201019 
	C200.090469,168.132309 195.901505,163.089539 194.545074,157.735580 
	C191.798340,146.894211 191.542480,135.624420 198.172226,125.710144 
	C201.420471,120.852608 206.102798,116.826836 212.492538,118.143494 
	C218.411011,119.363060 222.927216,123.224030 226.059814,128.566849 
	C231.889313,138.509338 230.515030,148.932632 227.791931,159.245209 
	C227.039902,162.093231 224.330170,164.424332 222.261078,167.283768 
z"/>
<path fill="#57B2CD" opacity="1.000000" stroke="none" 
	d="
M277.991333,182.193115 
	C277.991333,182.193115 278.448059,182.042053 278.957001,182.018463 
	C279.646576,181.994354 279.827240,181.993835 280.002686,181.994553 
	C279.997498,181.995789 280.005463,181.981735 280.346497,182.216431 
	C281.820435,182.632675 282.953125,182.970795 284.086304,182.972519 
	C304.303375,183.003296 324.520508,183.012650 344.737427,182.950607 
	C346.162506,182.946243 347.585785,182.350571 349.477783,182.023682 
	C356.611481,182.043655 363.277283,182.069809 370.031616,182.465698 
	C374.270813,193.900101 372.177399,194.166733 362.744446,194.096085 
	C329.455963,193.846756 296.164520,194.000595 262.874176,193.993851 
	C261.377777,193.993546 259.699097,194.320648 258.442261,193.751389 
	C257.425262,193.290741 256.265442,191.688263 256.299225,190.628296 
	C256.417603,186.914536 260.837402,183.165833 264.651978,182.986618 
	C269.101044,182.777588 273.545105,182.462296 277.991333,182.193115 
z"/>
<path fill="#65ADC0" opacity="1.000000" stroke="none" 
	d="
M277.528748,182.115967 
	C273.545105,182.462296 269.101044,182.777588 264.651978,182.986618 
	C260.837402,183.165833 256.417603,186.914536 256.299225,190.628296 
	C256.265442,191.688263 257.425262,193.290741 258.442261,193.751389 
	C259.699097,194.320648 261.377777,193.993546 262.874176,193.993851 
	C296.164520,194.000595 329.455963,193.846756 362.744446,194.096085 
	C372.177399,194.166733 374.270813,193.900101 370.330933,182.430878 
	C370.741730,182.013641 370.941742,182.000946 371.141785,181.988235 
	C374.330383,185.618927 375.546387,189.821289 373.969025,194.809082 
	C348.752411,195.063980 324.361664,195.103622 299.506042,195.103455 
	C283.764526,194.988892 268.487854,194.914124 253.211197,194.839355 
	C252.623489,187.220749 257.279755,182.002640 264.671234,182.007401 
	C268.802887,182.010071 272.934540,182.027847 277.528748,182.115967 
z"/>
<path fill="#BDEEF2" opacity="1.000000" stroke="none" 
	d="
M51.660294,195.898041 
	C52.984509,195.558365 54.755196,195.023346 56.526840,195.020157 
	C93.763901,194.952896 131.001068,194.945694 168.724274,194.935120 
	C167.880798,195.301407 166.551544,195.970734 165.221680,195.971924 
	C127.516891,196.005951 89.812050,195.972656 51.660294,195.898041 
z"/>
<path fill="#8ABFCC" opacity="1.000000" stroke="none" 
	d="
M370.906097,181.611664 
	C370.941742,182.000946 370.741730,182.013641 370.242432,182.061157 
	C363.277283,182.069809 356.611481,182.043655 349.008484,182.007370 
	C325.382690,181.992065 302.694061,181.986893 280.005463,181.981735 
	C280.005463,181.981735 279.997498,181.995789 280.003235,181.788269 
	C280.009003,181.580734 280.022095,181.167770 280.022095,181.167770 
	C310.238190,181.190216 340.454315,181.212662 370.906097,181.611664 
z"/>
<path fill="#7BB7C6" opacity="1.000000" stroke="none" 
	d="
M243.088684,292.410278 
	C243.446884,293.764130 244.022842,295.552185 243.941177,297.309723 
	C243.503403,306.729553 242.693497,316.137299 242.492493,325.559509 
	C242.437195,328.151245 244.031906,330.778137 244.907715,333.760193 
	C243.625824,332.352234 241.171005,330.573395 241.170380,328.793732 
	C241.166397,317.551941 241.689880,306.309387 242.104065,295.069458 
	C242.131927,294.313110 242.690964,293.576324 243.088684,292.410278 
z"/>
<path fill="#CAECFC" opacity="1.000000" stroke="none" 
	d="
M130.548981,180.076416 
	C124.275650,180.475327 117.535759,181.046036 110.792786,181.084961 
	C91.804672,181.194626 72.815300,181.085602 53.347816,181.057892 
	C54.341064,180.702988 55.812153,180.051682 57.284901,180.047897 
	C81.550156,179.985504 105.815613,180.004623 130.548981,180.076416 
z"/>
<path fill="#9BCFDD" opacity="1.000000" stroke="none" 
	d="
M299.970886,195.143265 
	C324.361664,195.103622 348.752411,195.063980 373.618835,195.007126 
	C372.426941,195.323608 370.760162,195.943329 369.091766,195.947784 
	C346.367371,196.008636 323.642731,195.984344 300.450165,195.733826 
	C299.982178,195.486603 299.970886,195.143265 299.970886,195.143265 
z"/>
<path fill="#8ABED1" opacity="1.000000" stroke="none" 
	d="
M190.430557,83.062302 
	C193.490036,82.414696 197.002869,81.276741 200.559479,81.117722 
	C207.685944,80.799103 214.837418,80.950226 221.976105,81.063026 
	C223.531998,81.087616 225.077560,81.765366 226.816742,82.472549 
	C214.971634,82.873459 202.937683,82.944107 190.430557,83.062302 
z"/>
<path fill="#A6D4E4" opacity="1.000000" stroke="none" 
	d="
M299.506042,195.103455 
	C299.970886,195.143265 299.982178,195.486603 299.986267,195.658325 
	C284.471283,195.787933 268.952209,195.745819 253.322159,195.271530 
	C268.487854,194.914124 283.764526,194.988892 299.506042,195.103455 
z"/>
<path fill="#86BECF" opacity="1.000000" stroke="none" 
	d="
M231.999573,357.642395 
	C232.158920,353.799286 232.399612,349.575165 232.879028,345.378326 
	C233.328888,341.440094 234.031158,337.530670 234.856155,333.284119 
	C234.121674,341.064209 233.153397,349.168732 231.999573,357.642395 
z"/>
<path fill="#82BECB" opacity="1.000000" stroke="none" 
	d="
M56.908825,228.597641 
	C55.156765,221.209229 56.642593,213.715729 59.483974,206.168427 
	C59.210957,210.504364 58.604637,214.998688 58.027607,219.496750 
	C57.657177,222.384293 57.329891,225.277405 56.908825,228.597641 
z"/>
<path fill="#7EB8C7" opacity="1.000000" stroke="none" 
	d="
M99.988174,113.685272 
	C94.614227,115.189301 90.291504,120.007256 90.862152,124.815094 
	C89.992783,124.441940 89.005112,123.735077 88.017441,123.028214 
	C90.387505,119.802040 92.565285,116.399315 95.256607,113.468117 
	C95.970734,112.690331 98.263214,113.361717 99.988174,113.685272 
z"/>
<path fill="#86BDD1" opacity="1.000000" stroke="none" 
	d="
M316.991821,366.644501 
	C310.430115,366.340729 303.648438,365.675049 296.439270,364.787994 
	C296.011810,364.566620 296.011414,364.155487 296.011414,364.155457 
	C302.931549,364.864502 309.851715,365.573547 316.991821,366.644501 
z"/>
<path fill="#81B8C9" opacity="1.000000" stroke="none" 
	d="
M142.978775,162.325714 
	C146.837982,164.471725 150.838333,166.945847 154.903564,169.762848 
	C151.018921,167.621765 147.069412,165.137802 142.978775,162.325714 
z"/>
<path fill="#83BBCB" opacity="1.000000" stroke="none" 
	d="
M123.902878,148.338821 
	C127.504478,150.463364 131.175537,152.951508 134.901184,155.785431 
	C131.294617,153.654953 127.633469,151.178680 123.902878,148.338821 
z"/>
<path fill="#7AB7C5" opacity="1.000000" stroke="none" 
	d="
M292.395996,153.057602 
	C294.791748,150.783279 297.550659,148.462616 300.674561,146.369812 
	C301.053802,146.795944 301.068085,146.994186 301.082367,147.192444 
	C298.307983,149.132050 295.533569,151.071655 292.395996,153.057602 
z"/>
<path fill="#7EB8C7" opacity="1.000000" stroke="none" 
	d="
M100.918343,132.423248 
	C103.531311,133.849396 106.194847,135.639633 108.896774,137.782471 
	C106.279747,136.352478 103.624329,134.569901 100.918343,132.423248 
z"/>
<path fill="#7AB7C5" opacity="1.000000" stroke="none" 
	d="
M282.408081,160.086182 
	C284.821320,158.107071 287.595978,156.079422 290.747864,154.061829 
	C288.339874,156.060486 285.554688,158.049072 282.408081,160.086182 
z"/>
<path fill="#7AB7C6" opacity="1.000000" stroke="none" 
	d="
M276.074219,341.592590 
	C274.438385,339.523438 272.747742,337.091400 271.048401,334.283752 
	C272.699615,336.348633 274.359528,338.789154 276.074219,341.592590 
z"/>
<path fill="#7AB7C5" opacity="1.000000" stroke="none" 
	d="
M256.377441,178.976700 
	C256.194855,174.318924 260.328827,174.356705 263.741760,173.068481 
	C261.647552,174.996750 259.173737,176.920532 256.377441,178.976700 
z"/>
<path fill="#7BB7C6" opacity="1.000000" stroke="none" 
	d="
M257.893555,353.431946 
	C259.548157,355.172699 261.251526,357.269196 262.947144,359.736206 
	C261.273712,358.000427 259.608002,355.894043 257.893555,353.431946 
z"/>
<path fill="#7AB7C5" opacity="1.000000" stroke="none" 
	d="
M268.394653,170.057281 
	C270.154785,168.432419 272.266144,166.746811 274.748596,165.062195 
	C272.995087,166.707657 270.870453,168.352097 268.394653,170.057281 
z"/>
<path fill="#7AB7C5" opacity="1.000000" stroke="none" 
	d="
M275.396942,165.057312 
	C277.160706,163.441299 279.271851,161.750717 281.752197,160.060944 
	C279.995667,161.702103 277.870026,163.342407 275.396942,165.057312 
z"/>
<path fill="#7BB7C6" opacity="1.000000" stroke="none" 
	d="
M269.920197,369.415466 
	C271.536835,370.863220 273.198730,372.672272 274.920166,374.838287 
	C273.308289,373.389069 271.636841,371.582916 269.920197,369.415466 
z"/>
<path fill="#76B5C2" opacity="1.000000" stroke="none" 
	d="
M156.384140,365.982117 
	C157.520599,363.800842 158.974350,361.482910 160.782440,359.112793 
	C159.658310,361.322266 158.179871,363.583862 156.384140,365.982117 
z"/>
<path fill="#76B5C2" opacity="1.000000" stroke="none" 
	d="
M161.387527,358.993561 
	C162.187698,357.141479 163.308075,355.159973 164.783203,353.119019 
	C163.994553,354.994446 162.851135,356.929291 161.387527,358.993561 
z"/>
<path fill="#7EB8C7" opacity="1.000000" stroke="none" 
	d="
M109.009697,138.401672 
	C110.878891,139.202148 112.875755,140.324127 114.931236,141.812134 
	C113.039024,141.026505 111.088196,139.874832 109.009697,138.401672 
z"/>
<path fill="#7EB8C7" opacity="1.000000" stroke="none" 
	d="
M92.008804,126.385223 
	C93.871803,127.172668 95.865578,128.281128 97.915604,129.742371 
	C96.027763,128.965515 94.083672,127.835876 92.008804,126.385223 
z"/>
<path fill="#7AB7C6" opacity="1.000000" stroke="none" 
	d="
M287.072662,357.598633 
	C285.770233,356.171997 284.415375,354.395660 283.072876,352.242920 
	C284.396912,353.660645 285.708588,355.454803 287.072662,357.598633 
z"/>
<path fill="#7BB7C6" opacity="1.000000" stroke="none" 
	d="
M252.930832,346.392426 
	C254.239639,347.822479 255.592209,349.606506 256.927551,351.759644 
	C255.598404,350.334595 254.286499,348.540497 252.930832,346.392426 
z"/>
<path fill="#81B8C9" opacity="1.000000" stroke="none" 
	d="
M158.008667,172.387024 
	C159.812363,173.200912 161.741089,174.340286 163.831787,175.786865 
	C162.040421,174.966888 160.087051,173.839706 158.008667,172.387024 
z"/>
<path fill="#7EB8C8" opacity="1.000000" stroke="none" 
	d="
M89.070282,332.610718 
	C87.761086,331.179840 86.403984,329.392883 85.060471,327.236237 
	C86.390160,328.662567 87.706268,330.458588 89.070282,332.610718 
z"/>
<path fill="#7AB7C6" opacity="1.000000" stroke="none" 
	d="
M291.081573,362.605957 
	C289.773438,361.506927 288.411865,360.066681 287.056152,358.257446 
	C288.384033,359.347198 289.706085,360.805939 291.081573,362.605957 
z"/>
<path fill="#7AB7C6" opacity="1.000000" stroke="none" 
	d="
M271.059418,333.603638 
	C270.086975,332.182648 269.064514,330.394623 268.031982,328.221436 
	C269.017761,329.636414 270.013550,331.436462 271.059418,333.603638 
z"/>
<path fill="#7BB7C6" opacity="1.000000" stroke="none" 
	d="
M246.909149,337.406982 
	C247.892776,338.485809 248.931946,339.913177 249.957520,341.725800 
	C248.950851,340.659210 247.957779,339.207367 246.909149,337.406982 
z"/>
<path fill="#7EB8C8" opacity="1.000000" stroke="none" 
	d="
M80.053177,319.620514 
	C79.075073,318.528992 78.046875,317.087494 77.044647,315.262573 
	C78.048111,316.342987 79.025597,317.806732 80.053177,319.620514 
z"/>
<path fill="#7AB7C5" opacity="1.000000" stroke="none" 
	d="
M251.386200,182.065857 
	C252.480850,181.096725 253.923752,180.076294 255.737457,179.055725 
	C254.650330,180.041931 253.192383,181.028244 251.386200,182.065857 
z"/>
<path fill="#7CB7C6" opacity="1.000000" stroke="none" 
	d="
M163.999146,151.594925 
	C162.493591,151.122604 160.858307,150.332016 159.138397,149.193878 
	C160.658997,149.656448 162.264221,150.466568 163.999146,151.594925 
z"/>
<path fill="#79B8C6" opacity="1.000000" stroke="none" 
	d="
M301.410736,147.115875 
	C301.068085,146.994186 301.053802,146.795944 301.019745,146.300201 
	C302.140350,145.352936 303.280701,144.703140 304.770538,144.056519 
	C303.993073,145.052902 302.866089,146.046097 301.410736,147.115875 
z"/>
<path fill="#79B6C6" opacity="1.000000" stroke="none" 
	d="
M138.409607,387.998383 
	C138.865234,386.807068 139.632507,385.492432 140.751297,384.106689 
	C140.308960,385.315430 139.515106,386.595245 138.409607,387.998383 
z"/>
<path fill="#79B6C6" opacity="1.000000" stroke="none" 
	d="
M149.323730,375.036682 
	C149.797958,373.832611 150.589905,372.502563 151.733444,371.102203 
	C151.270508,372.324829 150.455978,373.617767 149.323730,375.036682 
z"/>
<path fill="#7EB8C8" opacity="1.000000" stroke="none" 
	d="
M77.089233,314.597504 
	C76.432899,313.827118 75.714828,312.701752 75.003815,311.194916 
	C75.683083,311.956482 76.355293,313.099487 77.089233,314.597504 
z"/>
<path fill="#76B5C2" opacity="1.000000" stroke="none" 
	d="
M153.365234,369.069885 
	C153.825653,368.142487 154.635101,367.151306 155.787201,366.109070 
	C155.324661,367.040741 154.519470,368.023407 153.365234,369.069885 
z"/>
<path fill="#7CB7C6" opacity="1.000000" stroke="none" 
	d="
M169.007477,154.682068 
	C167.870041,154.515610 166.564087,154.037888 165.146973,153.213593 
	C166.303528,153.368271 167.571243,153.869522 169.007477,154.682068 
z"/>
<path fill="#79B8C6" opacity="1.000000" stroke="none" 
	d="
M305.382721,144.077301 
	C305.883698,143.376144 306.711121,142.617996 307.813354,141.943848 
	C307.295166,142.692017 306.502167,143.356171 305.382721,144.077301 
z"/>
<path fill="#7AB7C6" opacity="1.000000" stroke="none" 
	d="
M267.080994,325.619690 
	C266.438751,325.148590 265.744263,324.340271 265.031067,323.176178 
	C265.684509,323.641113 266.356628,324.461792 267.080994,325.619690 
z"/>
<path fill="#7EB8C8" opacity="1.000000" stroke="none" 
	d="
M84.081528,325.629456 
	C83.435616,325.173828 82.742012,324.384521 82.051414,323.244934 
	C82.714226,323.695038 83.374039,324.495392 84.081528,325.629456 
z"/>
<path fill="#7EB8C8" opacity="1.000000" stroke="none" 
	d="
M82.069672,322.632721 
	C81.437920,322.175201 80.752335,321.388275 80.051605,320.253052 
	C80.696259,320.704285 81.356049,321.503784 82.069672,322.632721 
z"/>
<path fill="#7BB7C6" opacity="1.000000" stroke="none" 
	d="
M263.939331,361.365967 
	C264.585846,361.843262 265.273407,362.659302 265.974060,363.832214 
	C265.318237,363.360962 264.649292,362.532837 263.939331,361.365967 
z"/>
<path fill="#81B8C9" opacity="1.000000" stroke="none" 
	d="
M155.017639,170.353088 
	C155.865723,170.516891 156.823227,170.993423 157.870361,171.802673 
	C157.015686,171.645538 156.071365,171.155670 155.017639,170.353088 
z"/>
<path fill="#7EB8C7" opacity="1.000000" stroke="none" 
	d="
M98.047272,130.338531 
	C98.867088,130.517685 99.824242,130.996201 100.869797,131.807556 
	C100.033676,131.639557 99.109138,131.138718 98.047272,130.338531 
z"/>
<path fill="#7FB9C8" opacity="1.000000" stroke="none" 
	d="
M145.064377,140.687775 
	C144.218674,140.511627 143.226715,140.023895 142.137253,139.197388 
	C142.999191,139.364502 143.958664,139.870361 145.064377,140.687775 
z"/>
<path fill="#83BBCB" opacity="1.000000" stroke="none" 
	d="
M136.010376,157.374832 
	C136.753891,157.227280 137.621185,157.385696 138.739517,158.039932 
	C138.979904,158.731827 138.969254,158.927902 138.958618,159.123962 
	C138.017136,158.642899 137.075653,158.161835 136.010376,157.374832 
z"/>
<path fill="#7FB9C8" opacity="1.000000" stroke="none" 
	d="
M151.990631,144.633148 
	C151.154907,144.479080 150.192429,144.013611 149.127319,143.220001 
	C149.971069,143.368484 150.917480,143.845123 151.990631,144.633148 
z"/>
<path fill="#7AB7C6" opacity="1.000000" stroke="none" 
	d="
M278.068726,344.632416 
	C277.431061,344.173553 276.748688,343.379974 276.060211,342.237671 
	C276.710754,342.691833 277.367432,343.494751 278.068726,344.632416 
z"/>
<path fill="#81B8C9" opacity="1.000000" stroke="none" 
	d="
M139.088776,159.396118 
	C138.969254,158.927902 138.979904,158.731827 139.007935,158.241272 
	C139.612747,158.447861 140.200180,158.948959 140.875839,159.738647 
	C140.382370,159.907562 139.800644,159.787903 139.088776,159.396118 
z"/>
<path fill="#7AB7C6" opacity="1.000000" stroke="none" 
	d="
M295.635345,364.083649 
	C296.011414,364.155487 296.011810,364.566620 296.016113,364.771912 
	C295.181213,364.827271 294.342010,364.677277 293.235901,364.343140 
	C293.732391,364.109955 294.495819,364.060883 295.635345,364.083649 
z"/>
<path fill="#81B8C9" opacity="1.000000" stroke="none" 
	d="
M164.027695,176.296661 
	C164.536407,176.435684 165.161041,176.846954 165.883530,177.535095 
	C165.368805,177.397614 164.756210,176.983246 164.027695,176.296661 
z"/>
<path fill="#7AB7C5" opacity="1.000000" stroke="none" 
	d="
M249.292450,183.831223 
	C249.502838,183.257843 250.013031,182.705338 250.817902,182.096756 
	C250.605789,182.644485 250.099030,183.248306 249.292450,183.831223 
z"/>
<path fill="#7AB7C6" opacity="1.000000" stroke="none" 
	d="
M282.069824,350.692200 
	C281.787170,350.509369 281.462006,350.003601 281.092712,349.192719 
	C281.374817,349.381500 281.701080,349.875397 282.069824,350.692200 
z"/>
<path fill="#7BB7C6" opacity="1.000000" stroke="none" 
	d="
M244.928467,334.305420 
	C245.209625,334.492554 245.536072,335.003265 245.899185,335.822327 
	C245.615143,335.630096 245.294449,335.129547 244.928467,334.305420 
z"/>
<path fill="#7EB8C8" opacity="1.000000" stroke="none" 
	d="
M94.141403,338.663696 
	C93.866432,338.473114 93.488701,337.964111 93.059387,337.133087 
	C93.351418,337.322479 93.695030,337.833893 94.141403,338.663696 
z"/>
<path fill="#7BB7C6" opacity="1.000000" stroke="none" 
	d="
M249.920532,342.315796 
	C250.217453,342.507538 250.558884,343.034180 250.942780,343.879761 
	C250.645157,343.682709 250.305099,343.166748 249.920532,342.315796 
z"/>
<path fill="#79B6C6" opacity="1.000000" stroke="none" 
	d="
M146.327026,378.949463 
	C146.244202,378.524597 146.454254,377.969666 146.874908,377.200134 
	C146.930328,377.596802 146.775131,378.208130 146.327026,378.949463 
z"/>
<path fill="#7AB7C6" opacity="1.000000" stroke="none" 
	d="
M281.075012,348.693542 
	C280.795410,348.506165 280.466736,347.997253 280.100098,347.180969 
	C280.383392,347.373016 280.704651,347.872528 281.075012,348.693542 
z"/>
<path fill="#7BB7C6" opacity="1.000000" stroke="none" 
	d="
M256.957245,352.293396 
	C257.167297,352.232941 257.436188,352.456726 257.848389,352.902283 
	C257.666473,352.941895 257.341278,352.759796 256.957245,352.293396 
z"/>
<path fill="#7EB8C7" opacity="1.000000" stroke="none" 
	d="
M101.910599,114.771057 
	C101.585152,114.947472 101.349411,114.765266 101.041588,114.331467 
	C101.267807,114.249352 101.611404,114.360199 101.910599,114.771057 
z"/>
<path fill="#7EB8C8" opacity="1.000000" stroke="none" 
	d="
M92.087677,335.714874 
	C91.905777,335.757904 91.613976,335.529449 91.165871,335.069061 
	C91.332298,335.039215 91.655037,335.241302 92.087677,335.714874 
z"/>
<path fill="#76B5C2" opacity="1.000000" stroke="none" 
	d="
M165.285034,353.057587 
	C165.239594,352.867889 165.469254,352.596313 165.921631,352.176636 
	C165.949631,352.344269 165.754868,352.659973 165.285034,353.057587 
z"/>
<path fill="#7AB7C6" opacity="1.000000" stroke="none" 
	d="
M283.048126,351.711548 
	C282.847473,351.768158 282.573761,351.544006 282.150665,351.098389 
	C282.325867,351.061554 282.650482,351.246185 283.048126,351.711548 
z"/>
<path fill="#79B6C6" opacity="1.000000" stroke="none" 
	d="
M141.269196,384.019165 
	C141.231094,383.840302 141.463699,383.576508 141.906952,383.152985 
	C141.925034,383.306946 141.732452,383.620605 141.269196,384.019165 
z"/>
<path fill="#8ABED1" opacity="1.000000" stroke="none" 
	d="
M189.293015,83.829880 
	C189.243423,83.590393 189.482788,83.408096 189.933044,83.127060 
	C189.928787,83.278015 189.741455,83.564262 189.293015,83.829880 
z"/>
<path fill="#7BB7C6" opacity="1.000000" stroke="none" 
	d="
M268.977783,368.273926 
	C269.174011,368.220123 269.439911,368.442139 269.852905,368.879211 
	C269.682495,368.912750 269.364960,368.731262 268.977783,368.273926 
z"/>
<path fill="#7BB7C6" opacity="1.000000" stroke="none" 
	d="
M262.991730,360.266479 
	C263.174744,360.222870 263.436279,360.449463 263.853455,360.885132 
	C263.696136,360.908386 263.383179,360.722534 262.991730,360.266479 
z"/>
<path fill="#79B6C6" opacity="1.000000" stroke="none" 
	d="
M142.275818,383.041016 
	C142.230042,382.853851 142.459412,382.582336 142.905457,382.154297 
	C142.931747,382.317383 142.741348,382.636993 142.275818,383.041016 
z"/>
<path fill="#7AB7C6" opacity="1.000000" stroke="none" 
	d="
M292.064575,363.709595 
	C291.884521,363.754578 291.602570,363.529388 291.157898,363.085632 
	C291.317688,363.057861 291.640137,363.248657 292.064575,363.709595 
z"/>
<path fill="#79B6C6" opacity="1.000000" stroke="none" 
	d="
M143.275421,382.040588 
	C143.227158,381.852814 143.453751,381.581451 143.895508,381.153259 
	C143.923859,381.316620 143.737061,381.636810 143.275421,382.040588 
z"/>
<path fill="#79B6C6" opacity="1.000000" stroke="none" 
	d="
M144.265106,381.023346 
	C144.221588,380.843109 144.446609,380.578186 144.881897,380.156799 
	C144.905991,380.313110 144.719803,380.625854 144.265106,381.023346 
z"/>
<path fill="#79B6C6" opacity="1.000000" stroke="none" 
	d="
M145.257263,380.002563 
	C145.225113,379.834656 145.453857,379.577179 145.888184,379.161743 
	C145.901886,379.306854 145.710037,379.609894 145.257263,380.002563 
z"/>
<path fill="#7BB7C6" opacity="1.000000" stroke="none" 
	d="
M266.122925,365.213562 
	C266.397125,365.150452 266.597595,365.397949 266.875183,365.885468 
	C266.689789,365.893829 266.388763,365.693390 266.122925,365.213562 
z"/>
<path fill="#79B6C6" opacity="1.000000" stroke="none" 
	d="
M147.286087,377.038086 
	C147.235092,376.830414 147.468475,376.558960 147.934799,376.149689 
	C147.968643,376.332703 147.769547,376.653503 147.286087,377.038086 
z"/>
<path fill="#7BB7C6" opacity="1.000000" stroke="none" 
	d="
M266.955475,366.285370 
	C267.161255,366.220490 267.436676,366.435455 267.854828,366.872192 
	C267.673401,366.917694 267.349243,366.741455 266.955475,366.285370 
z"/>
<path fill="#79B6C6" opacity="1.000000" stroke="none" 
	d="
M152.281418,370.999817 
	C152.128448,370.786407 152.287262,370.508606 152.658798,370.083130 
	C152.736343,370.244568 152.643570,370.577850 152.281418,370.999817 
z"/>
<path fill="#7BB7C6" opacity="1.000000" stroke="none" 
	d="
M267.992767,367.268036 
	C268.177460,367.221924 268.439484,367.444916 268.853241,367.877869 
	C268.693359,367.904236 268.381714,367.720673 267.992767,367.268036 
z"/>
<path fill="#7EB8C8" opacity="1.000000" stroke="none" 
	d="
M74.860840,309.758606 
	C74.601067,309.819489 74.410172,309.583649 74.141083,309.121277 
	C74.314919,309.113708 74.603851,309.302734 74.860840,309.758606 
z"/>
<path fill="#7AB7C5" opacity="1.000000" stroke="none" 
	d="
M267.172852,170.918396 
	C267.134399,170.656113 267.393158,170.440475 267.882690,170.119385 
	C267.899048,170.330963 267.684570,170.648010 267.172852,170.918396 
z"/>
<path fill="#7AB7C5" opacity="1.000000" stroke="none" 
	d="
M264.282654,173.035690 
	C264.241180,172.838226 264.480194,172.563141 264.957336,172.148575 
	C264.984680,172.325409 264.773895,172.641739 264.282654,173.035690 
z"/>
<path fill="#7CB7C6" opacity="1.000000" stroke="none" 
	d="
M172.057678,156.718750 
	C171.877060,156.770676 171.598587,156.555161 171.159988,156.128860 
	C171.319855,156.095810 171.639832,156.273544 172.057678,156.718750 
z"/>
<path fill="#83BBCB" opacity="1.000000" stroke="none" 
	d="
M134.966660,156.275955 
	C135.171432,156.213486 135.443726,156.429840 135.857513,156.867218 
	C135.677399,156.910416 135.355804,156.732605 134.966660,156.275955 
z"/>
<path fill="#7CB7C6" opacity="1.000000" stroke="none" 
	d="
M171.040222,155.678223 
	C170.826843,155.812546 170.522476,155.655121 170.040009,155.308411 
	C170.224350,155.208221 170.586777,155.297348 171.040222,155.678223 
z"/>
<path fill="#7AB7C5" opacity="1.000000" stroke="none" 
	d="
M291.268982,154.013428 
	C291.224304,153.830475 291.449890,153.567856 291.884216,153.148026 
	C291.908386,153.305130 291.723816,153.619446 291.268982,154.013428 
z"/>
<path fill="#65ADC0" opacity="1.000000" stroke="none" 
	d="
M279.756775,181.138351 
	C280.022095,181.167770 280.009003,181.580734 280.008423,181.787018 
	C279.827240,181.993835 279.646576,181.994354 279.194977,181.983490 
	C279.113159,181.684387 279.302307,181.396667 279.756775,181.138351 
z"/>
<path fill="#7CB7C6" opacity="1.000000" stroke="none" 
	d="
M165.040894,152.726776 
	C164.846207,152.783127 164.576874,152.562927 164.155975,152.129700 
	C164.325027,152.094528 164.645645,152.272354 165.040894,152.726776 
z"/>
<path fill="#7CB7C6" opacity="1.000000" stroke="none" 
	d="
M159.053345,148.697693 
	C158.837677,148.850983 158.549927,148.687302 158.108093,148.308426 
	C158.274628,148.227417 158.617050,148.323242 159.053345,148.697693 
z"/>
<path fill="#7CB7C6" opacity="1.000000" stroke="none" 
	d="
M157.074005,147.710907 
	C156.878601,147.831375 156.571869,147.668411 156.079422,147.320160 
	C156.250031,147.232407 156.606354,147.329941 157.074005,147.710907 
z"/>
<path fill="#7CB7C6" opacity="1.000000" stroke="none" 
	d="
M155.080505,146.707520 
	C154.887314,146.824478 154.590042,146.661621 154.114105,146.316284 
	C154.282425,146.231766 154.629425,146.329742 155.080505,146.707520 
z"/>
<path fill="#7FB9C8" opacity="1.000000" stroke="none" 
	d="
M153.039825,145.720703 
	C152.860550,145.765732 152.585907,145.542252 152.150375,145.107269 
	C152.307800,145.081253 152.626129,145.266724 153.039825,145.720703 
z"/>
<path fill="#7FB9C8" opacity="1.000000" stroke="none" 
	d="
M149.013794,142.725250 
	C148.812164,142.852921 148.536163,142.683990 148.101913,142.317841 
	C148.259109,142.250198 148.591034,142.352875 149.013794,142.725250 
z"/>
<path fill="#7FB9C8" opacity="1.000000" stroke="none" 
	d="
M147.099915,141.703003 
	C146.897507,141.832352 146.566162,141.671448 146.039154,141.312012 
	C146.219330,141.213226 146.595154,141.312988 147.099915,141.703003 
z"/>
<path fill="#7AB7C6" opacity="1.000000" stroke="none" 
	d="
M280.054962,346.711945 
	C279.851349,346.770294 279.575592,346.545990 279.151978,346.098328 
	C279.330383,346.059784 279.656586,346.244537 280.054962,346.711945 
z"/>
<path fill="#7FB9C8" opacity="1.000000" stroke="none" 
	d="
M142.041199,138.702271 
	C141.814407,138.867859 141.527802,138.706711 141.095215,138.321869 
	C141.269028,138.233795 141.613083,138.326248 142.041199,138.702271 
z"/>
<path fill="#7AB7C6" opacity="1.000000" stroke="none" 
	d="
M264.947754,321.811523 
	C264.671844,321.849945 264.450592,321.583252 264.125458,321.076599 
	C264.348511,321.059875 264.675476,321.283142 264.947754,321.811523 
z"/>
<path fill="#7EB8C8" opacity="1.000000" stroke="none" 
	d="
M85.021202,326.726349 
	C84.830551,326.773865 84.566940,326.544739 84.146606,326.103455 
	C84.309334,326.077454 84.628792,326.263580 85.021202,326.726349 
z"/>
<path fill="#7AB7C6" opacity="1.000000" stroke="none" 
	d="
M267.902771,326.770264 
	C267.597748,326.850494 267.389801,326.602539 267.123474,326.093689 
	C267.326477,326.077972 267.638062,326.281067 267.902771,326.770264 
z"/>
<path fill="#7FB9C8" opacity="1.000000" stroke="none" 
	d="
M140.036987,137.726837 
	C139.860382,137.773315 139.587219,137.554398 139.152756,137.127563 
	C139.307800,137.100235 139.624115,137.280823 140.036987,137.726837 
z"/>
<path fill="#7FB9C8" opacity="1.000000" stroke="none" 
	d="
M139.002914,136.705719 
	C138.797592,136.827072 138.502411,136.666321 138.030548,136.321625 
	C138.206924,136.233002 138.559998,136.328293 139.002914,136.705719 
z"/>
<path fill="#86BECF" opacity="1.000000" stroke="none" 
	d="
M235.237152,333.007935 
	C235.168762,332.856689 235.337036,332.615967 235.647888,332.209106 
	C235.690292,332.338562 235.584747,332.630402 235.237152,333.007935 
z"/>
<path fill="#7EB8C8" opacity="1.000000" stroke="none" 
	d="
M90.038620,333.720581 
	C89.857101,333.767365 89.583374,333.544220 89.149109,333.109070 
	C89.307846,333.081604 89.627129,333.266144 90.038620,333.720581 
z"/>
<path fill="#7FB9C8" opacity="1.000000" stroke="none" 
	d="
M136.052322,135.724701 
	C135.868149,135.776398 135.589615,135.557236 135.152267,135.124191 
	C135.314957,135.091492 135.636459,135.272659 136.052322,135.724701 
z"/>
<path fill="#7FB9C8" opacity="1.000000" stroke="none" 
	d="
M135.031097,134.702286 
	C134.804489,134.866516 134.518356,134.705109 134.084015,134.322815 
	C134.257645,134.235016 134.602905,134.326599 135.031097,134.702286 
z"/>
<path fill="#7BB7C6" opacity="1.000000" stroke="none" 
	d="
M245.941818,336.289246 
	C246.145737,336.231781 246.424438,336.457092 246.849411,336.910583 
	C246.669327,336.949829 246.342957,336.760895 245.941818,336.289246 
z"/>
<path fill="#7BB7C6" opacity="1.000000" stroke="none" 
	d="
M251.940170,345.279846 
	C252.107635,345.238342 252.389893,345.457458 252.842346,345.884583 
	C252.693344,345.908569 252.374161,345.724487 251.940170,345.279846 
z"/>
<path fill="#7AB7C6" opacity="1.000000" stroke="none" 
	d="
M279.024353,345.725128 
	C278.835297,345.773987 278.569244,345.548737 278.148132,345.110596 
	C278.311188,345.082153 278.629303,345.266571 279.024353,345.725128 
z"/>
<path fill="#7EB8C7" opacity="1.000000" stroke="none" 
	d="
M90.966629,125.266113 
	C91.151054,125.219322 91.419205,125.445969 91.846970,125.881943 
	C91.687836,125.907372 91.369095,125.723465 90.966629,125.266113 
z"/>
<path fill="#65ADC0" opacity="1.000000" stroke="none" 
	d="
M280.346497,182.216431 
	C302.694061,181.986893 325.382690,181.992065 348.540588,182.013550 
	C347.585785,182.350571 346.162506,182.946243 344.737427,182.950607 
	C324.520508,183.012650 304.303375,183.003296 284.086304,182.972519 
	C282.953125,182.970795 281.820435,182.632675 280.346497,182.216431 
z"/>
</svg>