<svg version="1.1" id="Layer_1" xmlns="http://www.w3.org/2000/svg" xmlns:xlink="http://www.w3.org/1999/xlink" x="0px" y="0px"
	 width="100%" viewBox="0 0 421 433" enable-background="new 0 0 421 433" xml:space="preserve">

<path fill="#5AB2CC" opacity="1.000000" stroke="none" 
	d="
M248.992630,183.810333 
	C243.889328,187.722061 243.649200,193.579330 243.027359,199.184265 
	C241.908188,209.271347 241.009247,219.382874 240.024048,229.484756 
	C239.975708,229.980362 240.191299,230.685501 239.932861,230.949966 
	C233.166428,237.874603 238.952148,245.244720 239.135239,252.401810 
	C239.431351,263.976471 239.897614,275.549103 240.002914,287.125214 
	C240.049118,292.203979 239.508026,297.301270 239.014435,302.368835 
	C238.078293,311.979553 236.984177,321.574921 235.727814,331.774078 
	C235.337036,332.615967 235.168762,332.856689 234.995102,333.093658 
	C234.995102,333.093658 234.976349,332.979858 234.799362,333.294220 
	C234.031158,337.530670 233.328888,341.440094 232.879028,345.378326 
	C232.399612,349.575165 232.158920,353.799286 231.814011,358.011475 
	C231.532715,360.918701 231.426025,363.855835 230.934814,366.727142 
	C229.817108,373.260498 228.062805,379.724579 227.520050,386.295532 
	C227.326172,388.642700 229.727722,391.311798 231.211380,393.665863 
	C233.694580,397.605865 236.391937,401.410950 239.087219,405.640198 
	C237.885712,406.647766 236.649078,407.688812 235.298538,407.867065 
	C219.159714,409.997467 203.010147,409.878021 186.879761,407.719971 
	C185.943832,407.594757 185.067703,407.022614 183.976532,406.300598 
	C185.810120,402.146576 186.905838,397.040436 190.042969,394.825073 
	C196.716110,390.112610 195.633041,383.929993 194.825867,377.943604 
	C192.889740,363.584290 190.264679,349.319092 188.022308,334.999542 
	C185.281815,317.498840 183.369293,299.966003 182.669220,282.196808 
	C182.102341,267.808655 182.732758,253.852112 186.434799,239.985977 
	C186.722885,238.906891 186.312454,237.575562 186.013580,236.416443 
	C184.363495,230.016907 182.093979,223.719498 181.095291,217.224319 
	C179.878479,209.310623 179.311493,201.240677 179.207809,193.228668 
	C179.112457,185.861542 173.323013,183.603821 168.914688,179.960800 
	C168.156555,179.334274 167.384186,178.724960 166.202042,177.682953 
	C165.161041,176.846954 164.536407,176.435684 163.911758,176.024414 
	C163.911758,176.024414 163.988052,176.017685 163.828918,175.748688 
	C161.741089,174.340286 159.812363,173.200912 157.883652,172.061523 
	C157.883652,172.061523 157.960388,172.058594 157.870544,171.764282 
	C156.823227,170.993423 155.865723,170.516891 154.908234,170.040344 
	C154.908234,170.040344 154.977356,170.037094 154.908020,169.728516 
	C150.838333,166.945847 146.837982,164.471725 142.837646,161.997604 
	C142.267059,161.522141 141.696472,161.046677 140.956726,160.010635 
	C140.200180,158.948959 139.612747,158.447861 138.756912,157.745422 
	C137.621185,157.385696 136.753891,157.227280 135.886581,157.068878 
	C135.886581,157.068878 135.952637,157.021378 135.834335,156.833801 
	C135.443726,156.429840 135.171432,156.213486 134.899124,155.997116 
	C134.899124,155.997116 134.995071,156.035599 134.920837,155.737625 
	C131.175537,152.951508 127.504478,150.463364 123.833420,147.975220 
	C120.996544,146.240784 118.159668,144.506363 115.097702,142.109009 
	C112.875755,140.324127 110.878891,139.202148 108.882027,138.080170 
	C108.882027,138.080170 108.953590,138.064072 108.905991,137.746964 
	C106.194847,135.639633 103.531311,133.849396 100.867775,132.059174 
	C100.867775,132.059174 100.955147,132.052856 100.868271,131.763794 
	C99.824242,130.996201 98.867088,130.517685 97.909935,130.039154 
	C97.909935,130.039154 97.976921,130.027328 97.918137,129.708466 
	C95.865578,128.281128 93.871803,127.172668 91.878036,126.064209 
	C91.878036,126.064209 91.955986,126.012779 91.821671,125.842697 
	C91.419205,125.445969 91.151054,125.219322 90.882896,124.992668 
	C90.882896,124.992668 91.009842,125.021896 90.876846,124.751648 
	C90.291504,120.007256 94.614227,115.189301 100.145340,114.002823 
	C100.145340,114.002823 100.542572,114.025909 100.850769,114.275177 
	C101.349411,114.765266 101.585152,114.947472 101.866196,115.071053 
	C111.744377,120.755272 121.628235,126.429688 131.488525,132.144775 
	C132.179047,132.544998 132.695160,133.246140 133.774017,134.154770 
	C134.518356,134.705109 134.804489,134.866516 135.114044,134.986404 
	C135.114044,134.986404 135.015640,135.008743 135.163361,135.173401 
	C135.589615,135.557236 135.868149,135.776398 136.146683,135.995544 
	C136.529587,135.998123 136.912491,136.000702 137.751312,136.254425 
	C138.502411,136.666321 138.797592,136.827072 139.092758,136.987839 
	C139.092758,136.987839 139.007965,137.004440 139.161011,137.169968 
	C139.587219,137.554398 139.860382,137.773315 140.133545,137.992233 
	C140.133545,137.992233 140.537109,138.025192 140.901276,138.263794 
	C141.527802,138.706711 141.814407,138.867859 142.125290,138.985825 
	C142.125290,138.985825 142.018005,138.965637 142.126389,139.250885 
	C143.226715,140.023895 144.218674,140.511627 145.210617,140.999359 
	C145.210617,140.999359 145.538406,140.993408 145.886612,141.251984 
	C146.566162,141.671448 146.897507,141.832352 147.228851,141.993256 
	C147.228851,141.993256 147.592896,142.003021 147.934769,142.245590 
	C148.536163,142.683990 148.812164,142.852921 149.104630,142.994980 
	C149.104630,142.994980 149.012573,142.983795 149.121262,143.265961 
	C150.192429,144.013611 151.154907,144.479080 152.117386,144.944550 
	C152.117386,144.944550 152.028763,144.984863 152.170013,145.151825 
	C152.585907,145.542252 152.860550,145.765732 153.135193,145.989212 
	C153.135193,145.989212 153.542496,146.021729 153.917633,146.260254 
	C154.590042,146.661621 154.887314,146.824478 155.184570,146.987335 
	C155.184570,146.987335 155.549362,147.011978 155.907257,147.258713 
	C156.571869,147.668411 156.878601,147.831375 157.185333,147.994354 
	C157.185333,147.994354 157.567795,148.013916 157.925888,148.249588 
	C158.549927,148.687302 158.837677,148.850983 159.147232,148.976318 
	C159.147232,148.976318 159.034119,148.959045 159.128571,149.250244 
	C160.858307,150.332016 162.493591,151.122604 164.128876,151.913177 
	C164.128876,151.913177 164.068436,151.977844 164.187988,152.160278 
	C164.576874,152.562927 164.846207,152.783127 165.115524,153.003342 
	C165.115524,153.003342 165.006973,152.975342 165.132568,153.267761 
	C166.564087,154.037888 167.870041,154.515610 169.175980,154.993332 
	C169.175980,154.993332 169.528687,155.003113 169.873383,155.250412 
	C170.522476,155.655121 170.826843,155.812546 171.131226,155.969955 
	C171.131226,155.969955 171.039551,156.009857 171.179825,156.174744 
	C171.598587,156.555161 171.877060,156.770676 172.155548,156.986206 
	C184.058304,163.775040 195.893799,170.687866 207.935181,177.221222 
	C209.776016,178.220016 213.074127,178.363754 214.836334,177.371796 
	C224.387848,171.995163 233.608292,166.034927 243.061005,160.476776 
	C250.991913,155.813446 259.167664,151.565125 267.077942,146.868469 
	C272.663818,143.551910 277.874084,139.602631 283.460815,136.287659 
	C288.547119,133.269608 294.040039,130.937180 299.128967,127.923058 
	C306.661102,123.461861 314.101929,118.824730 321.362701,113.937309 
	C324.516602,111.814331 326.535736,111.741135 329.347565,114.606163 
	C337.063599,122.468224 336.920410,123.630547 327.265350,129.498184 
	C320.934540,133.345596 314.887909,137.660721 308.126282,141.813110 
	C306.711121,142.617996 305.883698,143.376144 305.056274,144.134293 
	C305.056274,144.134293 305.047882,144.062592 304.734467,144.057953 
	C303.280701,144.703140 302.140350,145.352936 300.654785,146.072327 
	C297.550659,148.462616 294.791748,150.783279 292.032806,153.103958 
	C292.032806,153.103958 292.005890,153.017120 291.840698,153.161163 
	C291.449890,153.567856 291.224304,153.830475 290.998718,154.093109 
	C290.998718,154.093109 291.051117,154.018417 290.710876,154.035095 
	C287.595978,156.079422 284.821320,158.107071 282.046661,160.134735 
	C282.046661,160.134735 282.045776,160.059158 281.714417,160.059631 
	C279.271851,161.750717 277.160706,163.441299 275.049530,165.131897 
	C275.049530,165.131897 275.047607,165.059769 274.712524,165.060486 
	C272.266144,166.746811 270.154785,168.432419 268.043457,170.118027 
	C268.043457,170.118027 268.025360,170.030228 267.838623,170.127533 
	C267.393158,170.440475 267.134399,170.656113 266.875671,170.871735 
	C266.479675,171.196243 266.083679,171.520752 265.203430,172.066666 
	C264.480194,172.563141 264.241180,172.838226 264.002167,173.113312 
	C264.002167,173.113312 264.041138,173.032166 263.701599,173.048065 
	C260.328827,174.356705 256.194855,174.318924 256.054993,179.109085 
	C256.054993,179.109085 256.039368,179.040222 255.703003,179.048035 
	C253.923752,180.076294 252.480850,181.096725 251.037949,182.117172 
	C251.037949,182.117172 251.035736,182.040359 250.779480,182.096603 
	C250.013031,182.705338 249.502838,183.257843 248.992630,183.810333 
z"/>
<path fill="#5AB1CB" opacity="1.000000" stroke="none" 
	d="
M189.031906,83.809250 
	C183.459167,84.993912 177.695435,85.626976 172.352951,87.476669 
	C160.794449,91.478485 149.293808,95.741867 138.090271,100.632988 
	C132.825058,102.931618 128.260223,106.869125 123.457130,110.178810 
	C120.531898,112.194496 118.022591,115.227936 114.823776,116.289536 
	C112.623436,117.019768 109.334732,115.585556 106.938461,114.338600 
	C103.670982,112.638283 100.789978,110.195282 97.386597,108.125725 
	C99.724846,105.588188 102.239639,102.771858 105.141212,100.435974 
	C169.118408,48.931652 265.867798,51.969574 326.798676,107.630554 
	C322.548645,110.528397 318.274841,113.385025 313.689636,115.595848 
	C312.139282,116.343353 309.430267,116.099541 307.883728,115.209251 
	C299.222260,110.223267 290.850098,104.735443 282.199188,99.730064 
	C267.318176,91.119926 250.905136,86.910210 234.208466,83.645187 
	C232.132446,83.239220 229.987579,83.185341 227.251251,82.555305 
	C225.077560,81.765366 223.531998,81.087616 221.976105,81.063026 
	C214.837418,80.950226 207.685944,80.799103 200.559479,81.117722 
	C197.002869,81.276741 193.490036,82.414696 189.957397,83.109848 
	C189.957397,83.109848 189.978409,82.972397 189.864197,83.117371 
	C189.482788,83.408096 189.243423,83.590393 189.031906,83.809250 
z"/>
<path fill="#5BB1CA" opacity="1.000000" stroke="none" 
	d="
M337.267883,354.894653 
	C334.070526,351.575500 331.398376,348.001617 328.277588,344.875702 
	C326.130493,342.725067 326.487701,341.323181 328.210724,339.229645 
	C340.428650,324.384521 350.899780,308.274048 357.039246,290.093567 
	C360.766785,279.055389 365.687531,268.031799 365.122681,255.722656 
	C364.768524,248.004776 366.204437,240.205719 365.864136,232.485977 
	C365.376801,221.429871 364.000671,210.412949 362.951904,198.802170 
	C368.057892,198.802170 373.839478,198.802170 379.871185,198.440201 
	C381.677765,211.543457 384.590210,225.013809 384.539185,238.472946 
	C384.379364,280.641846 369.887299,317.792297 342.479797,349.863068 
	C340.975616,351.623169 339.233276,353.179688 337.267883,354.894653 
z"/>
<path fill="#59B1CA" opacity="1.000000" stroke="none" 
	d="
M56.834381,229.027267 
	C57.230045,237.936722 57.131496,246.904144 58.167637,255.738480 
	C59.105682,263.736450 60.697021,271.768768 63.058929,279.460907 
	C66.059601,289.233368 70.127769,298.678070 73.995926,308.791016 
	C74.410172,309.583649 74.601067,309.819489 74.828880,310.025452 
	C74.828880,310.025452 74.982079,310.405060 74.989418,310.990723 
	C75.714828,312.701752 76.432899,313.827118 77.150970,314.952484 
	C77.150970,314.952484 77.072388,314.957947 77.045532,315.301941 
	C78.046875,317.087494 79.075073,318.528992 80.103279,319.970520 
	C80.103279,319.970520 80.033302,319.974823 80.050018,320.288086 
	C80.752335,321.388275 81.437920,322.175201 82.123512,322.962158 
	C82.123512,322.962158 82.052208,322.966034 82.050308,323.280640 
	C82.742012,324.384521 83.435616,325.173828 84.129211,325.963135 
	C84.129219,325.963135 84.023445,325.997314 84.163391,326.156433 
	C84.566940,326.544739 84.830551,326.773865 85.094162,327.003021 
	C85.094162,327.003021 85.015099,326.944916 85.030991,327.275452 
	C86.403984,329.392883 87.761086,331.179840 89.118179,332.966797 
	C89.118179,332.966797 89.018318,332.997101 89.163986,333.159088 
	C89.583374,333.544220 89.857101,333.767365 90.130829,333.990509 
	C90.458588,333.991821 90.710686,334.130615 91.104652,334.853882 
	C91.613976,335.529449 91.905777,335.757904 92.197578,335.986389 
	C92.510452,335.991943 92.748032,336.128479 93.010643,336.925568 
	C93.488701,337.964111 93.866432,338.473114 94.244171,338.982117 
	C97.005249,340.281311 98.165558,341.867645 95.237015,344.253662 
	C92.076332,346.828796 88.936211,349.429138 85.444389,352.126770 
	C83.644150,351.293701 81.848831,350.637512 80.778313,349.369476 
	C49.506126,312.326813 35.676411,269.604980 39.644329,221.279846 
	C40.251202,213.888733 42.120136,206.601227 43.728756,199.059402 
	C49.479740,198.852997 54.907333,198.852997 61.096771,198.852997 
	C60.654701,201.326080 60.308819,203.261032 59.563011,205.762177 
	C56.642593,213.715729 55.156765,221.209229 56.834381,229.027267 
z"/>
<path fill="#5CB2CB" opacity="1.000000" stroke="none" 
	d="
M149.006027,375.162628 
	C148.991699,375.478119 148.850983,375.720123 148.142868,376.088074 
	C147.468475,376.558960 147.235092,376.830414 147.001709,377.101868 
	C147.001709,377.101868 146.985703,377.001984 146.824997,377.208374 
	C146.454254,377.969666 146.244202,378.524597 146.034149,379.079529 
	C146.034134,379.079529 146.023788,379.010071 145.853210,379.164886 
	C145.453857,379.577179 145.225113,379.834656 144.996353,380.092133 
	C144.996353,380.092133 144.998474,379.998444 144.835052,380.155853 
	C144.446609,380.578186 144.221588,380.843109 143.996582,381.108063 
	C143.996597,381.108063 143.997910,380.995331 143.839127,381.152710 
	C143.453751,381.581451 143.227158,381.852814 143.000580,382.124176 
	C143.000580,382.124176 142.998276,382.000305 142.843536,382.155579 
	C142.459412,382.582336 142.230042,382.853851 142.000687,383.125366 
	C142.000687,383.125366 141.993225,383.000977 141.844757,383.156830 
	C141.463699,383.576508 141.231094,383.840302 140.998505,384.104095 
	C140.998489,384.104095 141.015991,384.017029 140.707886,384.097412 
	C139.632507,385.492432 138.865234,386.807068 138.097961,388.121704 
	C138.097961,388.121704 138.020660,388.029114 137.689789,388.047119 
	C136.130951,388.875824 134.902985,389.686554 133.675018,390.497253 
	C123.317032,383.891266 112.959061,377.285278 102.392807,370.442841 
	C105.470055,366.699799 109.601524,366.076874 114.244270,365.843567 
	C125.750946,365.265381 135.404922,361.526489 141.071121,350.165558 
	C143.966415,344.360474 149.040573,339.676147 152.289719,334.003998 
	C155.564713,328.286682 157.677536,321.915619 160.515335,315.933350 
	C165.887711,304.608063 171.414505,293.355957 177.350372,281.096008 
	C178.421387,282.952972 179.789825,284.254272 179.870743,285.631256 
	C180.703918,299.810242 181.869415,314.009033 181.671204,328.184540 
	C181.614243,332.257690 177.646393,336.398560 175.121567,340.280670 
	C172.553207,344.229706 169.553055,347.897949 166.220444,352.006927 
	C165.469254,352.596313 165.239594,352.867889 165.009949,353.139496 
	C165.009949,353.139496 165.033157,353.034241 164.730804,353.106354 
	C163.308075,355.159973 162.187698,357.141479 161.067322,359.122986 
	C161.067322,359.122986 161.065689,359.051300 160.746887,359.108154 
	C158.974350,361.482910 157.520599,363.800842 156.066833,366.118744 
	C156.066833,366.118744 156.059433,366.048004 155.751984,366.104065 
	C154.635101,367.151306 153.825653,368.142487 153.016205,369.133698 
	C153.016205,369.133698 152.975128,369.535126 152.731812,369.895081 
	C152.287262,370.508606 152.128448,370.786407 152.012039,371.088470 
	C152.012039,371.088470 152.016983,371.019470 151.699402,371.096008 
	C150.589905,372.502563 149.797958,373.832611 149.006027,375.162628 
z"/>
<path fill="#5BB2CB" opacity="1.000000" stroke="none" 
	d="
M267.855896,327.056366 
	C267.855896,327.056366 267.980804,327.437439 268.011414,328.022003 
	C269.064514,330.394623 270.086975,332.182648 271.109467,333.970703 
	C271.109467,333.970703 271.039734,333.978241 271.048431,334.318817 
	C272.747742,337.091400 274.438385,339.523438 276.128998,341.955444 
	C276.128998,341.955444 276.056824,341.961304 276.061584,342.273834 
	C276.748688,343.379974 277.431061,344.173553 278.113403,344.967163 
	C278.113403,344.967163 278.018250,344.993073 278.160706,345.158264 
	C278.569244,345.548737 278.835297,345.773987 279.101318,345.999268 
	C279.101318,345.999268 278.990448,345.985840 279.145142,346.153748 
	C279.575592,346.545990 279.851349,346.770294 280.127106,346.994598 
	C280.127106,346.994598 280.032776,346.967255 280.085388,347.227814 
	C280.466736,347.997253 280.795410,348.506165 281.124115,349.015045 
	C281.124115,349.015045 281.021942,348.989502 281.079407,349.243652 
	C281.462006,350.003601 281.787170,350.509369 282.112305,351.015137 
	C282.112305,351.015137 281.987976,351.001343 282.144043,351.160614 
	C282.573761,351.544006 282.847473,351.768158 283.121155,351.992279 
	C283.121155,351.992279 283.038696,351.947815 283.049622,352.283569 
	C284.415375,354.395660 285.770233,356.171997 287.125061,357.948334 
	C287.125061,357.948334 287.055206,357.958710 287.052765,358.292572 
	C288.411865,360.066681 289.773438,361.506927 291.135010,362.947174 
	C291.135010,362.947174 291.024567,362.977875 291.172577,363.141052 
	C291.602570,363.529388 291.884521,363.754578 292.166504,363.979767 
	C292.166504,363.979767 292.579926,364.014740 293.041382,364.270996 
	C294.342010,364.677277 295.181213,364.827271 296.443573,364.993286 
	C303.648438,365.675049 310.430115,366.340729 317.211792,367.006409 
	C318.151215,367.817749 319.090637,368.629120 320.222229,369.699341 
	C314.900848,374.331421 309.582764,378.986389 303.812927,382.990295 
	C299.046051,386.298218 293.745117,388.836517 288.362305,391.846863 
	C283.687073,386.619385 279.330383,381.260895 274.917175,375.191864 
	C273.198730,372.672272 271.536835,370.863220 269.874969,369.054169 
	C269.874969,369.054169 269.957794,369.010956 269.831787,368.837524 
	C269.439911,368.442139 269.174011,368.220123 268.908112,367.998138 
	C268.908112,367.998138 269.001221,367.994690 268.851349,367.831299 
	C268.439484,367.444916 268.177460,367.221924 267.915436,366.998962 
	C267.915436,366.998962 268.004059,367.005310 267.858093,366.827881 
	C267.436676,366.435455 267.161255,366.220490 266.885834,366.005493 
	C266.885834,366.005493 266.982849,365.997192 266.871185,365.836945 
	C266.597595,365.397949 266.397125,365.150452 266.158112,364.934174 
	C266.158112,364.934174 266.011841,364.575592 265.986389,364.025452 
	C265.273407,362.659302 264.585846,361.843262 263.898285,361.027252 
	C263.898285,361.027252 263.987366,361.005005 263.842590,360.840515 
	C263.436279,360.449463 263.174744,360.222870 262.913239,359.996307 
	C262.913239,359.996307 262.982422,360.038239 262.968628,359.701965 
	C261.251526,357.269196 259.548157,355.172699 257.844818,353.076233 
	C257.844818,353.076233 257.942566,353.025360 257.823822,352.852936 
	C257.436188,352.456726 257.167297,352.232941 256.898407,352.009125 
	C256.898407,352.009125 256.965485,352.062836 256.955139,351.726685 
	C255.592209,349.606506 254.239639,347.822479 252.887085,346.038452 
	C252.887085,346.038452 252.977051,346.002472 252.824615,345.839508 
	C252.389893,345.457458 252.107635,345.238342 251.825363,345.019257 
	C251.507492,345.020355 251.263947,344.886353 250.997513,344.089081 
	C250.558884,343.034180 250.217453,342.507538 249.876007,341.980865 
	C249.876007,341.980865 249.975861,342.011597 249.973495,341.676086 
	C248.931946,339.913177 247.892776,338.485809 246.853607,337.058411 
	C246.853607,337.058411 246.965469,337.026367 246.834305,336.854370 
	C246.424438,336.457092 246.145737,336.231781 245.867035,336.006470 
	C245.867035,336.006470 245.964905,336.033386 245.913727,335.773682 
	C245.536072,335.003265 245.209625,334.492554 244.883163,333.981842 
	C244.883163,333.981842 244.989960,334.024994 244.929718,333.706970 
	C244.031906,330.778137 242.437195,328.151245 242.492493,325.559509 
	C242.693497,316.137299 243.503403,306.729553 243.941177,297.309723 
	C244.022842,295.552185 243.446884,293.764130 243.174423,291.990143 
	C243.525665,288.963013 241.177643,285.054901 245.181015,283.441101 
	C245.800537,283.191345 248.738541,287.613708 249.980240,290.177734 
	C254.780869,300.090668 259.328766,310.126007 264.100098,320.716187 
	C264.450592,321.583252 264.671844,321.849945 264.893097,322.116638 
	C264.893097,322.116638 265.002655,322.460052 265.026184,322.996002 
	C265.744263,324.340271 266.438751,325.148590 267.133270,325.956909 
	C267.133270,325.956909 267.032288,325.976166 267.132172,326.144348 
	C267.389801,326.602539 267.597748,326.850494 267.855896,327.056366 
z"/>
<path fill="#5DB2CA" opacity="1.000000" stroke="none" 
	d="
M374.031982,177.775909 
	C369.277618,178.451767 364.531586,178.567047 359.826355,179.066650 
	C356.056091,179.466980 353.925201,177.759491 352.784363,174.482407 
	C347.858765,160.333481 338.952118,148.675858 329.727234,137.179611 
	C327.490173,134.391724 326.772858,131.746140 331.275513,129.667847 
	C334.590576,128.137711 337.327881,125.355934 340.638428,122.959808 
	C346.230499,129.290543 352.411926,135.266434 356.574829,142.417389 
	C363.117310,153.655930 368.299652,165.686249 374.031982,177.775909 
z"/>
<path fill="#5BB1CA" opacity="1.000000" stroke="none" 
	d="
M82.792709,122.078918 
	C86.307129,124.751968 89.246353,127.866463 92.733208,130.141678 
	C95.880432,132.195282 96.020302,133.907028 93.933029,136.678329 
	C85.248909,148.208389 75.854561,159.271835 70.866798,173.185623 
	C69.767372,176.252594 67.591576,178.589752 63.400375,178.094620 
	C59.297070,177.609863 55.091778,177.988434 50.462936,178.003845 
	C51.885498,172.751617 53.409977,167.315414 55.736473,162.247391 
	C62.509640,147.492706 71.309082,134.025726 82.792709,122.078918 
z"/>
<path fill="#79B6C6" opacity="1.000000" stroke="none" 
	d="
M133.851852,390.703857 
	C134.902985,389.686554 136.130951,388.875824 137.740112,388.080322 
	C137.419922,389.172150 136.718521,390.248749 135.939194,391.653259 
	C135.250397,391.624268 134.639542,391.267334 133.851852,390.703857 
z"/>
<path fill="#5DB2CA" opacity="1.000000" stroke="none" 
	d="
M131.016953,180.147369 
	C137.461807,180.425034 143.905807,180.725388 150.351990,180.967728 
	C152.510635,181.048859 154.674835,180.982132 156.836502,180.982742 
	C164.189102,180.984833 169.830658,186.878357 169.051270,194.759659 
	C131.001068,194.945694 93.763901,194.952896 56.526840,195.020157 
	C54.755196,195.023346 52.984509,195.558365 51.213371,195.845718 
	C45.427559,194.579285 48.943558,189.927643 47.998837,186.469208 
	C48.035305,186.025772 48.005417,185.998047 48.017937,186.010986 
	C49.408432,184.353592 50.786415,182.683243 52.995411,181.037842 
	C72.815300,181.085602 91.804672,181.194626 110.792786,181.084961 
	C117.535759,181.046036 124.275650,180.475327 131.016953,180.147369 
z"/>
<path fill="#5CB2CB" opacity="1.000000" stroke="none" 
	d="
M222.261078,167.283768 
	C217.066818,171.313766 211.415344,172.231995 205.805023,170.201019 
	C200.090469,168.132309 195.901505,163.089539 194.545074,157.735580 
	C191.798340,146.894211 191.542480,135.624420 198.172226,125.710144 
	C201.420471,120.852608 206.102798,116.826836 212.492538,118.143494 
	C218.411011,119.363060 222.927216,123.224030 226.059814,128.566849 
	C231.889313,138.509338 230.515030,148.932632 227.791931,159.245209 
	C227.039902,162.093231 224.330170,164.424332 222.261078,167.283768 
z"/>
<path fill="#57B2CD" opacity="1.000000" stroke="none" 
	d="
M277.991333,182.193115 
	C277.991333,182.193115 278.448059,182.042053 278.957001,182.018463 
	C279.646576,181.994354 279.827240,181.993835 280.002686,181.994553 
	C279.997498,181.995789 280.005463,181.981735 280.346497,182.216431 
	C281.820435,182.632675 282.953125,182.970795 284.086304,182.972519 
	C304.303375,183.003296 324.520508,183.012650 344.737427,182.950607 
	C346.162506,182.946243 347.585785,182.350571 349.477783,182.023682 
	C356.611481,182.043655 363.277283,182.069809 370.031616,182.465698 
	C374.270813,193.900101 372.177399,194.166733 362.744446,194.096085 
	C329.455963,193.846756 296.164520,194.000595 262.874176,193.993851 
	C261.377777,193.993546 259.699097,194.320648 258.442261,193.751389 
	C257.425262,193.290741 256.265442,191.688263 256.299225,190.628296 
	C256.417603,186.914536 260.837402,183.165833 264.651978,182.986618 
	C269.101044,182.777588 273.545105,182.462296 277.991333,182.193115 
z"/>
<path fill="#65ADC0" opacity="1.000000" stroke="none" 
	d="
M277.528748,182.115967 
	C273.545105,182.462296 269.101044,182.777588 264.651978,182.986618 
	C260.837402,183.165833 256.417603,186.914536 256.299225,190.628296 
	C256.265442,191.688263 257.425262,193.290741 258.442261,193.751389 
	C259.699097,194.320648 261.377777,193.993546 262.874176,193.993851 
	C296.164520,194.000595 329.455963,193.846756 362.744446,194.096085 
	C372.177399,194.166733 374.270813,193.900101 370.330933,182.430878 
	C370.741730,182.013641 370.941742,182.000946 371.141785,181.988235 
	C374.330383,185.618927 375.546387,189.821289 373.969025,194.809082 
	C348.752411,195.063980 324.361664,195.103622 299.506042,195.103455 
	C283.764526,194.988892 268.487854,194.914124 253.211197,194.839355 
	C252.623489,187.220749 257.279755,182.002640 264.671234,182.007401 
	C268.802887,182.010071 272.934540,182.027847 277.528748,182.115967 
z"/>
<path fill="#BDEEF2" opacity="1.000000" stroke="none" 
	d="
M51.660294,195.898041 
	C52.984509,195.558365 54.755196,195.023346 56.526840,195.020157 
	C93.763901,194.952896 131.001068,194.945694 168.724274,194.935120 
	C167.880798,195.301407 166.551544,195.970734 165.221680,195.971924 
	C127.516891,196.005951 89.812050,195.972656 51.660294,195.898041 
z"/>
<path fill="#8ABFCC" opacity="1.000000" stroke="none" 
	d="
M370.906097,181.611664 
	C370.941742,182.000946 370.741730,182.013641 370.242432,182.061157 
	C363.277283,182.069809 356.611481,182.043655 349.008484,182.007370 
	C325.382690,181.992065 302.694061,181.986893 280.005463,181.981735 
	C280.005463,181.981735 279.997498,181.995789 280.003235,181.788269 
	C280.009003,181.580734 280.022095,181.167770 280.022095,181.167770 
	C310.238190,181.190216 340.454315,181.212662 370.906097,181.611664 
z"/>
<path fill="#7BB7C6" opacity="1.000000" stroke="none" 
	d="
M243.088684,292.410278 
	C243.446884,293.764130 244.022842,295.552185 243.941177,297.309723 
	C243.503403,306.729553 242.693497,316.137299 242.492493,325.559509 
	C242.437195,328.151245 244.031906,330.778137 244.907715,333.760193 
	C243.625824,332.352234 241.171005,330.573395 241.170380,328.793732 
	C241.166397,317.551941 241.689880,306.309387 242.104065,295.069458 
	C242.131927,294.313110 242.690964,293.576324 243.088684,292.410278 
z"/>
<path fill="#CAECFC" opacity="1.000000" stroke="none" 
	d="
M130.548981,180.076416 
	C124.275650,180.475327 117.535759,181.046036 110.792786,181.084961 
	C91.804672,181.194626 72.815300,181.085602 53.347816,181.057892 
	C54.341064,180.702988 55.812153,180.051682 57.284901,180.047897 
	C81.550156,179.985504 105.815613,180.004623 130.548981,180.076416 
z"/>
<path fill="#9BCFDD" opacity="1.000000" stroke="none" 
	d="
M299.970886,195.143265 
	C324.361664,195.103622 348.752411,195.063980 373.618835,195.007126 
	C372.426941,195.323608 370.760162,195.943329 369.091766,195.947784 
	C346.367371,196.008636 323.642731,195.984344 300.450165,195.733826 
	C299.982178,195.486603 299.970886,195.143265 299.970886,195.143265 
z"/>
<path fill="#8ABED1" opacity="1.000000" stroke="none" 
	d="
M190.430557,83.062302 
	C193.490036,82.414696 197.002869,81.276741 200.559479,81.117722 
	C207.685944,80.799103 214.837418,80.950226 221.976105,81.063026 
	C223.531998,81.087616 225.077560,81.765366 226.816742,82.472549 
	C214.971634,82.873459 202.937683,82.944107 190.430557,83.062302 
z"/>
<path fill="#A6D4E4" opacity="1.000000" stroke="none" 
	d="
M299.506042,195.103455 
	C299.970886,195.143265 299.982178,195.486603 299.986267,195.658325 
	C284.471283,195.787933 268.952209,195.745819 253.322159,195.271530 
	C268.487854,194.914124 283.764526,194.988892 299.506042,195.103455 
z"/>
<path fill="#86BECF" opacity="1.000000" stroke="none" 
	d="
M231.999573,357.642395 
	C232.158920,353.799286 232.399612,349.575165 232.879028,345.378326 
	C233.328888,341.440094 234.031158,337.530670 234.856155,333.284119 
	C234.121674,341.064209 233.153397,349.168732 231.999573,357.642395 
z"/>
<path fill="#82BECB" opacity="1.000000" stroke="none" 
	d="
M56.908825,228.597641 
	C55.156765,221.209229 56.642593,213.715729 59.483974,206.168427 
	C59.210957,210.504364 58.604637,214.998688 58.027607,219.496750 
	C57.657177,222.384293 57.329891,225.277405 56.908825,228.597641 
z"/>
<path fill="#7EB8C7" opacity="1.000000" stroke="none" 
	d="
M99.988174,113.685272 
	C94.614227,115.189301 90.291504,120.007256 90.862152,124.815094 
	C89.992783,124.441940 89.005112,123.735077 88.017441,123.028214 
	C90.387505,119.802040 92.565285,116.399315 95.256607,113.468117 
	C95.970734,112.690331 98.263214,113.361717 99.988174,113.685272 
z"/>
<path fill="#86BDD1" opacity="1.000000" stroke="none" 
	d="
M316.991821,366.644501 
	C310.430115,366.340729 303.648438,365.675049 296.439270,364.787994 
	C296.011810,364.566620 296.011414,364.155487 296.011414,364.155457 
	C302.931549,364.864502 309.851715,365.573547 316.991821,366.644501 
z"/>
<path fill="#81B8C9" opacity="1.000000" stroke="none" 
	d="
M142.978775,162.325714 
	C146.837982,164.471725 150.838333,166.945847 154.903564,169.762848 
	C151.018921,167.621765 147.069412,165.137802 142.978775,162.325714 
z"/>
<path fill="#83BBCB" opacity="1.000000" stroke="none" 
	d="
M123.902878,148.338821 
	C127.504478,150.463364 131.175537,152.951508 134.901184,155.785431 
	C131.294617,153.654953 127.633469,151.178680 123.902878,148.338821 
z"/>
<path fill="#7AB7C5" opacity="1.000000" stroke="none" 
	d="
M292.395996,153.057602 
	C294.791748,150.783279 297.550659,148.462616 300.674561,146.369812 
	C301.053802,146.795944 301.068085,146.994186 301.082367,147.192444 
	C298.307983,149.132050 295.533569,151.071655 292.395996,153.057602 
z"/>
<path fill="#7EB8C7" opacity="1.000000" stroke="none" 
	d="
M100.918343,132.423248 
	C103.531311,133.849396 106.194847,135.639633 108.896774,137.782471 
	C106.279747,136.352478 103.624329,134.569901 100.918343,132.423248 
z"/>
<path fill="#7AB7C5" opacity="1.000000" stroke="none" 
	d="
M282.408081,160.086182 
	C284.821320,158.107071 287.595978,156.079422 290.747864,154.061829 
	C288.339874,156.060486 285.554688,158.049072 282.408081,160.086182 
z"/>
<path fill="#7AB7C6" opacity="1.000000" stroke="none" 
	d="
M276.074219,341.592590 
	C274.438385,339.523438 272.747742,337.091400 271.048401,334.283752 
	C272.699615,336.348633 274.359528,338.789154 276.074219,341.592590 
z"/>
<path fill="#7AB7C5" opacity="1.000000" stroke="none" 
	d="
M256.377441,178.976700 
	C256.194855,174.318924 260.328827,174.356705 263.741760,173.068481 
	C261.647552,174.996750 259.173737,176.920532 256.377441,178.976700 
z"/>
<path fill="#7BB7C6" opacity="1.000000" stroke="none" 
	d="
M257.893555,353.431946 
	C259.548157,355.172699 261.251526,357.269196 262.947144,359.736206 
	C261.273712,358.000427 259.608002,355.894043 257.893555,353.431946 
z"/>
<path fill="#7AB7C5" opacity="1.000000" stroke="none" 
	d="
M268.394653,170.057281 
	C270.154785,168.432419 272.266144,166.746811 274.748596,165.062195 
	C272.995087,166.707657 270.870453,168.352097 268.394653,170.057281 
z"/>
<path fill="#7AB7C5" opacity="1.000000" stroke="none" 
	d="
M275.396942,165.057312 
	C277.160706,163.441299 279.271851,161.750717 281.752197,160.060944 
	C279.995667,161.702103 277.870026,163.342407 275.396942,165.057312 
z"/>
<path fill="#7BB7C6" opacity="1.000000" stroke="none" 
	d="
M269.920197,369.415466 
	C271.536835,370.863220 273.198730,372.672272 274.920166,374.838287 
	C273.308289,373.389069 271.636841,371.582916 269.920197,369.415466 
z"/>
<path fill="#76B5C2" opacity="1.000000" stroke="none" 
	d="
M156.384140,365.982117 
	C157.520599,363.800842 158.974350,361.482910 160.782440,359.112793 
	C159.658310,361.322266 158.179871,363.583862 156.384140,365.982117 
z"/>
<path fill="#76B5C2" opacity="1.000000" stroke="none" 
	d="
M161.387527,358.993561 
	C162.187698,357.141479 163.308075,355.159973 164.783203,353.119019 
	C163.994553,354.994446 162.851135,356.929291 161.387527,358.993561 
z"/>
<path fill="#7EB8C7" opacity="1.000000" stroke="none" 
	d="
M109.009697,138.401672 
	C110.878891,139.202148 112.875755,140.324127 114.931236,141.812134 
	C113.039024,141.026505 111.088196,139.874832 109.009697,138.401672 
z"/>
<path fill="#7EB8C7" opacity="1.000000" stroke="none" 
	d="
M92.008804,126.385223 
	C93.871803,127.172668 95.865578,128.281128 97.915604,129.742371 
	C96.027763,128.965515 94.083672,127.835876 92.008804,126.385223 
z"/>
<path fill="#7AB7C6" opacity="1.000000" stroke="none" 
	d="
M287.072662,357.598633 
	C285.770233,356.171997 284.415375,354.395660 283.072876,352.242920 
	C284.396912,353.660645 285.708588,355.454803 287.072662,357.598633 
z"/>
<path fill="#7BB7C6" opacity="1.000000" stroke="none" 
	d="
M252.930832,346.392426 
	C254.239639,347.822479 255.592209,349.606506 256.927551,351.759644 
	C255.598404,350.334595 254.286499,348.540497 252.930832,346.392426 
z"/>
<path fill="#81B8C9" opacity="1.000000" stroke="none" 
	d="
M158.008667,172.387024 
	C159.812363,173.200912 161.741089,174.340286 163.831787,175.786865 
	C162.040421,174.966888 160.087051,173.839706 158.008667,172.387024 
z"/>
<path fill="#7EB8C8" opacity="1.000000" stroke="none" 
	d="
M89.070282,332.610718 
	C87.761086,331.179840 86.403984,329.392883 85.060471,327.236237 
	C86.390160,328.662567 87.706268,330.458588 89.070282,332.610718 
z"/>
<path fill="#7AB7C6" opacity="1.000000" stroke="none" 
	d="
M291.081573,362.605957 
	C289.773438,361.506927 288.411865,360.066681 287.056152,358.257446 
	C288.384033,359.347198 289.706085,360.805939 291.081573,362.605957 
z"/>
<path fill="#7AB7C6" opacity="1.000000" stroke="none" 
	d="
M271.059418,333.603638 
	C270.086975,332.182648 269.064514,330.394623 268.031982,328.221436 
	C269.017761,329.636414 270.013550,331.436462 271.059418,333.603638 
z"/>
<path fill="#7BB7C6" opacity="1.000000" stroke="none" 
	d="
M246.909149,337.406982 
	C247.892776,338.485809 248.931946,339.913177 249.957520,341.725800 
	C248.950851,340.659210 247.957779,339.207367 246.909149,337.406982 
z"/>
<path fill="#7EB8C8" opacity="1.000000" stroke="none" 
	d="
M80.053177,319.620514 
	C79.075073,318.528992 78.046875,317.087494 77.044647,315.262573 
	C78.048111,316.342987 79.025597,317.806732 80.053177,319.620514 
z"/>
<path fill="#7AB7C5" opacity="1.000000" stroke="none" 
	d="
M251.386200,182.065857 
	C252.480850,181.096725 253.923752,180.076294 255.737457,179.055725 
	C254.650330,180.041931 253.192383,181.028244 251.386200,182.065857 
z"/>
<path fill="#7CB7C6" opacity="1.000000" stroke="none" 
	d="
M163.999146,151.594925 
	C162.493591,151.122604 160.858307,150.332016 159.138397,149.193878 
	C160.658997,149.656448 162.264221,150.466568 163.999146,151.594925 
z"/>
<path fill="#79B8C6" opacity="1.000000" stroke="none" 
	d="
M301.410736,147.115875 
	C301.068085,146.994186 301.053802,146.795944 301.019745,146.300201 
	C302.140350,145.352936 303.280701,144.703140 304.770538,144.056519 
	C303.993073,145.052902 302.866089,146.046097 301.410736,147.115875 
z"/>
<path fill="#79B6C6" opacity="1.000000" stroke="none" 
	d="
M138.409607,387.998383 
	C138.865234,386.807068 139.632507,385.492432 140.751297,384.106689 
	C140.308960,385.315430 139.515106,386.595245 138.409607,387.998383 
z"/>
<path fill="#79B6C6" opacity="1.000000" stroke="none" 
	d="
M149.323730,375.036682 
	C149.797958,373.832611 150.589905,372.502563 151.733444,371.102203 
	C151.270508,372.324829 150.455978,373.617767 149.323730,375.036682 
z"/>
<path fill="#7EB8C8" opacity="1.000000" stroke="none" 
	d="
M77.089233,314.597504 
	C76.432899,313.827118 75.714828,312.701752 75.003815,311.194916 
	C75.683083,311.956482 76.355293,313.099487 77.089233,314.597504 
z"/>
<path fill="#76B5C2" opacity="1.000000" stroke="none" 
	d="
M153.365234,369.069885 
	C153.825653,368.142487 154.635101,367.151306 155.787201,366.109070 
	C155.324661,367.040741 154.519470,368.023407 153.365234,369.069885 
z"/>
<path fill="#7CB7C6" opacity="1.000000" stroke="none" 
	d="
M169.007477,154.682068 
	C167.870041,154.515610 166.564087,154.037888 165.146973,153.213593 
	C166.303528,153.368271 167.571243,153.869522 169.007477,154.682068 
z"/>
<path fill="#79B8C6" opacity="1.000000" stroke="none" 
	d="
M305.382721,144.077301 
	C305.883698,143.376144 306.711121,142.617996 307.813354,141.943848 
	C307.295166,142.692017 306.502167,143.356171 305.382721,144.077301 
z"/>
<path fill="#7AB7C6" opacity="1.000000" stroke="none" 
	d="
M267.080994,325.619690 
	C266.438751,325.148590 265.744263,324.340271 265.031067,323.176178 
	C265.684509,323.641113 266.356628,324.461792 267.080994,325.619690 
z"/>
<path fill="#7EB8C8" opacity="1.000000" stroke="none" 
	d="
M84.081528,325.629456 
	C83.435616,325.173828 82.742012,324.384521 82.051414,323.244934 
	C82.714226,323.695038 83.374039,324.495392 84.081528,325.629456 
z"/>
<path fill="#7EB8C8" opacity="1.000000" stroke="none" 
	d="
M82.069672,322.632721 
	C81.437920,322.175201 80.752335,321.388275 80.051605,320.253052 
	C80.696259,320.704285 81.356049,321.503784 82.069672,322.632721 
z"/>
<path fill="#7BB7C6" opacity="1.000000" stroke="none" 
	d="
M263.939331,361.365967 
	C264.585846,361.843262 265.273407,362.659302 265.974060,363.832214 
	C265.318237,363.360962 264.649292,362.532837 263.939331,361.365967 
z"/>
<path fill="#81B8C9" opacity="1.000000" stroke="none" 
	d="
M155.017639,170.353088 
	C155.865723,170.516891 156.823227,170.993423 157.870361,171.802673 
	C157.015686,171.645538 156.071365,171.155670 155.017639,170.353088 
z"/>
<path fill="#7EB8C7" opacity="1.000000" stroke="none" 
	d="
M98.047272,130.338531 
	C98.867088,130.517685 99.824242,130.996201 100.869797,131.807556 
	C100.033676,131.639557 99.109138,131.138718 98.047272,130.338531 
z"/>
<path fill="#7FB9C8" opacity="1.000000" stroke="none" 
	d="
M145.064377,140.687775 
	C144.218674,140.511627 143.226715,140.023895 142.137253,139.197388 
	C142.999191,139.364502 143.958664,139.870361 145.064377,140.687775 
z"/>
<path fill="#83BBCB" opacity="1.000000" stroke="none" 
	d="
M136.010376,157.374832 
	C136.753891,157.227280 137.621185,157.385696 138.739517,158.039932 
	C138.979904,158.731827 138.969254,158.927902 138.958618,159.123962 
	C138.017136,158.642899 137.075653,158.161835 136.010376,157.374832 
z"/>
<path fill="#7FB9C8" opacity="1.000000" stroke="none" 
	d="
M151.990631,144.633148 
	C151.154907,144.479080 150.192429,144.013611 149.127319,143.220001 
	C149.971069,143.368484 150.917480,143.845123 151.990631,144.633148 
z"/>
<path fill="#7AB7C6" opacity="1.000000" stroke="none" 
	d="
M278.068726,344.632416 
	C277.431061,344.173553 276.748688,343.379974 276.060211,342.237671 
	C276.710754,342.691833 277.367432,343.494751 278.068726,344.632416 
z"/>
<path fill="#81B8C9" opacity="1.000000" stroke="none" 
	d="
M139.088776,159.396118 
	C138.969254,158.927902 138.979904,158.731827 139.007935,158.241272 
	C139.612747,158.447861 140.200180,158.948959 140.875839,159.738647 
	C140.382370,159.907562 139.800644,159.787903 139.088776,159.396118 
z"/>
<path fill="#7AB7C6" opacity="1.000000" stroke="none" 
	d="
M295.635345,364.083649 
	C296.011414,364.155487 296.011810,364.566620 296.016113,364.771912 
	C295.181213,364.827271 294.342010,364.677277 293.235901,364.343140 
	C293.732391,364.109955 294.495819,364.060883 295.635345,364.083649 
z"/>
<path fill="#81B8C9" opacity="1.000000" stroke="none" 
	d="
M164.027695,176.296661 
	C164.536407,176.435684 165.161041,176.846954 165.883530,177.535095 
	C165.368805,177.397614 164.756210,176.983246 164.027695,176.296661 
z"/>
<path fill="#7AB7C5" opacity="1.000000" stroke="none" 
	d="
M249.292450,183.831223 
	C249.502838,183.257843 250.013031,182.705338 250.817902,182.096756 
	C250.605789,182.644485 250.099030,183.248306 249.292450,183.831223 
z"/>
<path fill="#7AB7C6" opacity="1.000000" stroke="none" 
	d="
M282.069824,350.692200 
	C281.787170,350.509369 281.462006,350.003601 281.092712,349.192719 
	C281.374817,349.381500 281.701080,349.875397 282.069824,350.692200 
z"/>
<path fill="#7BB7C6" opacity="1.000000" stroke="none" 
	d="
M244.928467,334.305420 
	C245.209625,334.492554 245.536072,335.003265 245.899185,335.822327 
	C245.615143,335.630096 245.294449,335.129547 244.928467,334.305420 
z"/>
<path fill="#7EB8C8" opacity="1.000000" stroke="none" 
	d="
M94.141403,338.663696 
	C93.866432,338.473114 93.488701,337.964111 93.059387,337.133087 
	C93.351418,337.322479 93.695030,337.833893 94.141403,338.663696 
z"/>
<path fill="#7BB7C6" opacity="1.000000" stroke="none" 
	d="
M249.920532,342.315796 
	C250.217453,342.507538 250.558884,343.034180 250.942780,343.879761 
	C250.645157,343.682709 250.305099,343.166748 249.920532,342.315796 
z"/>
<path fill="#79B6C6" opacity="1.000000" stroke="none" 
	d="
M146.327026,378.949463 
	C146.244202,378.524597 146.454254,377.969666 146.874908,377.200134 
	C146.930328,377.596802 146.775131,378.208130 146.327026,378.949463 
z"/>
<path fill="#7AB7C6" opacity="1.000000" stroke="none" 
	d="
M281.075012,348.693542 
	C280.795410,348.506165 280.466736,347.997253 280.100098,347.180969 
	C280.383392,347.373016 280.704651,347.872528 281.075012,348.693542 
z"/>
<path fill="#7BB7C6" opacity="1.000000" stroke="none" 
	d="
M256.957245,352.293396 
	C257.167297,352.232941 257.436188,352.456726 257.848389,352.902283 
	C257.666473,352.941895 257.341278,352.759796 256.957245,352.293396 
z"/>
<path fill="#7EB8C7" opacity="1.000000" stroke="none" 
	d="
M101.910599,114.771057 
	C101.585152,114.947472 101.349411,114.765266 101.041588,114.331467 
	C101.267807,114.249352 101.611404,114.360199 101.910599,114.771057 
z"/>
<path fill="#7EB8C8" opacity="1.000000" stroke="none" 
	d="
M92.087677,335.714874 
	C91.905777,335.757904 91.613976,335.529449 91.165871,335.069061 
	C91.332298,335.039215 91.655037,335.241302 92.087677,335.714874 
z"/>
<path fill="#76B5C2" opacity="1.000000" stroke="none" 
	d="
M165.285034,353.057587 
	C165.239594,352.867889 165.469254,352.596313 165.921631,352.176636 
	C165.949631,352.344269 165.754868,352.659973 165.285034,353.057587 
z"/>
<path fill="#7AB7C6" opacity="1.000000" stroke="none" 
	d="
M283.048126,351.711548 
	C282.847473,351.768158 282.573761,351.544006 282.150665,351.098389 
	C282.325867,351.061554 282.650482,351.246185 283.048126,351.711548 
z"/>
<path fill="#79B6C6" opacity="1.000000" stroke="none" 
	d="
M141.269196,384.019165 
	C141.231094,383.840302 141.463699,383.576508 141.906952,383.152985 
	C141.925034,383.306946 141.732452,383.620605 141.269196,384.019165 
z"/>
<path fill="#8ABED1" opacity="1.000000" stroke="none" 
	d="
M189.293015,83.829880 
	C189.243423,83.590393 189.482788,83.408096 189.933044,83.127060 
	C189.928787,83.278015 189.741455,83.564262 189.293015,83.829880 
z"/>
<path fill="#7BB7C6" opacity="1.000000" stroke="none" 
	d="
M268.977783,368.273926 
	C269.174011,368.220123 269.439911,368.442139 269.852905,368.879211 
	C269.682495,368.912750 269.364960,368.731262 268.977783,368.273926 
z"/>
<path fill="#7BB7C6" opacity="1.000000" stroke="none" 
	d="
M262.991730,360.266479 
	C263.174744,360.222870 263.436279,360.449463 263.853455,360.885132 
	C263.696136,360.908386 263.383179,360.722534 262.991730,360.266479 
z"/>
<path fill="#79B6C6" opacity="1.000000" stroke="none" 
	d="
M142.275818,383.041016 
	C142.230042,382.853851 142.459412,382.582336 142.905457,382.154297 
	C142.931747,382.317383 142.741348,382.636993 142.275818,383.041016 
z"/>
<path fill="#7AB7C6" opacity="1.000000" stroke="none" 
	d="
M292.064575,363.709595 
	C291.884521,363.754578 291.602570,363.529388 291.157898,363.085632 
	C291.317688,363.057861 291.640137,363.248657 292.064575,363.709595 
z"/>
<path fill="#79B6C6" opacity="1.000000" stroke="none" 
	d="
M143.275421,382.040588 
	C143.227158,381.852814 143.453751,381.581451 143.895508,381.153259 
	C143.923859,381.316620 143.737061,381.636810 143.275421,382.040588 
z"/>
<path fill="#79B6C6" opacity="1.000000" stroke="none" 
	d="
M144.265106,381.023346 
	C144.221588,380.843109 144.446609,380.578186 144.881897,380.156799 
	C144.905991,380.313110 144.719803,380.625854 144.265106,381.023346 
z"/>
<path fill="#79B6C6" opacity="1.000000" stroke="none" 
	d="
M145.257263,380.002563 
	C145.225113,379.834656 145.453857,379.577179 145.888184,379.161743 
	C145.901886,379.306854 145.710037,379.609894 145.257263,380.002563 
z"/>
<path fill="#7BB7C6" opacity="1.000000" stroke="none" 
	d="
M266.122925,365.213562 
	C266.397125,365.150452 266.597595,365.397949 266.875183,365.885468 
	C266.689789,365.893829 266.388763,365.693390 266.122925,365.213562 
z"/>
<path fill="#79B6C6" opacity="1.000000" stroke="none" 
	d="
M147.286087,377.038086 
	C147.235092,376.830414 147.468475,376.558960 147.934799,376.149689 
	C147.968643,376.332703 147.769547,376.653503 147.286087,377.038086 
z"/>
<path fill="#7BB7C6" opacity="1.000000" stroke="none" 
	d="
M266.955475,366.285370 
	C267.161255,366.220490 267.436676,366.435455 267.854828,366.872192 
	C267.673401,366.917694 267.349243,366.741455 266.955475,366.285370 
z"/>
<path fill="#79B6C6" opacity="1.000000" stroke="none" 
	d="
M152.281418,370.999817 
	C152.128448,370.786407 152.287262,370.508606 152.658798,370.083130 
	C152.736343,370.244568 152.643570,370.577850 152.281418,370.999817 
z"/>
<path fill="#7BB7C6" opacity="1.000000" stroke="none" 
	d="
M267.992767,367.268036 
	C268.177460,367.221924 268.439484,367.444916 268.853241,367.877869 
	C268.693359,367.904236 268.381714,367.720673 267.992767,367.268036 
z"/>
<path fill="#7EB8C8" opacity="1.000000" stroke="none" 
	d="
M74.860840,309.758606 
	C74.601067,309.819489 74.410172,309.583649 74.141083,309.121277 
	C74.314919,309.113708 74.603851,309.302734 74.860840,309.758606 
z"/>
<path fill="#7AB7C5" opacity="1.000000" stroke="none" 
	d="
M267.172852,170.918396 
	C267.134399,170.656113 267.393158,170.440475 267.882690,170.119385 
	C267.899048,170.330963 267.684570,170.648010 267.172852,170.918396 
z"/>
<path fill="#7AB7C5" opacity="1.000000" stroke="none" 
	d="
M264.282654,173.035690 
	C264.241180,172.838226 264.480194,172.563141 264.957336,172.148575 
	C264.984680,172.325409 264.773895,172.641739 264.282654,173.035690 
z"/>
<path fill="#7CB7C6" opacity="1.000000" stroke="none" 
	d="
M172.057678,156.718750 
	C171.877060,156.770676 171.598587,156.555161 171.159988,156.128860 
	C171.319855,156.095810 171.639832,156.273544 172.057678,156.718750 
z"/>
<path fill="#83BBCB" opacity="1.000000" stroke="none" 
	d="
M134.966660,156.275955 
	C135.171432,156.213486 135.443726,156.429840 135.857513,156.867218 
	C135.677399,156.910416 135.355804,156.732605 134.966660,156.275955 
z"/>
<path fill="#7CB7C6" opacity="1.000000" stroke="none" 
	d="
M171.040222,155.678223 
	C170.826843,155.812546 170.522476,155.655121 170.040009,155.308411 
	C170.224350,155.208221 170.586777,155.297348 171.040222,155.678223 
z"/>
<path fill="#7AB7C5" opacity="1.000000" stroke="none" 
	d="
M291.268982,154.013428 
	C291.224304,153.830475 291.449890,153.567856 291.884216,153.148026 
	C291.908386,153.305130 291.723816,153.619446 291.268982,154.013428 
z"/>
<path fill="#65ADC0" opacity="1.000000" stroke="none" 
	d="
M279.756775,181.138351 
	C280.022095,181.167770 280.009003,181.580734 280.008423,181.787018 
	C279.827240,181.993835 279.646576,181.994354 279.194977,181.983490 
	C279.113159,181.684387 279.302307,181.396667 279.756775,181.138351 
z"/>
<path fill="#7CB7C6" opacity="1.000000" stroke="none" 
	d="
M165.040894,152.726776 
	C164.846207,152.783127 164.576874,152.562927 164.155975,152.129700 
	C164.325027,152.094528 164.645645,152.272354 165.040894,152.726776 
z"/>
<path fill="#7CB7C6" opacity="1.000000" stroke="none" 
	d="
M159.053345,148.697693 
	C158.837677,148.850983 158.549927,148.687302 158.108093,148.308426 
	C158.274628,148.227417 158.617050,148.323242 159.053345,148.697693 
z"/>
<path fill="#7CB7C6" opacity="1.000000" stroke="none" 
	d="
M157.074005,147.710907 
	C156.878601,147.831375 156.571869,147.668411 156.079422,147.320160 
	C156.250031,147.232407 156.606354,147.329941 157.074005,147.710907 
z"/>
<path fill="#7CB7C6" opacity="1.000000" stroke="none" 
	d="
M155.080505,146.707520 
	C154.887314,146.824478 154.590042,146.661621 154.114105,146.316284 
	C154.282425,146.231766 154.629425,146.329742 155.080505,146.707520 
z"/>
<path fill="#7FB9C8" opacity="1.000000" stroke="none" 
	d="
M153.039825,145.720703 
	C152.860550,145.765732 152.585907,145.542252 152.150375,145.107269 
	C152.307800,145.081253 152.626129,145.266724 153.039825,145.720703 
z"/>
<path fill="#7FB9C8" opacity="1.000000" stroke="none" 
	d="
M149.013794,142.725250 
	C148.812164,142.852921 148.536163,142.683990 148.101913,142.317841 
	C148.259109,142.250198 148.591034,142.352875 149.013794,142.725250 
z"/>
<path fill="#7FB9C8" opacity="1.000000" stroke="none" 
	d="
M147.099915,141.703003 
	C146.897507,141.832352 146.566162,141.671448 146.039154,141.312012 
	C146.219330,141.213226 146.595154,141.312988 147.099915,141.703003 
z"/>
<path fill="#7AB7C6" opacity="1.000000" stroke="none" 
	d="
M280.054962,346.711945 
	C279.851349,346.770294 279.575592,346.545990 279.151978,346.098328 
	C279.330383,346.059784 279.656586,346.244537 280.054962,346.711945 
z"/>
<path fill="#7FB9C8" opacity="1.000000" stroke="none" 
	d="
M142.041199,138.702271 
	C141.814407,138.867859 141.527802,138.706711 141.095215,138.321869 
	C141.269028,138.233795 141.613083,138.326248 142.041199,138.702271 
z"/>
<path fill="#7AB7C6" opacity="1.000000" stroke="none" 
	d="
M264.947754,321.811523 
	C264.671844,321.849945 264.450592,321.583252 264.125458,321.076599 
	C264.348511,321.059875 264.675476,321.283142 264.947754,321.811523 
z"/>
<path fill="#7EB8C8" opacity="1.000000" stroke="none" 
	d="
M85.021202,326.726349 
	C84.830551,326.773865 84.566940,326.544739 84.146606,326.103455 
	C84.309334,326.077454 84.628792,326.263580 85.021202,326.726349 
z"/>
<path fill="#7AB7C6" opacity="1.000000" stroke="none" 
	d="
M267.902771,326.770264 
	C267.597748,326.850494 267.389801,326.602539 267.123474,326.093689 
	C267.326477,326.077972 267.638062,326.281067 267.902771,326.770264 
z"/>
<path fill="#7FB9C8" opacity="1.000000" stroke="none" 
	d="
M140.036987,137.726837 
	C139.860382,137.773315 139.587219,137.554398 139.152756,137.127563 
	C139.307800,137.100235 139.624115,137.280823 140.036987,137.726837 
z"/>
<path fill="#7FB9C8" opacity="1.000000" stroke="none" 
	d="
M139.002914,136.705719 
	C138.797592,136.827072 138.502411,136.666321 138.030548,136.321625 
	C138.206924,136.233002 138.559998,136.328293 139.002914,136.705719 
z"/>
<path fill="#86BECF" opacity="1.000000" stroke="none" 
	d="
M235.237152,333.007935 
	C235.168762,332.856689 235.337036,332.615967 235.647888,332.209106 
	C235.690292,332.338562 235.584747,332.630402 235.237152,333.007935 
z"/>
<path fill="#7EB8C8" opacity="1.000000" stroke="none" 
	d="
M90.038620,333.720581 
	C89.857101,333.767365 89.583374,333.544220 89.149109,333.109070 
	C89.307846,333.081604 89.627129,333.266144 90.038620,333.720581 
z"/>
<path fill="#7FB9C8" opacity="1.000000" stroke="none" 
	d="
M136.052322,135.724701 
	C135.868149,135.776398 135.589615,135.557236 135.152267,135.124191 
	C135.314957,135.091492 135.636459,135.272659 136.052322,135.724701 
z"/>
<path fill="#7FB9C8" opacity="1.000000" stroke="none" 
	d="
M135.031097,134.702286 
	C134.804489,134.866516 134.518356,134.705109 134.084015,134.322815 
	C134.257645,134.235016 134.602905,134.326599 135.031097,134.702286 
z"/>
<path fill="#7BB7C6" opacity="1.000000" stroke="none" 
	d="
M245.941818,336.289246 
	C246.145737,336.231781 246.424438,336.457092 246.849411,336.910583 
	C246.669327,336.949829 246.342957,336.760895 245.941818,336.289246 
z"/>
<path fill="#7BB7C6" opacity="1.000000" stroke="none" 
	d="
M251.940170,345.279846 
	C252.107635,345.238342 252.389893,345.457458 252.842346,345.884583 
	C252.693344,345.908569 252.374161,345.724487 251.940170,345.279846 
z"/>
<path fill="#7AB7C6" opacity="1.000000" stroke="none" 
	d="
M279.024353,345.725128 
	C278.835297,345.773987 278.569244,345.548737 278.148132,345.110596 
	C278.311188,345.082153 278.629303,345.266571 279.024353,345.725128 
z"/>
<path fill="#7EB8C7" opacity="1.000000" stroke="none" 
	d="
M90.966629,125.266113 
	C91.151054,125.219322 91.419205,125.445969 91.846970,125.881943 
	C91.687836,125.907372 91.369095,125.723465 90.966629,125.266113 
z"/>
<path fill="#65ADC0" opacity="1.000000" stroke="none" 
	d="
M280.346497,182.216431 
	C302.694061,181.986893 325.382690,181.992065 348.540588,182.013550 
	C347.585785,182.350571 346.162506,182.946243 344.737427,182.950607 
	C324.520508,183.012650 304.303375,183.003296 284.086304,182.972519 
	C282.953125,182.970795 281.820435,182.632675 280.346497,182.216431 
z"/>
</svg>