<svg version="1.1" id="Layer_1" xmlns="http://www.w3.org/2000/svg" xmlns:xlink="http://www.w3.org/1999/xlink" x="0px" y="0px"
	 width="100%" viewBox="0 0 421 433" enable-background="new 0 0 421 433" xml:space="preserve">

<path fill="#1D4C58" opacity="1.000000" stroke="none" 
	d="
M186.468658,434.000000 
	C182.787766,433.001923 179.608246,431.878571 176.357147,431.029236 
	C166.643738,428.491669 156.789062,426.428680 147.207230,423.474335 
	C139.385117,421.062561 131.424881,418.442902 124.330193,414.476654 
	C112.767258,408.012451 101.700562,400.609161 90.742279,393.136108 
	C85.118904,389.301270 79.643387,384.954620 75.052231,379.964172 
	C66.207085,370.349731 57.425713,360.557190 49.773651,350.000732 
	C43.150906,340.864258 37.314510,330.942139 32.601662,320.690948 
	C26.571491,307.574310 20.850807,294.184631 18.882252,279.595673 
	C17.677298,270.665771 15.980332,261.803162 14.571921,252.899628 
	C12.481917,239.687210 13.549149,226.501663 15.228643,213.359909 
	C16.219095,205.609818 17.494844,197.888321 18.924959,190.206573 
	C19.427780,187.505707 21.024321,185.024017 21.690744,182.335480 
	C25.048222,168.790497 30.196564,155.877594 36.800404,143.696381 
	C42.479374,133.221146 48.840519,122.981537 56.050404,113.513779 
	C61.606785,106.217331 68.989059,100.320450 75.478462,93.721596 
	C78.779289,90.365097 81.687317,86.595993 85.167564,83.450005 
	C88.345345,80.577454 91.933479,78.102165 95.559052,75.794785 
	C101.178574,72.218445 106.946297,68.868675 112.722916,65.547607 
	C116.675560,63.275177 120.662857,61.027782 124.789940,59.101936 
	C131.657547,55.897259 138.429230,52.216415 145.639175,50.076862 
	C157.635239,46.517029 169.819366,43.181709 182.160645,41.311687 
	C194.054657,39.509438 206.269501,38.865215 218.304474,39.183533 
	C235.245209,39.631603 252.101990,41.837856 268.224060,47.566906 
	C279.864868,51.703529 291.963531,55.088131 302.796234,60.816090 
	C314.279938,66.888283 324.753784,75.007256 335.205322,82.849838 
	C343.084381,88.762123 351.114471,94.887985 357.491638,102.285751 
	C366.173279,112.356781 373.969879,123.342438 380.979095,134.658691 
	C387.332306,144.915878 393.297668,155.726456 397.295746,167.048141 
	C402.049957,180.511124 405.494812,194.628403 407.696869,208.744537 
	C409.729187,221.772720 410.036224,235.185013 409.827301,248.407944 
	C409.684967,257.415955 408.160309,266.609009 405.808044,275.329315 
	C401.734650,290.430267 397.365723,305.561707 391.529663,320.038971 
	C387.526245,329.970032 381.013702,338.930908 375.266235,348.102051 
	C371.863312,353.532043 368.205994,358.931366 363.884766,363.628448 
	C356.446686,371.713501 348.870392,379.797943 340.483429,386.849457 
	C331.339600,394.537323 321.611450,401.714294 311.409271,407.914825 
	C297.175903,416.565430 281.795959,423.066559 265.730743,427.626678 
	C257.563019,429.945068 249.176300,431.491943 240.944275,433.693787 
	C222.979111,434.000000 204.958206,434.000000 186.468658,434.000000 
M134.028687,390.910400 
	C134.639542,391.267334 135.250397,391.624268 136.329773,392.568726 
	C143.134415,394.965546 150.161392,396.878540 156.688919,399.878326 
	C165.374298,403.869843 174.408890,405.479004 184.163742,406.658447 
	C185.067703,407.022614 185.943832,407.594757 186.879761,407.719971 
	C203.010147,409.878021 219.159714,409.997467 235.298538,407.867065 
	C236.649078,407.688812 237.885712,406.647766 239.821793,406.169708 
	C244.465378,405.447937 249.292465,405.302032 253.716843,403.892303 
	C265.253326,400.216400 276.613342,395.986694 288.680817,391.715820 
	C293.745117,388.836517 299.046051,386.298218 303.812927,382.990295 
	C309.582764,378.986389 314.900848,374.331421 321.079742,369.841125 
	C326.364502,364.880188 331.649231,359.919281 337.601807,354.830994 
	C339.233276,353.179688 340.975616,351.623169 342.479797,349.863068 
	C369.887299,317.792297 384.379364,280.641846 384.539185,238.472946 
	C384.590210,225.013809 381.677765,211.543457 379.963013,197.308487 
	C377.977325,190.929169 375.991669,184.549850 374.057953,177.381287 
	C368.299652,165.686249 363.117310,153.655930 356.574829,142.417389 
	C352.411926,135.266434 346.230499,129.290543 340.599426,122.254486 
	C336.047699,117.477783 331.496002,112.701080 326.653076,107.336723 
	C265.867798,51.969574 169.118408,48.931652 105.141212,100.435974 
	C102.239639,102.771858 99.724846,105.588188 96.767212,108.792328 
	C92.221291,113.195877 87.675362,117.599419 82.455994,122.154884 
	C71.309082,134.025726 62.509640,147.492706 55.736473,162.247391 
	C53.409977,167.315414 51.885498,172.751617 49.752022,178.714645 
	C49.178165,181.151077 48.604305,183.587509 48.005417,185.998047 
	C48.005417,185.998047 48.035305,186.025772 47.455929,186.477936 
	C46.321335,190.602951 45.186741,194.727982 43.405361,199.265808 
	C42.120136,206.601227 40.251202,213.888733 39.644329,221.279846 
	C35.676411,269.604980 49.506126,312.326813 80.778313,349.369476 
	C81.848831,350.637512 83.644150,351.293701 85.488121,352.764069 
	C91.053596,358.578156 96.619064,364.392242 102.601089,370.679321 
	C112.959061,377.285278 123.317032,383.891266 134.028687,390.910400 
z"/>
<path fill="#5BB2CC" opacity="1.000000" stroke="none" 
	d="
M247.147095,4.003301 
	C247.147095,4.003300 247.596954,4.036247 248.086182,4.282758 
	C249.416489,4.683733 250.257553,4.838197 251.098618,4.992658 
	C259.165833,6.883279 267.295868,8.545135 275.280243,10.737586 
	C281.561493,12.462372 287.702118,14.734336 293.830048,16.969400 
	C297.714142,18.386055 301.460327,20.180771 305.756073,22.297993 
	C307.543610,23.164459 308.843384,23.538864 310.143188,23.913267 
	C310.143188,23.913265 310.061371,23.913574 310.147949,24.222086 
	C312.213470,25.355707 314.192444,26.180815 316.171387,27.005922 
	C316.171387,27.005922 316.532257,27.027674 316.885315,27.264668 
	C317.534729,27.660931 317.831024,27.820198 318.127350,27.979465 
	C318.127350,27.979464 318.030975,27.962654 318.101593,28.266800 
	C321.483704,30.370920 324.795197,32.170895 328.106689,33.970871 
	C330.837128,35.222729 333.707733,36.241604 336.265656,37.780296 
	C340.237488,40.169571 343.996399,42.912777 348.209900,45.751366 
	C344.708008,51.426418 341.257843,57.292152 337.517487,62.966621 
	C335.562225,65.932938 333.071472,66.680695 329.679718,64.322853 
	C311.993439,52.027889 292.824951,42.593266 272.005096,37.116955 
	C259.469574,33.819698 247.032867,29.677994 233.689011,29.933588 
	C222.288910,30.151951 210.868301,29.094633 199.459641,29.153940 
	C192.932571,29.187872 186.411224,30.324810 179.133514,30.702036 
	C171.775894,31.624563 165.143997,32.677837 158.583511,34.068058 
	C156.306900,34.550491 154.207245,35.867966 152.026779,36.804039 
	C144.934052,39.523605 137.841309,42.243168 130.092560,44.717598 
	C125.973763,46.030659 122.510994,47.588852 119.048233,49.147041 
	C119.048233,49.147041 119.040779,49.066532 118.684624,49.046124 
	C113.793228,50.971954 109.142563,52.694481 104.767715,54.951599 
	C102.296989,56.226330 100.279976,58.380455 98.058594,60.138458 
	C98.058586,60.138458 98.049919,60.067432 97.697861,60.048744 
	C96.374611,60.200996 95.090218,60.034546 94.483322,60.597935 
	C90.691200,64.118111 87.413155,64.431145 84.552116,59.548000 
	C84.359535,59.219311 83.657158,59.189312 83.191887,59.020393 
	C80.503342,55.565964 77.839058,52.092274 75.117477,48.664062 
	C73.381233,46.477016 73.179779,44.583977 75.865845,43.003510 
	C83.260536,38.652504 90.595078,34.195950 98.057892,29.965450 
	C101.937119,27.766409 106.037094,25.956785 110.815063,23.965294 
	C115.388336,22.282379 119.183891,20.605419 122.979446,18.928459 
	C122.979446,18.928457 122.996742,18.988491 123.363281,18.973621 
	C130.108505,16.872568 136.495178,14.809873 142.850891,12.655915 
	C143.363068,12.482344 143.662659,11.681542 144.061035,11.172211 
	C144.061035,11.172210 144.475769,11.034701 145.114059,11.010477 
	C150.506561,9.713701 155.260773,8.441150 160.014984,7.168599 
	C163.910950,6.358941 167.806900,5.549282 172.376373,4.403645 
	C175.369568,4.017027 177.739014,4.250543 179.998367,3.855112 
	C184.365051,3.090858 188.669662,1.971917 193.000000,1.000000 
	C204.354233,1.000000 215.708450,1.000000 227.698441,1.346204 
	C234.605164,2.462706 240.876129,3.233004 247.147095,4.003301 
z"/>
<!-- outline ^^^ -->




<path fill="#5CB3CB" opacity="1.000000" stroke="none" 
	d="
M418.596710,123.950958 
	C419.146606,126.074791 419.391266,128.013184 419.764801,130.972855 
	C410.853180,130.972855 402.311066,130.972855 393.282593,130.965973 
	C390.643127,127.244827 388.847870,123.256577 386.259003,119.876053 
	C381.560608,113.741043 376.442352,107.922462 371.390930,102.065353 
	C369.326111,99.671211 369.449402,97.567474 371.799866,95.683449 
	C376.358612,92.029343 380.852905,88.246849 385.736877,85.076797 
	C387.132172,84.171158 390.485931,84.387985 391.715454,85.475883 
	C395.455872,88.785568 399.137817,92.417686 401.860291,96.568504 
	C407.665283,105.419075 412.851624,114.675423 418.596710,123.950958 
z"/>
<path fill="#5BB2CB" opacity="1.000000" stroke="none" 
	d="
M30.715872,130.760651 
	C21.338072,130.913177 12.230475,130.913177 2.744056,130.913177 
	C3.234326,128.356293 3.603343,126.431778 3.979653,124.109901 
	C8.682667,113.591248 14.946568,104.516800 22.995838,95.968369 
	C24.761789,93.754921 25.882603,91.776619 27.003422,89.798317 
	C27.437973,89.256981 27.872524,88.715645 28.794933,87.945404 
	C29.522379,87.443275 29.761967,87.170036 30.001556,86.896805 
	C30.001558,86.896805 29.948692,86.994255 30.273680,86.917618 
	C32.769234,86.210770 34.939800,85.580574 37.110367,84.950378 
	C37.110367,84.950371 37.036030,84.950806 37.097572,85.269394 
	C38.824100,86.693764 40.489082,87.799538 42.154064,88.905312 
	C42.154064,88.905312 42.082977,88.987823 42.202442,89.162537 
	C42.599892,89.553871 42.877876,89.770485 43.155861,89.987099 
	C44.693268,91.421486 46.230675,92.855881 48.047947,94.801659 
	C48.607101,95.537437 48.886387,95.761833 49.165672,95.986221 
	C53.688541,98.141167 54.302345,99.639816 50.973450,102.433418 
	C42.197311,109.798332 37.657505,120.035904 31.905630,129.467148 
	C31.653465,129.880630 31.295015,130.229279 30.715872,130.760651 
z"/>
<!-- outline -->







<path fill="#5AB1CB" opacity="1.000000" stroke="none" 
	d="
M189.031906,83.809250 
	C183.459167,84.993912 177.695435,85.626976 172.352951,87.476669 
	C160.794449,91.478485 149.293808,95.741867 138.090271,100.632988 
	C132.825058,102.931618 128.260223,106.869125 123.457130,110.178810 
	C120.531898,112.194496 118.022591,115.227936 114.823776,116.289536 
	C112.623436,117.019768 109.334732,115.585556 106.938461,114.338600 
	C103.670982,112.638283 100.789978,110.195282 97.386597,108.125725 
	C99.724846,105.588188 102.239639,102.771858 105.141212,100.435974 
	C169.118408,48.931652 265.867798,51.969574 326.798676,107.630554 
	C322.548645,110.528397 318.274841,113.385025 313.689636,115.595848 
	C312.139282,116.343353 309.430267,116.099541 307.883728,115.209251 
	C299.222260,110.223267 290.850098,104.735443 282.199188,99.730064 
	C267.318176,91.119926 250.905136,86.910210 234.208466,83.645187 
	C232.132446,83.239220 229.987579,83.185341 227.251251,82.555305 
	C225.077560,81.765366 223.531998,81.087616 221.976105,81.063026 
	C214.837418,80.950226 207.685944,80.799103 200.559479,81.117722 
	C197.002869,81.276741 193.490036,82.414696 189.957397,83.109848 
	C189.957397,83.109848 189.978409,82.972397 189.864197,83.117371 
	C189.482788,83.408096 189.243423,83.590393 189.031906,83.809250 
z"/>

<path fill="#5BB1CA" opacity="1.000000" stroke="none" 
	d="
M337.267883,354.894653 
	C334.070526,351.575500 331.398376,348.001617 328.277588,344.875702 
	C326.130493,342.725067 326.487701,341.323181 328.210724,339.229645 
	C340.428650,324.384521 350.899780,308.274048 357.039246,290.093567 
	C360.766785,279.055389 365.687531,268.031799 365.122681,255.722656 
	C364.768524,248.004776 366.204437,240.205719 365.864136,232.485977 
	C365.376801,221.429871 364.000671,210.412949 362.951904,198.802170 
	C368.057892,198.802170 373.839478,198.802170 379.871185,198.440201 
	C381.677765,211.543457 384.590210,225.013809 384.539185,238.472946 
	C384.379364,280.641846 369.887299,317.792297 342.479797,349.863068 
	C340.975616,351.623169 339.233276,353.179688 337.267883,354.894653 
z"/>
<path fill="#59B1CA" opacity="1.000000" stroke="none" 
	d="
M56.834381,229.027267 
	C57.230045,237.936722 57.131496,246.904144 58.167637,255.738480 
	C59.105682,263.736450 60.697021,271.768768 63.058929,279.460907 
	C66.059601,289.233368 70.127769,298.678070 73.995926,308.791016 
	C74.410172,309.583649 74.601067,309.819489 74.828880,310.025452 
	C74.828880,310.025452 74.982079,310.405060 74.989418,310.990723 
	C75.714828,312.701752 76.432899,313.827118 77.150970,314.952484 
	C77.150970,314.952484 77.072388,314.957947 77.045532,315.301941 
	C78.046875,317.087494 79.075073,318.528992 80.103279,319.970520 
	C80.103279,319.970520 80.033302,319.974823 80.050018,320.288086 
	C80.752335,321.388275 81.437920,322.175201 82.123512,322.962158 
	C82.123512,322.962158 82.052208,322.966034 82.050308,323.280640 
	C82.742012,324.384521 83.435616,325.173828 84.129211,325.963135 
	C84.129219,325.963135 84.023445,325.997314 84.163391,326.156433 
	C84.566940,326.544739 84.830551,326.773865 85.094162,327.003021 
	C85.094162,327.003021 85.015099,326.944916 85.030991,327.275452 
	C86.403984,329.392883 87.761086,331.179840 89.118179,332.966797 
	C89.118179,332.966797 89.018318,332.997101 89.163986,333.159088 
	C89.583374,333.544220 89.857101,333.767365 90.130829,333.990509 
	C90.458588,333.991821 90.710686,334.130615 91.104652,334.853882 
	C91.613976,335.529449 91.905777,335.757904 92.197578,335.986389 
	C92.510452,335.991943 92.748032,336.128479 93.010643,336.925568 
	C93.488701,337.964111 93.866432,338.473114 94.244171,338.982117 
	C97.005249,340.281311 98.165558,341.867645 95.237015,344.253662 
	C92.076332,346.828796 88.936211,349.429138 85.444389,352.126770 
	C83.644150,351.293701 81.848831,350.637512 80.778313,349.369476 
	C49.506126,312.326813 35.676411,269.604980 39.644329,221.279846 
	C40.251202,213.888733 42.120136,206.601227 43.728756,199.059402 
	C49.479740,198.852997 54.907333,198.852997 61.096771,198.852997 
	C60.654701,201.326080 60.308819,203.261032 59.563011,205.762177 
	C56.642593,213.715729 55.156765,221.209229 56.834381,229.027267 
z"/>
<!-- outline -->

<path fill="#5DB2CA" opacity="1.000000" stroke="none" 
	d="
M374.031982,177.775909 
	C369.277618,178.451767 364.531586,178.567047 359.826355,179.066650 
	C356.056091,179.466980 353.925201,177.759491 352.784363,174.482407 
	C347.858765,160.333481 338.952118,148.675858 329.727234,137.179611 
	C327.490173,134.391724 326.772858,131.746140 331.275513,129.667847 
	C334.590576,128.137711 337.327881,125.355934 340.638428,122.959808 
	C346.230499,129.290543 352.411926,135.266434 356.574829,142.417389 
	C363.117310,153.655930 368.299652,165.686249 374.031982,177.775909 
z"/>
<path fill="#5BB1CA" opacity="1.000000" stroke="none" 
	d="
M82.792709,122.078918 
	C86.307129,124.751968 89.246353,127.866463 92.733208,130.141678 
	C95.880432,132.195282 96.020302,133.907028 93.933029,136.678329 
	C85.248909,148.208389 75.854561,159.271835 70.866798,173.185623 
	C69.767372,176.252594 67.591576,178.589752 63.400375,178.094620 
	C59.297070,177.609863 55.091778,177.988434 50.462936,178.003845 
	C51.885498,172.751617 53.409977,167.315414 55.736473,162.247391 
	C62.509640,147.492706 71.309082,134.025726 82.792709,122.078918 
z"/>
<path fill="#79B6C6" opacity="1.000000" stroke="none" 
	d="
M133.851852,390.703857 
	C134.902985,389.686554 136.130951,388.875824 137.740112,388.080322 
	C137.419922,389.172150 136.718521,390.248749 135.939194,391.653259 
	C135.250397,391.624268 134.639542,391.267334 133.851852,390.703857 
z"/>
<!-- outline -->


<path fill="#65ADC0" opacity="1.000000" stroke="none" 
	d="
M277.528748,182.115967 
	C273.545105,182.462296 269.101044,182.777588 264.651978,182.986618 
	C260.837402,183.165833 256.417603,186.914536 256.299225,190.628296 
	C256.265442,191.688263 257.425262,193.290741 258.442261,193.751389 
	C259.699097,194.320648 261.377777,193.993546 262.874176,193.993851 
	C296.164520,194.000595 329.455963,193.846756 362.744446,194.096085 
	C372.177399,194.166733 374.270813,193.900101 370.330933,182.430878 
	C370.741730,182.013641 370.941742,182.000946 371.141785,181.988235 
	C374.330383,185.618927 375.546387,189.821289 373.969025,194.809082 
	C348.752411,195.063980 324.361664,195.103622 299.506042,195.103455 
	C283.764526,194.988892 268.487854,194.914124 253.211197,194.839355 
	C252.623489,187.220749 257.279755,182.002640 264.671234,182.007401 
	C268.802887,182.010071 272.934540,182.027847 277.528748,182.115967 
z"/>
<path fill="#BDEEF2" opacity="1.000000" stroke="none" 
	d="
M51.660294,195.898041 
	C52.984509,195.558365 54.755196,195.023346 56.526840,195.020157 
	C93.763901,194.952896 131.001068,194.945694 168.724274,194.935120 
	C167.880798,195.301407 166.551544,195.970734 165.221680,195.971924 
	C127.516891,196.005951 89.812050,195.972656 51.660294,195.898041 
z"/>
<path fill="#8ABFCC" opacity="1.000000" stroke="none" 
	d="
M370.906097,181.611664 
	C370.941742,182.000946 370.741730,182.013641 370.242432,182.061157 
	C363.277283,182.069809 356.611481,182.043655 349.008484,182.007370 
	C325.382690,181.992065 302.694061,181.986893 280.005463,181.981735 
	C280.005463,181.981735 279.997498,181.995789 280.003235,181.788269 
	C280.009003,181.580734 280.022095,181.167770 280.022095,181.167770 
	C310.238190,181.190216 340.454315,181.212662 370.906097,181.611664 
z"/>
<path fill="#7BB7C6" opacity="1.000000" stroke="none" 
	d="
M243.088684,292.410278 
	C243.446884,293.764130 244.022842,295.552185 243.941177,297.309723 
	C243.503403,306.729553 242.693497,316.137299 242.492493,325.559509 
	C242.437195,328.151245 244.031906,330.778137 244.907715,333.760193 
	C243.625824,332.352234 241.171005,330.573395 241.170380,328.793732 
	C241.166397,317.551941 241.689880,306.309387 242.104065,295.069458 
	C242.131927,294.313110 242.690964,293.576324 243.088684,292.410278 
z"/>
<path fill="#CAECFC" opacity="1.000000" stroke="none" 
	d="
M130.548981,180.076416 
	C124.275650,180.475327 117.535759,181.046036 110.792786,181.084961 
	C91.804672,181.194626 72.815300,181.085602 53.347816,181.057892 
	C54.341064,180.702988 55.812153,180.051682 57.284901,180.047897 
	C81.550156,179.985504 105.815613,180.004623 130.548981,180.076416 
z"/>
<path fill="#9BCFDD" opacity="1.000000" stroke="none" 
	d="
M299.970886,195.143265 
	C324.361664,195.103622 348.752411,195.063980 373.618835,195.007126 
	C372.426941,195.323608 370.760162,195.943329 369.091766,195.947784 
	C346.367371,196.008636 323.642731,195.984344 300.450165,195.733826 
	C299.982178,195.486603 299.970886,195.143265 299.970886,195.143265 
z"/>
<path fill="#8ABED1" opacity="1.000000" stroke="none" 
	d="
M190.430557,83.062302 
	C193.490036,82.414696 197.002869,81.276741 200.559479,81.117722 
	C207.685944,80.799103 214.837418,80.950226 221.976105,81.063026 
	C223.531998,81.087616 225.077560,81.765366 226.816742,82.472549 
	C214.971634,82.873459 202.937683,82.944107 190.430557,83.062302 
z"/>
<path fill="#A6D4E4" opacity="1.000000" stroke="none" 
	d="
M299.506042,195.103455 
	C299.970886,195.143265 299.982178,195.486603 299.986267,195.658325 
	C284.471283,195.787933 268.952209,195.745819 253.322159,195.271530 
	C268.487854,194.914124 283.764526,194.988892 299.506042,195.103455 
z"/>
<path fill="#86BECF" opacity="1.000000" stroke="none" 
	d="
M231.999573,357.642395 
	C232.158920,353.799286 232.399612,349.575165 232.879028,345.378326 
	C233.328888,341.440094 234.031158,337.530670 234.856155,333.284119 
	C234.121674,341.064209 233.153397,349.168732 231.999573,357.642395 
z"/>
<path fill="#82BECB" opacity="1.000000" stroke="none" 
	d="
M56.908825,228.597641 
	C55.156765,221.209229 56.642593,213.715729 59.483974,206.168427 
	C59.210957,210.504364 58.604637,214.998688 58.027607,219.496750 
	C57.657177,222.384293 57.329891,225.277405 56.908825,228.597641 
z"/>
<path fill="#7EB8C7" opacity="1.000000" stroke="none" 
	d="
M99.988174,113.685272 
	C94.614227,115.189301 90.291504,120.007256 90.862152,124.815094 
	C89.992783,124.441940 89.005112,123.735077 88.017441,123.028214 
	C90.387505,119.802040 92.565285,116.399315 95.256607,113.468117 
	C95.970734,112.690331 98.263214,113.361717 99.988174,113.685272 
z"/>
<path fill="#86BDD1" opacity="1.000000" stroke="none" 
	d="
M316.991821,366.644501 
	C310.430115,366.340729 303.648438,365.675049 296.439270,364.787994 
	C296.011810,364.566620 296.011414,364.155487 296.011414,364.155457 
	C302.931549,364.864502 309.851715,365.573547 316.991821,366.644501 
z"/>
<path fill="#81B8C9" opacity="1.000000" stroke="none" 
	d="
M142.978775,162.325714 
	C146.837982,164.471725 150.838333,166.945847 154.903564,169.762848 
	C151.018921,167.621765 147.069412,165.137802 142.978775,162.325714 
z"/>
<path fill="#83BBCB" opacity="1.000000" stroke="none" 
	d="
M123.902878,148.338821 
	C127.504478,150.463364 131.175537,152.951508 134.901184,155.785431 
	C131.294617,153.654953 127.633469,151.178680 123.902878,148.338821 
z"/>
<path fill="#7AB7C5" opacity="1.000000" stroke="none" 
	d="
M292.395996,153.057602 
	C294.791748,150.783279 297.550659,148.462616 300.674561,146.369812 
	C301.053802,146.795944 301.068085,146.994186 301.082367,147.192444 
	C298.307983,149.132050 295.533569,151.071655 292.395996,153.057602 
z"/>
<path fill="#7EB8C7" opacity="1.000000" stroke="none" 
	d="
M100.918343,132.423248 
	C103.531311,133.849396 106.194847,135.639633 108.896774,137.782471 
	C106.279747,136.352478 103.624329,134.569901 100.918343,132.423248 
z"/>
<path fill="#7AB7C5" opacity="1.000000" stroke="none" 
	d="
M282.408081,160.086182 
	C284.821320,158.107071 287.595978,156.079422 290.747864,154.061829 
	C288.339874,156.060486 285.554688,158.049072 282.408081,160.086182 
z"/>
<path fill="#7AB7C6" opacity="1.000000" stroke="none" 
	d="
M276.074219,341.592590 
	C274.438385,339.523438 272.747742,337.091400 271.048401,334.283752 
	C272.699615,336.348633 274.359528,338.789154 276.074219,341.592590 
z"/>
<path fill="#7AB7C5" opacity="1.000000" stroke="none" 
	d="
M256.377441,178.976700 
	C256.194855,174.318924 260.328827,174.356705 263.741760,173.068481 
	C261.647552,174.996750 259.173737,176.920532 256.377441,178.976700 
z"/>
<path fill="#7BB7C6" opacity="1.000000" stroke="none" 
	d="
M257.893555,353.431946 
	C259.548157,355.172699 261.251526,357.269196 262.947144,359.736206 
	C261.273712,358.000427 259.608002,355.894043 257.893555,353.431946 
z"/>
<path fill="#7AB7C5" opacity="1.000000" stroke="none" 
	d="
M268.394653,170.057281 
	C270.154785,168.432419 272.266144,166.746811 274.748596,165.062195 
	C272.995087,166.707657 270.870453,168.352097 268.394653,170.057281 
z"/>
<path fill="#7AB7C5" opacity="1.000000" stroke="none" 
	d="
M275.396942,165.057312 
	C277.160706,163.441299 279.271851,161.750717 281.752197,160.060944 
	C279.995667,161.702103 277.870026,163.342407 275.396942,165.057312 
z"/>
<path fill="#7BB7C6" opacity="1.000000" stroke="none" 
	d="
M269.920197,369.415466 
	C271.536835,370.863220 273.198730,372.672272 274.920166,374.838287 
	C273.308289,373.389069 271.636841,371.582916 269.920197,369.415466 
z"/>
<path fill="#76B5C2" opacity="1.000000" stroke="none" 
	d="
M156.384140,365.982117 
	C157.520599,363.800842 158.974350,361.482910 160.782440,359.112793 
	C159.658310,361.322266 158.179871,363.583862 156.384140,365.982117 
z"/>
<path fill="#76B5C2" opacity="1.000000" stroke="none" 
	d="
M161.387527,358.993561 
	C162.187698,357.141479 163.308075,355.159973 164.783203,353.119019 
	C163.994553,354.994446 162.851135,356.929291 161.387527,358.993561 
z"/>
<path fill="#7EB8C7" opacity="1.000000" stroke="none" 
	d="
M109.009697,138.401672 
	C110.878891,139.202148 112.875755,140.324127 114.931236,141.812134 
	C113.039024,141.026505 111.088196,139.874832 109.009697,138.401672 
z"/>
<path fill="#7EB8C7" opacity="1.000000" stroke="none" 
	d="
M92.008804,126.385223 
	C93.871803,127.172668 95.865578,128.281128 97.915604,129.742371 
	C96.027763,128.965515 94.083672,127.835876 92.008804,126.385223 
z"/>
<path fill="#7AB7C6" opacity="1.000000" stroke="none" 
	d="
M287.072662,357.598633 
	C285.770233,356.171997 284.415375,354.395660 283.072876,352.242920 
	C284.396912,353.660645 285.708588,355.454803 287.072662,357.598633 
z"/>
<path fill="#7BB7C6" opacity="1.000000" stroke="none" 
	d="
M252.930832,346.392426 
	C254.239639,347.822479 255.592209,349.606506 256.927551,351.759644 
	C255.598404,350.334595 254.286499,348.540497 252.930832,346.392426 
z"/>
<path fill="#81B8C9" opacity="1.000000" stroke="none" 
	d="
M158.008667,172.387024 
	C159.812363,173.200912 161.741089,174.340286 163.831787,175.786865 
	C162.040421,174.966888 160.087051,173.839706 158.008667,172.387024 
z"/>
<path fill="#7EB8C8" opacity="1.000000" stroke="none" 
	d="
M89.070282,332.610718 
	C87.761086,331.179840 86.403984,329.392883 85.060471,327.236237 
	C86.390160,328.662567 87.706268,330.458588 89.070282,332.610718 
z"/>
<path fill="#7AB7C6" opacity="1.000000" stroke="none" 
	d="
M291.081573,362.605957 
	C289.773438,361.506927 288.411865,360.066681 287.056152,358.257446 
	C288.384033,359.347198 289.706085,360.805939 291.081573,362.605957 
z"/>
<path fill="#7AB7C6" opacity="1.000000" stroke="none" 
	d="
M271.059418,333.603638 
	C270.086975,332.182648 269.064514,330.394623 268.031982,328.221436 
	C269.017761,329.636414 270.013550,331.436462 271.059418,333.603638 
z"/>
<path fill="#7BB7C6" opacity="1.000000" stroke="none" 
	d="
M246.909149,337.406982 
	C247.892776,338.485809 248.931946,339.913177 249.957520,341.725800 
	C248.950851,340.659210 247.957779,339.207367 246.909149,337.406982 
z"/>
<path fill="#7EB8C8" opacity="1.000000" stroke="none" 
	d="
M80.053177,319.620514 
	C79.075073,318.528992 78.046875,317.087494 77.044647,315.262573 
	C78.048111,316.342987 79.025597,317.806732 80.053177,319.620514 
z"/>
<path fill="#7AB7C5" opacity="1.000000" stroke="none" 
	d="
M251.386200,182.065857 
	C252.480850,181.096725 253.923752,180.076294 255.737457,179.055725 
	C254.650330,180.041931 253.192383,181.028244 251.386200,182.065857 
z"/>
<path fill="#7CB7C6" opacity="1.000000" stroke="none" 
	d="
M163.999146,151.594925 
	C162.493591,151.122604 160.858307,150.332016 159.138397,149.193878 
	C160.658997,149.656448 162.264221,150.466568 163.999146,151.594925 
z"/>
<path fill="#79B8C6" opacity="1.000000" stroke="none" 
	d="
M301.410736,147.115875 
	C301.068085,146.994186 301.053802,146.795944 301.019745,146.300201 
	C302.140350,145.352936 303.280701,144.703140 304.770538,144.056519 
	C303.993073,145.052902 302.866089,146.046097 301.410736,147.115875 
z"/>
<path fill="#79B6C6" opacity="1.000000" stroke="none" 
	d="
M138.409607,387.998383 
	C138.865234,386.807068 139.632507,385.492432 140.751297,384.106689 
	C140.308960,385.315430 139.515106,386.595245 138.409607,387.998383 
z"/>
<path fill="#79B6C6" opacity="1.000000" stroke="none" 
	d="
M149.323730,375.036682 
	C149.797958,373.832611 150.589905,372.502563 151.733444,371.102203 
	C151.270508,372.324829 150.455978,373.617767 149.323730,375.036682 
z"/>
<path fill="#7EB8C8" opacity="1.000000" stroke="none" 
	d="
M77.089233,314.597504 
	C76.432899,313.827118 75.714828,312.701752 75.003815,311.194916 
	C75.683083,311.956482 76.355293,313.099487 77.089233,314.597504 
z"/>
<path fill="#76B5C2" opacity="1.000000" stroke="none" 
	d="
M153.365234,369.069885 
	C153.825653,368.142487 154.635101,367.151306 155.787201,366.109070 
	C155.324661,367.040741 154.519470,368.023407 153.365234,369.069885 
z"/>
<path fill="#7CB7C6" opacity="1.000000" stroke="none" 
	d="
M169.007477,154.682068 
	C167.870041,154.515610 166.564087,154.037888 165.146973,153.213593 
	C166.303528,153.368271 167.571243,153.869522 169.007477,154.682068 
z"/>
<path fill="#79B8C6" opacity="1.000000" stroke="none" 
	d="
M305.382721,144.077301 
	C305.883698,143.376144 306.711121,142.617996 307.813354,141.943848 
	C307.295166,142.692017 306.502167,143.356171 305.382721,144.077301 
z"/>
<path fill="#7AB7C6" opacity="1.000000" stroke="none" 
	d="
M267.080994,325.619690 
	C266.438751,325.148590 265.744263,324.340271 265.031067,323.176178 
	C265.684509,323.641113 266.356628,324.461792 267.080994,325.619690 
z"/>
<path fill="#7EB8C8" opacity="1.000000" stroke="none" 
	d="
M84.081528,325.629456 
	C83.435616,325.173828 82.742012,324.384521 82.051414,323.244934 
	C82.714226,323.695038 83.374039,324.495392 84.081528,325.629456 
z"/>
<path fill="#7EB8C8" opacity="1.000000" stroke="none" 
	d="
M82.069672,322.632721 
	C81.437920,322.175201 80.752335,321.388275 80.051605,320.253052 
	C80.696259,320.704285 81.356049,321.503784 82.069672,322.632721 
z"/>
<path fill="#7BB7C6" opacity="1.000000" stroke="none" 
	d="
M263.939331,361.365967 
	C264.585846,361.843262 265.273407,362.659302 265.974060,363.832214 
	C265.318237,363.360962 264.649292,362.532837 263.939331,361.365967 
z"/>
<path fill="#81B8C9" opacity="1.000000" stroke="none" 
	d="
M155.017639,170.353088 
	C155.865723,170.516891 156.823227,170.993423 157.870361,171.802673 
	C157.015686,171.645538 156.071365,171.155670 155.017639,170.353088 
z"/>
<path fill="#7EB8C7" opacity="1.000000" stroke="none" 
	d="
M98.047272,130.338531 
	C98.867088,130.517685 99.824242,130.996201 100.869797,131.807556 
	C100.033676,131.639557 99.109138,131.138718 98.047272,130.338531 
z"/>
<path fill="#7FB9C8" opacity="1.000000" stroke="none" 
	d="
M145.064377,140.687775 
	C144.218674,140.511627 143.226715,140.023895 142.137253,139.197388 
	C142.999191,139.364502 143.958664,139.870361 145.064377,140.687775 
z"/>
<path fill="#83BBCB" opacity="1.000000" stroke="none" 
	d="
M136.010376,157.374832 
	C136.753891,157.227280 137.621185,157.385696 138.739517,158.039932 
	C138.979904,158.731827 138.969254,158.927902 138.958618,159.123962 
	C138.017136,158.642899 137.075653,158.161835 136.010376,157.374832 
z"/>
<path fill="#7FB9C8" opacity="1.000000" stroke="none" 
	d="
M151.990631,144.633148 
	C151.154907,144.479080 150.192429,144.013611 149.127319,143.220001 
	C149.971069,143.368484 150.917480,143.845123 151.990631,144.633148 
z"/>
<path fill="#7AB7C6" opacity="1.000000" stroke="none" 
	d="
M278.068726,344.632416 
	C277.431061,344.173553 276.748688,343.379974 276.060211,342.237671 
	C276.710754,342.691833 277.367432,343.494751 278.068726,344.632416 
z"/>
<path fill="#81B8C9" opacity="1.000000" stroke="none" 
	d="
M139.088776,159.396118 
	C138.969254,158.927902 138.979904,158.731827 139.007935,158.241272 
	C139.612747,158.447861 140.200180,158.948959 140.875839,159.738647 
	C140.382370,159.907562 139.800644,159.787903 139.088776,159.396118 
z"/>
<path fill="#7AB7C6" opacity="1.000000" stroke="none" 
	d="
M295.635345,364.083649 
	C296.011414,364.155487 296.011810,364.566620 296.016113,364.771912 
	C295.181213,364.827271 294.342010,364.677277 293.235901,364.343140 
	C293.732391,364.109955 294.495819,364.060883 295.635345,364.083649 
z"/>
<path fill="#81B8C9" opacity="1.000000" stroke="none" 
	d="
M164.027695,176.296661 
	C164.536407,176.435684 165.161041,176.846954 165.883530,177.535095 
	C165.368805,177.397614 164.756210,176.983246 164.027695,176.296661 
z"/>
<path fill="#7AB7C5" opacity="1.000000" stroke="none" 
	d="
M249.292450,183.831223 
	C249.502838,183.257843 250.013031,182.705338 250.817902,182.096756 
	C250.605789,182.644485 250.099030,183.248306 249.292450,183.831223 
z"/>
<path fill="#7AB7C6" opacity="1.000000" stroke="none" 
	d="
M282.069824,350.692200 
	C281.787170,350.509369 281.462006,350.003601 281.092712,349.192719 
	C281.374817,349.381500 281.701080,349.875397 282.069824,350.692200 
z"/>
<path fill="#7BB7C6" opacity="1.000000" stroke="none" 
	d="
M244.928467,334.305420 
	C245.209625,334.492554 245.536072,335.003265 245.899185,335.822327 
	C245.615143,335.630096 245.294449,335.129547 244.928467,334.305420 
z"/>
<path fill="#7EB8C8" opacity="1.000000" stroke="none" 
	d="
M94.141403,338.663696 
	C93.866432,338.473114 93.488701,337.964111 93.059387,337.133087 
	C93.351418,337.322479 93.695030,337.833893 94.141403,338.663696 
z"/>
<path fill="#7BB7C6" opacity="1.000000" stroke="none" 
	d="
M249.920532,342.315796 
	C250.217453,342.507538 250.558884,343.034180 250.942780,343.879761 
	C250.645157,343.682709 250.305099,343.166748 249.920532,342.315796 
z"/>
<path fill="#79B6C6" opacity="1.000000" stroke="none" 
	d="
M146.327026,378.949463 
	C146.244202,378.524597 146.454254,377.969666 146.874908,377.200134 
	C146.930328,377.596802 146.775131,378.208130 146.327026,378.949463 
z"/>
<path fill="#7AB7C6" opacity="1.000000" stroke="none" 
	d="
M281.075012,348.693542 
	C280.795410,348.506165 280.466736,347.997253 280.100098,347.180969 
	C280.383392,347.373016 280.704651,347.872528 281.075012,348.693542 
z"/>
<path fill="#7BB7C6" opacity="1.000000" stroke="none" 
	d="
M256.957245,352.293396 
	C257.167297,352.232941 257.436188,352.456726 257.848389,352.902283 
	C257.666473,352.941895 257.341278,352.759796 256.957245,352.293396 
z"/>
<path fill="#7EB8C7" opacity="1.000000" stroke="none" 
	d="
M101.910599,114.771057 
	C101.585152,114.947472 101.349411,114.765266 101.041588,114.331467 
	C101.267807,114.249352 101.611404,114.360199 101.910599,114.771057 
z"/>
<path fill="#7EB8C8" opacity="1.000000" stroke="none" 
	d="
M92.087677,335.714874 
	C91.905777,335.757904 91.613976,335.529449 91.165871,335.069061 
	C91.332298,335.039215 91.655037,335.241302 92.087677,335.714874 
z"/>
<path fill="#76B5C2" opacity="1.000000" stroke="none" 
	d="
M165.285034,353.057587 
	C165.239594,352.867889 165.469254,352.596313 165.921631,352.176636 
	C165.949631,352.344269 165.754868,352.659973 165.285034,353.057587 
z"/>
<path fill="#7AB7C6" opacity="1.000000" stroke="none" 
	d="
M283.048126,351.711548 
	C282.847473,351.768158 282.573761,351.544006 282.150665,351.098389 
	C282.325867,351.061554 282.650482,351.246185 283.048126,351.711548 
z"/>
<path fill="#79B6C6" opacity="1.000000" stroke="none" 
	d="
M141.269196,384.019165 
	C141.231094,383.840302 141.463699,383.576508 141.906952,383.152985 
	C141.925034,383.306946 141.732452,383.620605 141.269196,384.019165 
z"/>
<path fill="#8ABED1" opacity="1.000000" stroke="none" 
	d="
M189.293015,83.829880 
	C189.243423,83.590393 189.482788,83.408096 189.933044,83.127060 
	C189.928787,83.278015 189.741455,83.564262 189.293015,83.829880 
z"/>
<path fill="#7BB7C6" opacity="1.000000" stroke="none" 
	d="
M268.977783,368.273926 
	C269.174011,368.220123 269.439911,368.442139 269.852905,368.879211 
	C269.682495,368.912750 269.364960,368.731262 268.977783,368.273926 
z"/>
<path fill="#7BB7C6" opacity="1.000000" stroke="none" 
	d="
M262.991730,360.266479 
	C263.174744,360.222870 263.436279,360.449463 263.853455,360.885132 
	C263.696136,360.908386 263.383179,360.722534 262.991730,360.266479 
z"/>
<path fill="#79B6C6" opacity="1.000000" stroke="none" 
	d="
M142.275818,383.041016 
	C142.230042,382.853851 142.459412,382.582336 142.905457,382.154297 
	C142.931747,382.317383 142.741348,382.636993 142.275818,383.041016 
z"/>
<path fill="#7AB7C6" opacity="1.000000" stroke="none" 
	d="
M292.064575,363.709595 
	C291.884521,363.754578 291.602570,363.529388 291.157898,363.085632 
	C291.317688,363.057861 291.640137,363.248657 292.064575,363.709595 
z"/>
<path fill="#79B6C6" opacity="1.000000" stroke="none" 
	d="
M143.275421,382.040588 
	C143.227158,381.852814 143.453751,381.581451 143.895508,381.153259 
	C143.923859,381.316620 143.737061,381.636810 143.275421,382.040588 
z"/>
<path fill="#79B6C6" opacity="1.000000" stroke="none" 
	d="
M144.265106,381.023346 
	C144.221588,380.843109 144.446609,380.578186 144.881897,380.156799 
	C144.905991,380.313110 144.719803,380.625854 144.265106,381.023346 
z"/>
<path fill="#79B6C6" opacity="1.000000" stroke="none" 
	d="
M145.257263,380.002563 
	C145.225113,379.834656 145.453857,379.577179 145.888184,379.161743 
	C145.901886,379.306854 145.710037,379.609894 145.257263,380.002563 
z"/>
<path fill="#7BB7C6" opacity="1.000000" stroke="none" 
	d="
M266.122925,365.213562 
	C266.397125,365.150452 266.597595,365.397949 266.875183,365.885468 
	C266.689789,365.893829 266.388763,365.693390 266.122925,365.213562 
z"/>
<path fill="#79B6C6" opacity="1.000000" stroke="none" 
	d="
M147.286087,377.038086 
	C147.235092,376.830414 147.468475,376.558960 147.934799,376.149689 
	C147.968643,376.332703 147.769547,376.653503 147.286087,377.038086 
z"/>
<path fill="#7BB7C6" opacity="1.000000" stroke="none" 
	d="
M266.955475,366.285370 
	C267.161255,366.220490 267.436676,366.435455 267.854828,366.872192 
	C267.673401,366.917694 267.349243,366.741455 266.955475,366.285370 
z"/>
<path fill="#79B6C6" opacity="1.000000" stroke="none" 
	d="
M152.281418,370.999817 
	C152.128448,370.786407 152.287262,370.508606 152.658798,370.083130 
	C152.736343,370.244568 152.643570,370.577850 152.281418,370.999817 
z"/>
<path fill="#7BB7C6" opacity="1.000000" stroke="none" 
	d="
M267.992767,367.268036 
	C268.177460,367.221924 268.439484,367.444916 268.853241,367.877869 
	C268.693359,367.904236 268.381714,367.720673 267.992767,367.268036 
z"/>
<path fill="#7EB8C8" opacity="1.000000" stroke="none" 
	d="
M74.860840,309.758606 
	C74.601067,309.819489 74.410172,309.583649 74.141083,309.121277 
	C74.314919,309.113708 74.603851,309.302734 74.860840,309.758606 
z"/>
<path fill="#7AB7C5" opacity="1.000000" stroke="none" 
	d="
M267.172852,170.918396 
	C267.134399,170.656113 267.393158,170.440475 267.882690,170.119385 
	C267.899048,170.330963 267.684570,170.648010 267.172852,170.918396 
z"/>
<path fill="#7AB7C5" opacity="1.000000" stroke="none" 
	d="
M264.282654,173.035690 
	C264.241180,172.838226 264.480194,172.563141 264.957336,172.148575 
	C264.984680,172.325409 264.773895,172.641739 264.282654,173.035690 
z"/>
<path fill="#7CB7C6" opacity="1.000000" stroke="none" 
	d="
M172.057678,156.718750 
	C171.877060,156.770676 171.598587,156.555161 171.159988,156.128860 
	C171.319855,156.095810 171.639832,156.273544 172.057678,156.718750 
z"/>
<path fill="#83BBCB" opacity="1.000000" stroke="none" 
	d="
M134.966660,156.275955 
	C135.171432,156.213486 135.443726,156.429840 135.857513,156.867218 
	C135.677399,156.910416 135.355804,156.732605 134.966660,156.275955 
z"/>
<path fill="#7CB7C6" opacity="1.000000" stroke="none" 
	d="
M171.040222,155.678223 
	C170.826843,155.812546 170.522476,155.655121 170.040009,155.308411 
	C170.224350,155.208221 170.586777,155.297348 171.040222,155.678223 
z"/>
<path fill="#7AB7C5" opacity="1.000000" stroke="none" 
	d="
M291.268982,154.013428 
	C291.224304,153.830475 291.449890,153.567856 291.884216,153.148026 
	C291.908386,153.305130 291.723816,153.619446 291.268982,154.013428 
z"/>
<path fill="#65ADC0" opacity="1.000000" stroke="none" 
	d="
M279.756775,181.138351 
	C280.022095,181.167770 280.009003,181.580734 280.008423,181.787018 
	C279.827240,181.993835 279.646576,181.994354 279.194977,181.983490 
	C279.113159,181.684387 279.302307,181.396667 279.756775,181.138351 
z"/>
<path fill="#7CB7C6" opacity="1.000000" stroke="none" 
	d="
M165.040894,152.726776 
	C164.846207,152.783127 164.576874,152.562927 164.155975,152.129700 
	C164.325027,152.094528 164.645645,152.272354 165.040894,152.726776 
z"/>
<path fill="#7CB7C6" opacity="1.000000" stroke="none" 
	d="
M159.053345,148.697693 
	C158.837677,148.850983 158.549927,148.687302 158.108093,148.308426 
	C158.274628,148.227417 158.617050,148.323242 159.053345,148.697693 
z"/>
<path fill="#7CB7C6" opacity="1.000000" stroke="none" 
	d="
M157.074005,147.710907 
	C156.878601,147.831375 156.571869,147.668411 156.079422,147.320160 
	C156.250031,147.232407 156.606354,147.329941 157.074005,147.710907 
z"/>
<path fill="#7CB7C6" opacity="1.000000" stroke="none" 
	d="
M155.080505,146.707520 
	C154.887314,146.824478 154.590042,146.661621 154.114105,146.316284 
	C154.282425,146.231766 154.629425,146.329742 155.080505,146.707520 
z"/>
<path fill="#7FB9C8" opacity="1.000000" stroke="none" 
	d="
M153.039825,145.720703 
	C152.860550,145.765732 152.585907,145.542252 152.150375,145.107269 
	C152.307800,145.081253 152.626129,145.266724 153.039825,145.720703 
z"/>
<path fill="#7FB9C8" opacity="1.000000" stroke="none" 
	d="
M149.013794,142.725250 
	C148.812164,142.852921 148.536163,142.683990 148.101913,142.317841 
	C148.259109,142.250198 148.591034,142.352875 149.013794,142.725250 
z"/>
<path fill="#7FB9C8" opacity="1.000000" stroke="none" 
	d="
M147.099915,141.703003 
	C146.897507,141.832352 146.566162,141.671448 146.039154,141.312012 
	C146.219330,141.213226 146.595154,141.312988 147.099915,141.703003 
z"/>
<path fill="#7AB7C6" opacity="1.000000" stroke="none" 
	d="
M280.054962,346.711945 
	C279.851349,346.770294 279.575592,346.545990 279.151978,346.098328 
	C279.330383,346.059784 279.656586,346.244537 280.054962,346.711945 
z"/>
<path fill="#7FB9C8" opacity="1.000000" stroke="none" 
	d="
M142.041199,138.702271 
	C141.814407,138.867859 141.527802,138.706711 141.095215,138.321869 
	C141.269028,138.233795 141.613083,138.326248 142.041199,138.702271 
z"/>
<path fill="#7AB7C6" opacity="1.000000" stroke="none" 
	d="
M264.947754,321.811523 
	C264.671844,321.849945 264.450592,321.583252 264.125458,321.076599 
	C264.348511,321.059875 264.675476,321.283142 264.947754,321.811523 
z"/>
<path fill="#7EB8C8" opacity="1.000000" stroke="none" 
	d="
M85.021202,326.726349 
	C84.830551,326.773865 84.566940,326.544739 84.146606,326.103455 
	C84.309334,326.077454 84.628792,326.263580 85.021202,326.726349 
z"/>
<path fill="#7AB7C6" opacity="1.000000" stroke="none" 
	d="
M267.902771,326.770264 
	C267.597748,326.850494 267.389801,326.602539 267.123474,326.093689 
	C267.326477,326.077972 267.638062,326.281067 267.902771,326.770264 
z"/>
<path fill="#7FB9C8" opacity="1.000000" stroke="none" 
	d="
M140.036987,137.726837 
	C139.860382,137.773315 139.587219,137.554398 139.152756,137.127563 
	C139.307800,137.100235 139.624115,137.280823 140.036987,137.726837 
z"/>
<path fill="#7FB9C8" opacity="1.000000" stroke="none" 
	d="
M139.002914,136.705719 
	C138.797592,136.827072 138.502411,136.666321 138.030548,136.321625 
	C138.206924,136.233002 138.559998,136.328293 139.002914,136.705719 
z"/>
<path fill="#86BECF" opacity="1.000000" stroke="none" 
	d="
M235.237152,333.007935 
	C235.168762,332.856689 235.337036,332.615967 235.647888,332.209106 
	C235.690292,332.338562 235.584747,332.630402 235.237152,333.007935 
z"/>
<path fill="#7EB8C8" opacity="1.000000" stroke="none" 
	d="
M90.038620,333.720581 
	C89.857101,333.767365 89.583374,333.544220 89.149109,333.109070 
	C89.307846,333.081604 89.627129,333.266144 90.038620,333.720581 
z"/>
<path fill="#7FB9C8" opacity="1.000000" stroke="none" 
	d="
M136.052322,135.724701 
	C135.868149,135.776398 135.589615,135.557236 135.152267,135.124191 
	C135.314957,135.091492 135.636459,135.272659 136.052322,135.724701 
z"/>
<path fill="#7FB9C8" opacity="1.000000" stroke="none" 
	d="
M135.031097,134.702286 
	C134.804489,134.866516 134.518356,134.705109 134.084015,134.322815 
	C134.257645,134.235016 134.602905,134.326599 135.031097,134.702286 
z"/>
<path fill="#7BB7C6" opacity="1.000000" stroke="none" 
	d="
M245.941818,336.289246 
	C246.145737,336.231781 246.424438,336.457092 246.849411,336.910583 
	C246.669327,336.949829 246.342957,336.760895 245.941818,336.289246 
z"/>
<path fill="#7BB7C6" opacity="1.000000" stroke="none" 
	d="
M251.940170,345.279846 
	C252.107635,345.238342 252.389893,345.457458 252.842346,345.884583 
	C252.693344,345.908569 252.374161,345.724487 251.940170,345.279846 
z"/>
<path fill="#7AB7C6" opacity="1.000000" stroke="none" 
	d="
M279.024353,345.725128 
	C278.835297,345.773987 278.569244,345.548737 278.148132,345.110596 
	C278.311188,345.082153 278.629303,345.266571 279.024353,345.725128 
z"/>
<path fill="#7EB8C7" opacity="1.000000" stroke="none" 
	d="
M90.966629,125.266113 
	C91.151054,125.219322 91.419205,125.445969 91.846970,125.881943 
	C91.687836,125.907372 91.369095,125.723465 90.966629,125.266113 
z"/>
<path fill="#65ADC0" opacity="1.000000" stroke="none" 
	d="
M280.346497,182.216431 
	C302.694061,181.986893 325.382690,181.992065 348.540588,182.013550 
	C347.585785,182.350571 346.162506,182.946243 344.737427,182.950607 
	C324.520508,183.012650 304.303375,183.003296 284.086304,182.972519 
	C282.953125,182.970795 281.820435,182.632675 280.346497,182.216431 
z"/>
</svg>